<?xml version="1.0" encoding="UTF-8" standalone="no"?>
<!-- Created with Inkscape (http://www.inkscape.org/) -->

<svg
   xmlns:dc="http://purl.org/dc/elements/1.1/"
   xmlns:cc="http://creativecommons.org/ns#"
   xmlns:rdf="http://www.w3.org/1999/02/22-rdf-syntax-ns#"
   xmlns:svg="http://www.w3.org/2000/svg"
   xmlns="http://www.w3.org/2000/svg"
   xmlns:xlink="http://www.w3.org/1999/xlink"
   xmlns:sodipodi="http://sodipodi.sourceforge.net/DTD/sodipodi-0.dtd"
   xmlns:inkscape="http://www.inkscape.org/namespaces/inkscape"
   width="1458"
   height="935"
   viewBox="0 0 385.76249 247.38542"
   preserveAspectRatio="none"
   version="1.1"
   id="svg4575"
   inkscape:version="0.92.1 r15371"
   sodipodi:docname="GalleryBack.svg">
  <defs
     id="defs4569">
    <linearGradient
       inkscape:collect="always"
       id="linearGradient4640">
      <stop
         style="stop-color:#638cb9;stop-opacity:0.69803923"
         offset="0"
         id="stop4636" />
      <stop
         style="stop-color:#ae8de4;stop-opacity:0.18431373"
         offset="1"
         id="stop4638" />
    </linearGradient>
    <linearGradient
       inkscape:collect="always"
       id="linearGradient4632">
      <stop
         style="stop-color:#2c5aa0;stop-opacity:1;"
         offset="0"
         id="stop4628" />
      <stop
         style="stop-color:#91b7ce;stop-opacity:0.44705883"
         offset="1"
         id="stop4630" />
    </linearGradient>
    <linearGradient
       inkscape:collect="always"
       id="linearGradient4618">
      <stop
         style="stop-color:#d7d893;stop-opacity:1"
         offset="0"
         id="stop4614" />
      <stop
         style="stop-color:#5ba0ff;stop-opacity:0;"
         offset="1"
         id="stop4616" />
    </linearGradient>
    <linearGradient
       inkscape:collect="always"
       id="linearGradient4582">
      <stop
         style="stop-color:#86b9ff;stop-opacity:1"
         offset="0"
         id="stop4578" />
      <stop
         style="stop-color:#5ba0ff;stop-opacity:0"
         offset="1"
         id="stop4580" />
    </linearGradient>
    <linearGradient
       inkscape:collect="always"
       id="linearGradient4574">
      <stop
         style="stop-color:#83f33e;stop-opacity:0.25882354"
         offset="0"
         id="stop4570" />
      <stop
         style="stop-color:#78f02d;stop-opacity:0"
         offset="1"
         id="stop4572" />
    </linearGradient>
    <linearGradient
       inkscape:collect="always"
       id="linearGradient4558">
      <stop
         style="stop-color:#8dd35f;stop-opacity:1"
         offset="0"
         id="stop4554" />
      <stop
         style="stop-color:#c9d4c4;stop-opacity:1"
         offset="1"
         id="stop4556" />
    </linearGradient>
    <linearGradient
       inkscape:collect="always"
       id="linearGradient4550">
      <stop
         style="stop-color:#599cff;stop-opacity:1"
         offset="0"
         id="stop4546" />
      <stop
         style="stop-color:#d7d893;stop-opacity:1"
         offset="1"
         id="stop4548" />
    </linearGradient>
    <linearGradient
       inkscape:collect="always"
       id="linearGradient4542">
      <stop
         style="stop-color:#b192e0;stop-opacity:1"
         offset="0"
         id="stop4538" />
      <stop
         style="stop-color:#ccb6eb;stop-opacity:0.19607843"
         offset="1"
         id="stop4540" />
    </linearGradient>
    <linearGradient
       inkscape:collect="always"
       id="linearGradient4534">
      <stop
         style="stop-color:#d7d893;stop-opacity:1"
         offset="0"
         id="stop4530" />
      <stop
         style="stop-color:#7979b1;stop-opacity:0.30588236"
         offset="1"
         id="stop4532" />
    </linearGradient>
    <linearGradient
       inkscape:collect="always"
       id="linearGradient4526">
      <stop
         style="stop-color:#a3a3e6;stop-opacity:0.42796609"
         offset="0"
         id="stop4522" />
      <stop
         style="stop-color:#0b0b28;stop-opacity:0;"
         offset="1"
         id="stop4524" />
    </linearGradient>
    <linearGradient
       inkscape:collect="always"
       id="linearGradient4518">
      <stop
         style="stop-color:#5ff000;stop-opacity:0.29237288"
         offset="0"
         id="stop4514" />
      <stop
         style="stop-color:#ffdb55;stop-opacity:0.22352941"
         offset="1"
         id="stop4516" />
    </linearGradient>
    <linearGradient
       inkscape:collect="always"
       id="linearGradient4510">
      <stop
         style="stop-color:#ffba8c;stop-opacity:1"
         offset="0"
         id="stop4506" />
      <stop
         style="stop-color:#ffdb55;stop-opacity:0.22352941"
         offset="1"
         id="stop4508" />
    </linearGradient>
    <linearGradient
       inkscape:collect="always"
       xlink:href="#linearGradient4510"
       id="linearGradient4512"
       x1="108.23032"
       y1="12.763496"
       x2="388.77579"
       y2="255.55774"
       gradientUnits="userSpaceOnUse" />
    <linearGradient
       inkscape:collect="always"
       xlink:href="#linearGradient4518"
       id="linearGradient4520"
       x1="80.795937"
       y1="594.58313"
       x2="834.10138"
       y2="22.576332"
       gradientUnits="userSpaceOnUse" />
    <linearGradient
       inkscape:collect="always"
       xlink:href="#linearGradient4526"
       id="linearGradient4528"
       x1="949.09399"
       y1="19.812874"
       x2="116.73161"
       y2="719.38953"
       gradientUnits="userSpaceOnUse" />
    <linearGradient
       inkscape:collect="always"
       xlink:href="#linearGradient4534"
       id="linearGradient4536"
       x1="934.00513"
       y1="557.67285"
       x2="732.63336"
       y2="305.27652"
       gradientUnits="userSpaceOnUse" />
    <linearGradient
       inkscape:collect="always"
       xlink:href="#linearGradient4542"
       id="linearGradient4544"
       x1="271.79492"
       y1="786.48383"
       x2="668.38867"
       y2="449.04099"
       gradientUnits="userSpaceOnUse" />
    <radialGradient
       inkscape:collect="always"
       xlink:href="#linearGradient4550"
       id="radialGradient4552"
       cx="644.39862"
       cy="776.60156"
       fx="644.39862"
       fy="776.60156"
       r="367.90054"
       gradientTransform="matrix(1,0,0,0.4305469,0,442.23817)"
       gradientUnits="userSpaceOnUse" />
    <radialGradient
       inkscape:collect="always"
       xlink:href="#linearGradient4558"
       id="radialGradient4560"
       cx="806.57635"
       cy="766.64075"
       fx="806.57635"
       fy="766.64075"
       r="346.49258"
       gradientTransform="matrix(-0.66547902,0.10161706,-0.06031983,-0.39502791,1359.8641,921.55147)"
       gradientUnits="userSpaceOnUse" />
    <radialGradient
       inkscape:collect="always"
       xlink:href="#linearGradient4574"
       id="radialGradient4576"
       cx="1466.4696"
       cy="902.78125"
       fx="1466.4696"
       fy="902.78125"
       r="111.1426"
       gradientTransform="matrix(-0.30419337,-0.95261031,1.801928,-0.57540269,285.81315,2805.651)"
       gradientUnits="userSpaceOnUse" />
    <linearGradient
       inkscape:collect="always"
       xlink:href="#linearGradient4582"
       id="linearGradient4588"
       x1="1110.6425"
       y1="922.74847"
       x2="1489.8223"
       y2="848.6756"
       gradientUnits="userSpaceOnUse" />
    <linearGradient
       inkscape:collect="always"
       xlink:href="#linearGradient4618"
       id="linearGradient4624"
       x1="962.17676"
       y1="512.10638"
       x2="1520"
       y2="512.10638"
       gradientUnits="userSpaceOnUse" />
    <radialGradient
       inkscape:collect="always"
       xlink:href="#linearGradient4632"
       id="radialGradient4634"
       cx="1294.5314"
       cy="378.09952"
       fx="1294.5314"
       fy="378.09952"
       r="225.46864"
       gradientTransform="matrix(-0.16810053,0.94908158,-0.90968328,-0.16112234,1856.0936,-789.59604)"
       gradientUnits="userSpaceOnUse" />
    <radialGradient
       inkscape:collect="always"
       xlink:href="#linearGradient4640"
       id="radialGradient4642"
       cx="1287.5302"
       cy="334.68018"
       fx="1287.5302"
       fy="334.68018"
       r="183.08798"
       gradientTransform="matrix(0.91846877,-0.39549351,0.37460649,0.86996208,-20.399448,537.28891)"
       gradientUnits="userSpaceOnUse" />
  </defs>
  <sodipodi:namedview
     id="base"
     pagecolor="#ffffff"
     bordercolor="#666666"
     borderopacity="1.0"
     inkscape:pageopacity="0.0"
     inkscape:pageshadow="2"
     inkscape:zoom="0.36450618"
     inkscape:cx="1233.7704"
     inkscape:cy="488.84038"
     inkscape:document-units="mm"
     inkscape:current-layer="layer1"
     showgrid="false"
     inkscape:window-width="1680"
     inkscape:window-height="984"
     inkscape:window-x="-8"
     inkscape:window-y="-8"
     inkscape:window-maximized="1"
     units="px"
     inkscape:snap-nodes="true"
     inkscape:snap-others="false"
     inkscape:snap-bbox="true"
     inkscape:snap-to-guides="false"
     inkscape:snap-grids="false"
     inkscape:snap-global="false"
     showguides="false">
    <inkscape:grid
       type="xygrid"
       id="grid4577" />
  </sodipodi:namedview>
  <metadata
     id="metadata4572">
    <rdf:RDF>
      <cc:Work
         rdf:about="">
        <dc:format>image/svg+xml</dc:format>
        <dc:type
           rdf:resource="http://purl.org/dc/dcmitype/StillImage" />
        <dc:title></dc:title>
      </cc:Work>
    </rdf:RDF>
  </metadata>
  <g
     inkscape:label="Layer 1"
     inkscape:groupmode="layer"
     id="layer1"
     transform="translate(0,-49.614567)">
    <g
       id="g6122"
       style="opacity:0.81699997"
       transform="matrix(1.03864,0,0,1.0264949,-29.251001,-4.2396355)">
      <path
         transform="matrix(0.26458333,0,0,0.26458333,0,49.614567)"
         id="path4506"
         d="M 443.64453,3.0859375 H 100 V 348.91016 c 5.46778,-0.96785 11.01915,-1.86212 16.33398,-2.96289 9.00598,-1.86527 17.79355,-3.91871 26.36719,-6.1543 8.57365,-2.23559 16.93215,-4.6525 25.08203,-7.24414 8.14988,-2.59164 16.08954,-5.35957 23.82422,-8.29297 7.73468,-2.9334 15.26571,-6.03404 22.59375,-9.29492 7.32804,-3.26088 14.4548,-6.68179 21.38477,-10.25586 6.92997,-3.57408 13.66266,-7.30085 20.20312,-11.17383 6.54046,-3.87298 12.88736,-7.89122 19.04688,-12.04883 6.15951,-4.15761 12.13083,-8.45486 17.91797,-12.88281 5.78713,-4.42795 11.39113,-8.98786 16.81445,-13.67188 5.42332,-4.68401 10.66631,-9.49218 15.73437,-14.41796 5.06807,-4.92579 9.96026,-9.96782 14.68165,-15.1211 4.72138,-5.15327 9.27299,-10.41672 13.65624,-15.7832 4.38326,-5.36648 8.59865,-10.83694 12.65235,-16.40235 4.0537,-5.5654 7.94503,-11.22652 11.67773,-16.97656 3.73271,-5.75004 7.30629,-11.58937 10.72657,-17.50976 3.42027,-5.9204 6.68632,-11.92159 9.80273,-17.99805 3.11641,-6.07646 6.08319,-12.22707 8.9043,-18.44531 2.8211,-6.21825 5.49688,-12.50386 8.03125,-18.84961 2.53437,-6.345749 4.92739,-12.751975 7.18359,-19.210939 2.2562,-6.458965 4.37669,-12.9714 6.36328,-19.529297 1.98659,-6.557897 3.83891,-13.160189 5.56446,-19.802735 1.72554,-6.642545 3.32381,-13.324199 4.79687,-20.037109 1.47306,-6.71291 2.82163,-13.457572 4.05078,-20.2265625 0.0924,-0.5087381 0.15897,-1.0222385 0.25,-1.53125 z"
         style="opacity:0.81999966;fill:url(#linearGradient4512);fill-opacity:1;stroke:none;stroke-width:1.72688246;stroke-linecap:round;stroke-linejoin:round;stroke-miterlimit:4;stroke-dasharray:none;stroke-opacity:1"
         inkscape:connector-curvature="0" />
      <path
         transform="matrix(0.26458333,0,0,0.26458333,0,49.614567)"
         id="path4511"
         d="M 856.62109,3.0859375 H 443.64453 c -0.091,0.5090115 -0.15762,1.0225119 -0.25,1.53125 -1.22915,6.7689905 -2.57772,13.5136525 -4.05078,20.2265625 -1.47306,6.71291 -3.07134,13.394564 -4.79687,20.037109 -1.72555,6.642546 -3.57787,13.244838 -5.56446,19.802735 -1.98659,6.557897 -4.10708,13.070332 -6.36328,19.529297 -2.2562,6.458964 -4.64922,12.865188 -7.18359,19.210939 -2.53437,6.34575 -5.21015,12.63136 -8.03125,18.84961 -2.82111,6.21824 -5.78789,12.36885 -8.9043,18.44531 -3.11641,6.07646 -6.38246,12.07765 -9.80273,17.99805 -3.42028,5.92039 -6.99386,11.75972 -10.72657,17.50976 -3.7327,5.75004 -7.62403,11.41117 -11.67773,16.97656 -4.0537,5.56541 -8.26909,11.03587 -12.65235,16.40235 -4.38324,5.36648 -8.93487,10.62993 -13.65624,15.7832 -4.72139,5.15328 -9.61358,10.19531 -14.68165,15.1211 -5.06806,4.92578 -10.31105,9.73395 -15.73437,14.41796 -5.42332,4.68402 -11.02732,9.24393 -16.81445,13.67188 -5.78714,4.42795 -11.75846,8.7252 -17.91797,12.88281 -6.15952,4.15761 -12.50642,8.17585 -19.04688,12.04883 -6.54046,3.87298 -13.27315,7.59975 -20.20312,11.17383 -6.92997,3.57407 -14.05673,6.99498 -21.38477,10.25586 -7.32804,3.26088 -14.85907,6.36152 -22.59375,9.29492 -7.73468,2.9334 -15.67434,5.70133 -23.82422,8.29297 -8.14988,2.59164 -16.50838,5.00855 -25.08203,7.24414 -8.57364,2.23559 -17.36121,4.28903 -26.36719,6.1543 -5.31483,1.10077 -10.8662,1.99504 -16.33398,2.96289 v 143.73437 c 8.74633,-2.68686 17.49202,-5.38491 26.17188,-8.18555 11.18657,-3.60945 22.30562,-7.30652 33.32031,-11.07421 11.01468,-3.7677 21.92564,-7.6048 32.69922,-11.4961 10.77357,-3.89129 21.40786,-7.83613 31.87109,-11.8164 10.46323,-3.98028 20.75423,-7.99663 30.83789,-12.03125 10.08367,-4.03463 19.96083,-8.08824 29.5957,-12.14258 9.63487,-4.05435 19.02769,-8.109 28.14453,-12.14844 9.11685,-4.03944 17.95869,-8.06283 26.48829,-12.05273 8.52959,-3.9899 16.74797,-7.94583 24.62109,-11.85157 7.87312,-3.90573 15.39946,-7.76188 22.54688,-11.54882 7.14741,-3.78695 13.91509,-7.50515 20.26757,-11.13868 6.35249,-3.63352 12.29097,-7.18147 17.7793,-10.62695 5.48833,-3.44548 10.52709,-6.78892 15.08203,-10.01172 4.55494,-3.2228 8.62541,-6.32552 12.17774,-9.29101 3.55232,-2.9655 6.58591,-5.79324 9.0664,-8.4668 1.24025,-1.33678 2.34148,-2.63527 3.30078,-3.89258 0.95931,-1.25731 1.77756,-2.47298 2.44727,-3.64648 0.66971,-1.17351 1.19104,-2.30526 1.5625,-3.39063 0.37146,-1.08537 0.59169,-2.12428 0.65625,-3.11719 0.0646,-0.9929 -0.0264,-1.93982 -0.27734,-2.83593 -0.251,-0.89612 -0.66113,-1.74211 -1.23633,-2.53711 -0.5752,-0.795 -1.3146,-1.53897 -2.22266,-2.22852 -0.90806,-0.68955 -1.9848,-1.32452 -3.23437,-1.9043 -1.24958,-0.57977 -2.67175,-1.10464 -4.27149,-1.57031 -1.59974,-0.46567 -3.37738,-0.87151 -5.33594,-1.21875 -1.68807,0.59151 -2.74864,0.89783 -3.23632,0.93555 -0.24385,0.0189 -0.345,-0.0302 -0.3086,-0.14453 0.0364,-0.11432 0.21027,-0.29313 0.51367,-0.53711 1.21361,-0.97594 4.51061,-2.97467 9.4668,-5.88477 4.95619,-2.9101 11.57028,-6.73207 19.42188,-11.35156 7.85159,-4.61949 16.94003,-10.03653 26.83984,-16.14062 9.89981,-6.1041 20.61204,-12.89586 31.71289,-20.25977 5.55042,-3.68196 11.19684,-7.50617 16.88867,-11.46094 5.69184,-3.95476 11.4289,-8.0388 17.15625,-12.23828 5.72735,-4.19948 11.44655,-8.51555 17.10352,-12.93164 5.65696,-4.41609 11.25174,-8.9325 16.73242,-13.53711 5.48068,-4.6046 10.84642,-9.29748 16.04492,-14.0625 5.1985,-4.76502 10.22864,-9.60266 15.03906,-14.5 4.81043,-4.89734 9.40066,-9.85413 13.84571,-14.84766 4.44504,-4.99352 8.74559,-10.02281 12.97656,-15.06836 8.46194,-10.09108 16.64673,-20.24324 25.16016,-30.27734 4.25671,-5.01705 8.59526,-10.00486 13.09179,-14.941405 4.49653,-4.936543 9.15141,-9.820948 14.03907,-14.632813 4.88765,-4.811864 10.00938,-9.550345 15.43945,-14.193359 5.43007,-4.643014 11.16918,-9.191102 17.29297,-13.621094 3.06189,-2.214995 6.21873,-4.40123 9.48242,-6.554687 3.26369,-2.153458 6.63278,-4.27493 10.11719,-6.361328 3.4844,-2.086398 7.08456,-4.136574 10.80859,-6.150391 3.72403,-2.013817 7.57213,-3.990067 11.55469,-5.925781 3.98256,-1.935714 8.09936,-3.831504 12.35937,-5.683594 4.26001,-1.852089 8.66434,-3.660885 13.22071,-5.423828 4.55637,-1.762943 9.26507,-3.480162 14.13671,-5.148438 4.87165,-1.6682754 9.9055,-3.2873814 15.11133,-4.8554682 4.04751,-1.21918 8.2911,-2.379507 12.55078,-3.5351563 z"
         style="opacity:0.81999966;fill:#ffdd55;fill-opacity:0.22455091;stroke:none;stroke-width:1.72688246;stroke-linecap:round;stroke-linejoin:round;stroke-miterlimit:4;stroke-dasharray:none;stroke-opacity:1"
         inkscape:connector-curvature="0" />
      <path
         transform="matrix(0.26458333,0,0,0.26458333,0,49.614567)"
         id="path4516"
         d="m 894.45703,3.0859375 h -37.83594 c -4.25968,1.1556493 -8.50327,2.3159763 -12.55078,3.5351563 -5.20583,1.5680867 -10.23968,3.1871933 -15.11133,4.8554682 -4.87164,1.668276 -9.58034,3.385495 -14.13671,5.148438 -4.55637,1.762943 -8.9607,3.571739 -13.22071,5.423828 -4.26001,1.85209 -8.37681,3.74788 -12.35937,5.683594 -3.98256,1.935714 -7.83066,3.911964 -11.55469,5.925781 -3.72403,2.013817 -7.32419,4.063993 -10.80859,6.150391 -3.48441,2.086398 -6.8535,4.20787 -10.11719,6.361328 -3.26369,2.153457 -6.42053,4.339692 -9.48242,6.554687 -6.12379,4.429992 -11.8629,8.97808 -17.29297,13.621094 -5.43007,4.643014 -10.55181,9.381496 -15.43945,14.193359 -4.88766,4.811865 -9.54254,9.69627 -14.03907,14.632813 -4.49653,4.936545 -8.83508,9.924355 -13.09179,14.941405 -8.51343,10.0341 -16.69822,20.18627 -25.16016,30.27734 -4.23097,5.04555 -8.53152,10.07484 -12.97656,15.06836 -4.44505,4.99353 -9.03528,9.95032 -13.84571,14.84766 -4.81042,4.89734 -9.84056,9.73498 -15.03906,14.5 -5.1985,4.76502 -10.56424,9.4579 -16.04492,14.0625 -5.48068,4.60461 -11.07546,9.12102 -16.73242,13.53711 -5.65697,4.41609 -11.37617,8.73216 -17.10352,12.93164 -5.72735,4.19948 -11.46441,8.28352 -17.15625,12.23828 -5.69183,3.95477 -11.33825,7.77898 -16.88867,11.46094 -11.10085,7.36391 -21.81308,14.15567 -31.71289,20.25977 -9.89981,6.10408 -18.98825,11.52113 -26.83984,16.14062 -7.8516,4.61949 -14.46569,8.44146 -19.42188,11.35156 -4.95619,2.9101 -8.25319,4.90883 -9.4668,5.88477 -0.3034,0.24398 -0.47727,0.42279 -0.51367,0.53711 -0.0364,0.11432 0.0648,0.16339 0.3086,0.14453 0.48768,-0.0377 1.54825,-0.34404 3.23632,-0.93555 1.95856,0.34724 3.7362,0.75308 5.33594,1.21875 1.59974,0.46567 3.02191,0.99054 4.27149,1.57031 1.24957,0.57978 2.32631,1.21475 3.23437,1.9043 0.90806,0.68955 1.64746,1.43352 2.22266,2.22852 0.5752,0.795 0.98533,1.64099 1.23633,2.53711 0.25098,0.89611 0.3419,1.84303 0.27734,2.83593 -0.0646,0.99291 -0.28479,2.03182 -0.65625,3.11719 -0.37146,1.08537 -0.89279,2.21712 -1.5625,3.39063 -0.66971,1.1735 -1.48796,2.38917 -2.44727,3.64648 -0.9593,1.25731 -2.06053,2.5558 -3.30078,3.89258 -2.48049,2.67356 -5.51408,5.5013 -9.0664,8.4668 -3.55233,2.96549 -7.6228,6.06821 -12.17774,9.29101 -4.55494,3.2228 -9.5937,6.56624 -15.08203,10.01172 -5.48833,3.44548 -11.42681,6.99343 -17.7793,10.62695 -6.35248,3.63353 -13.12017,7.35173 -20.26757,11.13868 -7.14742,3.78693 -14.67376,7.64309 -22.54688,11.54882 -7.87312,3.90574 -16.0915,7.86167 -24.62109,11.85157 -8.5296,3.9899 -17.37144,8.01329 -26.48829,12.05273 -9.11683,4.03944 -18.50966,8.09409 -28.14453,12.14844 -9.63487,4.05434 -19.51203,8.10795 -29.5957,12.14258 -10.08366,4.03462 -20.37466,8.05097 -30.83789,12.03125 -10.46323,3.98027 -21.09752,7.92511 -31.87109,11.8164 -10.77358,3.8913 -21.68454,7.7284 -32.69922,11.4961 -11.01469,3.76769 -22.13375,7.46476 -33.32031,11.07421 -8.67986,2.80064 -17.42555,5.49869 -26.17188,8.18555 v 152.97852 c 10.84754,-4.70378 21.82585,-9.61123 32.93359,-14.86719 11.91526,-5.63806 23.94247,-11.6098 36.00196,-17.94727 6.02974,-3.16873 12.06782,-6.42915 18.10351,-9.78515 6.03569,-3.35601 12.07025,-6.80781 18.0918,-10.35938 6.02155,-3.55156 12.03024,-7.20358 18.01758,-10.95898 5.98734,-3.75541 11.95171,-7.6145 17.88476,-11.58203 5.93305,-3.96753 11.83468,-8.04254 17.69336,-12.23047 5.85869,-4.18794 11.67522,-8.48767 17.43946,-12.9043 5.76423,-4.41663 11.47528,-8.94992 17.125,-13.60351 5.64971,-4.6536 11.23879,-9.42732 16.7539,-14.32618 5.51512,-4.89885 10.95792,-9.92378 16.31836,-15.07617 5.36044,-5.15239 10.63854,-10.43344 15.82422,-15.84765 0,0 0.10435,2.31257 1.22461,6.6875 0.56013,2.18746 1.37298,4.89059 2.55469,8.07812 1.18171,3.18753 2.73271,6.85923 4.76367,10.98438 3.55148,-1.35145 7.19191,-2.80616 10.9375,-4.4043 3.74559,-1.59814 7.59503,-3.33952 11.56641,-5.26563 3.97137,-1.9261 8.06412,-4.03574 12.29296,-6.37109 4.22885,-2.33535 8.5953,-4.89679 13.11328,-7.72266 4.51799,-2.82586 9.18658,-5.91679 14.0254,-9.31445 4.83881,-3.39766 9.84775,-7.10162 15.03906,-11.15234 5.19131,-4.05072 10.56513,-8.44737 16.14062,-13.23242 5.57549,-4.78506 11.35241,-9.95793 17.34375,-15.5586 5.99135,-5.60067 12.19784,-11.62939 18.63672,-18.12695 6.43888,-6.49756 13.10925,-13.46373 20.02735,-20.93945 6.91809,-7.47573 14.08468,-15.46094 21.51367,-23.9961 7.42898,-8.53516 15.12024,-17.62101 23.09179,-27.29687 7.97156,-9.67587 16.22178,-19.942 24.76758,-30.83985 8.5458,-10.89785 17.38734,-22.42779 26.53906,-34.6289 9.15173,-12.20111 18.61498,-25.07452 28.4043,-38.66016 9.78933,-13.58564 19.90468,-27.88214 30.36328,-42.93359 7.34358,-9.1089 13.45759,-16.50128 18.57618,-22.45118 5.11858,-5.94989 9.24166,-10.45854 12.60742,-13.80468 1.68288,-1.67307 3.17656,-3.0554 4.50976,-4.18164 1.33321,-1.12624 2.50628,-1.99572 3.54883,-2.64453 1.04256,-0.64882 1.9547,-1.07561 2.76563,-1.31641 0.81092,-0.2408 1.51988,-0.29508 2.1582,-0.19727 0.63832,0.0978 1.20574,0.34588 1.73047,0.71289 0.52473,0.36702 1.00835,0.85311 1.47851,1.41993 0.94033,1.13363 1.83005,2.59689 2.90625,4.11328 0.5381,0.75819 1.12261,1.52952 1.78321,2.27929 0.6606,0.74978 1.39616,1.47845 2.23828,2.15039 0.84212,0.67195 1.79038,1.28583 2.87304,1.81055 1.08267,0.52472 2.30137,0.9595 3.6836,1.26758 -0.22454,-4.00185 -0.14157,-7.95928 0.23047,-11.87109 0.37204,-3.91182 1.0323,-7.77814 1.96289,-11.59766 0.93058,-3.81952 2.13093,-7.59144 3.58203,-11.31641 1.45109,-3.72496 3.15237,-7.40309 5.08594,-11.03125 1.93356,-3.62815 4.09856,-7.20724 6.47656,-10.73632 2.378,-3.52909 4.9695,-7.0078 7.75391,-10.43555 2.7844,-3.42775 5.76324,-6.80475 8.91601,-10.128908 3.15277,-3.324158 6.4798,-6.596147 9.96289,-9.814453 3.48309,-3.218307 7.1211,-6.381992 10.89649,-9.492188 3.77538,-3.110195 7.68716,-6.166191 11.71679,-9.166015 4.02964,-2.999825 8.17798,-5.944837 12.42383,-8.832032 4.24585,-2.887194 8.58964,-5.715976 13.01367,-8.488281 4.42404,-2.772305 8.92801,-5.487422 13.49219,-8.142578 4.56418,-2.655156 9.18918,-5.251362 13.85547,-7.787109 9.33257,-5.071494 18.83096,-9.902121 28.34375,-14.482422 9.51279,-4.580301 19.03902,-8.9094374 28.42773,-12.980469 0.99466,-0.4312905 1.93246,-0.785475 2.92383,-1.2109375 z"
         style="opacity:0.81999966;fill:url(#linearGradient4520);fill-opacity:1;stroke:none;stroke-width:1.72688246;stroke-linecap:round;stroke-linejoin:round;stroke-miterlimit:4;stroke-dasharray:none;stroke-opacity:1"
         inkscape:connector-curvature="0" />
      <path
         transform="matrix(0.26458333,0,0,0.26458333,0,49.614567)"
         id="path4521"
         d="m 1520,777.58594 c -0.512,0.051 -1.0487,0.0778 -1.5586,0.13086 -4.6332,0.48212 -9.1799,1.05042 -13.6426,1.70312 -4.4626,0.65271 -8.8398,1.38854 -13.1367,2.20703 -4.2969,0.8185 -8.5125,1.71973 -12.6484,2.69922 -4.1359,0.97949 -8.1922,2.03815 -12.1719,3.17383 -3.9797,1.13568 -7.8826,2.34769 -11.7109,3.63477 -3.8283,1.28707 -7.582,2.64835 -11.2637,4.08203 -3.6817,1.43367 -7.2922,2.94015 -10.832,4.51562 -3.5399,1.57548 -7.0093,3.22112 -10.4122,4.9336 -3.4028,1.71248 -6.739,3.49125 -10.0097,5.33593 -3.2707,1.84469 -6.4759,3.75447 -9.6192,5.72657 -3.1432,1.97209 -6.2234,4.00686 -9.2441,6.10156 -3.0207,2.0947 -5.9819,4.25037 -8.8848,6.46289 -5.8057,4.42503 -11.3809,9.07977 -16.7441,13.94726 -5.3633,4.8675 -10.5155,9.94718 -15.4746,15.21875 -4.9592,5.27158 -9.7249,10.73578 -14.3184,16.37305 -4.5934,5.63727 -9.0131,11.44752 -13.2793,17.41211 -4.2661,5.96459 -8.3782,12.08241 -12.3554,18.33594 -3.9773,6.25352 -7.8203,12.6424 -11.5469,19.14648 -1.1784,2.05666 -2.2758,4.19425 -3.4317,6.27344 H 1520 Z"
         style="opacity:0.81999966;fill:url(#radialGradient4576);fill-opacity:1;stroke:none;stroke-width:1.72688246;stroke-linecap:round;stroke-linejoin:round;stroke-miterlimit:4;stroke-dasharray:none;stroke-opacity:1"
         inkscape:connector-curvature="0" />
      <path
         transform="matrix(0.26458333,0,0,0.26458333,0,49.614567)"
         id="path4526"
         d="m 1520,753.34375 c -4.9647,-1.22204 -9.9339,-2.43316 -14.8809,-3.31836 -6.5117,-1.16519 -12.9919,-2.05251 -19.4023,-2.70117 -6.4104,-0.64866 -12.7496,-1.05724 -18.9785,-1.26563 -6.2289,-0.20838 -12.3474,-0.21616 -18.3145,-0.0605 -5.9671,0.15562 -11.7831,0.4746 -17.4082,0.91797 -5.6251,0.44337 -11.0589,1.01115 -16.2617,1.66601 -5.2028,0.65486 -10.1747,1.39546 -14.875,2.18555 -9.4006,1.58018 -17.716,3.356 -24.625,5.01953 -6.909,1.66353 -12.412,3.21476 -16.1875,4.35156 -3.7755,1.13681 -5.8242,1.85742 -5.8242,1.85742 0,0 0.9569,0.54294 1.9433,1.46875 0.4933,0.46291 0.9945,1.02163 1.3868,1.65625 0.3923,0.63463 0.6765,1.34481 0.7363,2.11133 0.06,0.76653 -0.1049,1.59062 -0.6094,2.44922 -0.5045,0.8586 -1.35,1.75321 -2.6504,2.66406 -1.3003,0.91085 -3.0568,1.83649 -5.3847,2.75977 -2.328,0.92328 -5.2274,1.84434 -8.8145,2.74023 -9.3895,2.34503 -17.8779,4.76222 -25.6152,7.25 -7.7373,2.48778 -14.7233,5.04554 -21.1094,7.67188 -6.3861,2.62634 -12.1718,5.32132 -17.5078,8.08203 -5.336,2.76071 -10.2217,5.58764 -14.8086,8.47851 -4.5869,2.89088 -8.8749,5.84448 -13.0137,8.86133 -4.1387,3.01685 -8.1275,6.09575 -12.1191,9.23438 -7.9834,6.27726 -15.9747,12.794 -25.1758,19.5332 -3.1121,2.00276 -5.4411,3.61257 -7.1348,4.91406 -1.6936,1.30149 -2.7526,2.2945 -3.3242,3.06836 -0.2858,0.38694 -0.4489,0.72023 -0.5098,1.00782 -0.061,0.28758 -0.019,0.53028 0.1075,0.74023 0.2539,0.41989 0.8479,0.70575 1.6308,0.94531 1.5658,0.47913 3.8922,0.77062 5.795,1.57031 0.9513,0.39985 1.7959,0.92751 2.3867,1.66797 0.2954,0.37023 0.528,0.79331 0.6777,1.28125 0.1497,0.48795 0.2167,1.04061 0.1836,1.66797 -3.1645,0.4047 -6.4273,1.10885 -9.7676,2.07813 -3.3402,0.96927 -6.7575,2.20381 -10.2324,3.66797 -3.4749,1.46415 -7.0076,3.15755 -10.5762,5.04687 -3.5685,1.88932 -7.1719,3.97398 -10.7929,6.21875 -3.6211,2.24477 -7.2583,4.65113 -10.8907,7.18164 -3.6324,2.53052 -7.2605,5.18509 -10.8632,7.93164 -7.2055,5.49311 -14.3105,11.35008 -21.1504,17.28907 -6.84,5.93898 -13.4149,11.95991 -19.5606,17.7871 -1.4714,1.39516 -2.6465,2.60959 -4.0664,3.97852 h 195.3027 c 1.1559,-2.07919 2.2533,-4.21678 3.4317,-6.27344 3.7266,-6.50408 7.5696,-12.89296 11.5469,-19.14648 3.9772,-6.25353 8.0893,-12.37135 12.3554,-18.33594 4.2662,-5.96459 8.6859,-11.77484 13.2793,-17.41211 4.5935,-5.63727 9.3592,-11.10147 14.3184,-16.37305 4.9591,-5.27157 10.1113,-10.35125 15.4746,-15.21875 5.3632,-4.86749 10.9384,-9.52223 16.7441,-13.94726 2.9029,-2.21252 5.8641,-4.36819 8.8848,-6.46289 3.0207,-2.0947 6.1009,-4.12947 9.2441,-6.10156 3.1433,-1.9721 6.3485,-3.88188 9.6192,-5.72657 3.2707,-1.84468 6.6069,-3.62345 10.0097,-5.33593 3.4029,-1.71248 6.8723,-3.35812 10.4122,-4.9336 3.5398,-1.57547 7.1503,-3.08195 10.832,-4.51562 3.6817,-1.43368 7.4354,-2.79496 11.2637,-4.08203 3.8283,-1.28708 7.7312,-2.49909 11.7109,-3.63477 3.9797,-1.13568 8.036,-2.19434 12.1719,-3.17383 4.1359,-0.97949 8.3515,-1.88072 12.6484,-2.69922 4.2969,-0.81849 8.6741,-1.55432 13.1367,-2.20703 4.4627,-0.6527 9.0094,-1.221 13.6426,-1.70312 0.5099,-0.0531 1.0466,-0.0799 1.5586,-0.13086 z"
         style="opacity:0.81999966;fill:url(#linearGradient4588);fill-opacity:1;stroke:none;stroke-width:1.72688246;stroke-linecap:round;stroke-linejoin:round;stroke-miterlimit:4;stroke-dasharray:none;stroke-opacity:1"
         inkscape:connector-curvature="0" />
      <path
         transform="matrix(0.26458333,0,0,0.26458333,0,49.614567)"
         id="path4502"
         d="m 276.49805,935 c 3.15577,-1.29847 6.31162,-2.54043 9.46679,-3.88477 6.70545,-2.85701 13.40786,-5.81382 20.10157,-8.85742 6.6937,-3.0436 13.37915,-6.17473 20.04882,-9.37695 13.33935,-6.40444 26.6176,-13.09759 39.78711,-19.96875 13.16952,-6.87116 26.22944,-13.91902 39.13086,-21.0332 12.90143,-7.11419 25.64463,-14.29421 38.17969,-21.42774 25.07013,-14.26706 49.30914,-28.34925 72.32422,-41.35156 11.50754,-6.50115 22.70831,-12.7326 33.55469,-18.58203 10.84638,-5.84944 21.33883,-11.31699 31.42578,-16.29102 5.04347,-2.48701 9.98512,-4.8519 14.82031,-7.07812 4.83519,-2.22622 9.56311,-4.31449 14.17773,-6.25196 4.61463,-1.93746 9.11628,-3.72299 13.49805,-5.34375 4.38178,-1.62075 8.64461,-3.07548 12.78125,-4.35156 4.13665,-1.27607 8.14616,-2.3739 12.02539,-3.27734 3.87923,-0.90344 7.6268,-1.61435 11.23633,-2.11719 3.60953,-0.50284 7.08261,-0.79681 10.41016,-0.87109 3.32754,-0.0743 6.50969,0.0728 9.54297,0.45507 3.03327,0.38224 5.9178,0.99852 8.64453,1.86524 2.72673,0.86671 5.29718,1.98217 7.70508,3.36133 2.40789,1.37915 4.65173,3.02185 6.72851,4.9414 2.07678,1.91956 3.98537,4.11755 5.71875,6.60547 -0.84181,2.66655 -1.5628,5.26799 -2.16797,7.80664 -0.60517,2.53865 -1.09351,5.01394 -1.4707,7.42578 -0.37719,2.41185 -0.64291,4.76075 -0.80078,7.04688 -0.15787,2.28613 -0.20904,4.51037 -0.15625,6.67187 0.0528,2.16151 0.21005,4.26087 0.46484,6.29883 0.25479,2.03797 0.60656,4.01417 1.05469,5.92969 0.44812,1.91552 0.99219,3.77029 1.625,5.56445 0.6328,1.79416 1.35524,3.52729 2.16406,5.20118 0.80883,1.67388 1.7035,3.28709 2.67969,4.84179 0.97618,1.55471 2.03308,3.05167 3.16797,4.48828 1.13488,1.43661 2.34789,2.81321 3.63281,4.13282 1.28492,1.3196 2.64205,2.58146 4.06836,3.78515 1.4263,1.20369 2.92144,2.34864 4.48047,3.4375 1.55902,1.08887 3.18215,2.12058 4.86523,3.0957 3.36617,1.95025 6.97276,3.67591 10.78321,5.17774 3.81044,1.50183 7.82431,2.78163 12.00976,3.84375 4.18545,1.06212 8.54203,1.90599 13.0332,2.53711 4.49117,0.63112 9.1181,1.04898 13.84571,1.25781 4.72761,0.20883 9.5564,0.20865 14.45117,0.004 4.89477,-0.20475 9.855,-0.615 14.84766,-1.22461 4.99265,-0.60961 10.0178,-1.41806 15.03906,-2.42383 5.02125,-1.00577 10.03895,-2.20835 15.01953,-3.60156 4.98058,-1.39322 9.92235,-2.97805 14.79297,-4.75 4.87062,-1.77195 9.66994,-3.73108 14.36133,-5.87305 4.69138,-2.14197 9.27588,-4.46741 13.71875,-6.9707 4.44287,-2.50329 8.74406,-5.18513 12.86914,-8.04102 4.12507,-2.85589 8.0745,-5.8842 11.8125,-9.08398 3.73799,-3.19979 7.26523,-6.5705 10.54687,-10.10547 3.28164,-3.53497 6.31626,-7.23427 9.07227,-11.0957 1.378,-1.93072 2.68631,-3.90336 3.91992,-5.91407 1.2336,-2.0107 2.39406,-4.06079 3.47461,-6.15039 1.08055,-2.0896 2.08117,-4.21736 3,-6.38476 0.91883,-2.16741 1.75546,-4.37307 2.5039,-6.61719 0.74845,-2.24413 1.40911,-4.5279 1.97852,-6.84766 0.56941,-2.31975 1.04798,-4.67602 1.42969,-7.07031 0.38171,-2.39429 0.66621,-4.82522 0.85156,-7.29297 0.18535,-2.46774 0.27162,-4.97356 0.25195,-7.51367 -0.0197,-2.54011 -0.14556,-5.11518 -0.3789,-7.72656 -0.23334,-2.61139 -0.57557,-5.25789 -1.03125,-7.93946 -0.45568,-2.68156 -1.02426,-5.39777 -1.71094,-8.14843 -0.68668,-2.75067 -1.49163,-5.5368 -2.41797,-8.35547 -0.92634,-2.81867 -1.97378,-5.67105 -3.14844,-8.55664 -1.17465,-2.88559 -2.47657,-5.80444 -3.9082,-8.75586 -1.43163,-2.95142 -2.99218,-5.93501 -4.68945,-8.95117 -1.69727,-3.01617 -3.53039,-6.06472 -5.50196,-9.14453 -1.97156,-3.07982 -4.08336,-6.18966 -6.33789,-9.33204 -2.25452,-3.14237 -4.65112,-6.31763 -7.19726,-9.52148 -2.54615,-3.20385 -5.24147,-6.43693 -8.08789,-9.70117 -2.84643,-3.26424 -5.84464,-6.55928 -9,-9.88281 -3.5565,-2.91772 -7.1209,-5.68267 -10.69141,-8.30079 -3.57051,-2.61811 -7.1466,-5.08813 -10.73047,-7.41406 -3.58387,-2.32592 -7.1749,-4.50768 -10.77148,-6.54883 -3.59659,-2.04114 -7.19994,-3.94325 -10.8086,-5.70703 -3.60865,-1.76378 -7.22173,-3.38899 -10.84179,-4.88281 -3.62007,-1.49383 -7.24612,-2.85466 -10.87696,-4.08594 -3.63083,-1.23128 -7.26725,-2.3344 -10.9082,-3.31054 -3.64095,-0.97615 -7.28708,-1.82627 -10.9375,-2.55469 -3.65042,-0.72843 -7.3056,-1.33416 -10.96484,-1.82227 -3.65924,-0.48811 -7.32282,-0.85807 -10.99024,-1.11328 -3.66741,-0.25521 -7.33874,-0.39606 -11.01367,-0.42578 -3.67493,-0.0297 -7.35335,0.0519 -11.03515,0.24023 -3.68181,0.18837 -7.36666,0.48378 -11.05469,0.88282 -3.68803,0.39903 -7.37866,0.90161 -11.07227,1.5039 -3.6936,0.60229 -7.38936,1.30343 -11.08789,2.10157 -3.69853,0.79813 -7.40071,1.69311 -11.10351,2.67968 -3.70281,0.98658 -7.40685,2.06482 -11.11329,3.23242 -3.70643,1.16761 -7.41363,2.42441 -11.12304,3.76563 -7.41883,2.68244 -14.84464,5.70467 -22.27149,9.03711 -7.42684,3.33243 -14.85548,6.97529 -22.28515,10.89844 -7.42967,3.92314 -14.85981,8.12745 -22.28711,12.58203 -7.42731,4.45457 -14.85174,9.15922 -22.27149,14.08593 -7.41974,4.92672 -14.83519,10.0745 -22.24218,15.41407 -7.407,5.33956 -14.80626,10.87132 -22.19532,16.56445 -7.38905,5.69313 -14.76689,11.54774 -22.13281,17.53516 -7.36592,5.98741 -14.71905,12.10766 -22.05664,18.33008 -7.33759,6.22241 -14.66078,12.54719 -21.96484,18.94531 -14.60814,12.79624 -29.14305,25.88398 -43.58594,39.02734 -14.4429,13.14336 -28.79318,26.34123 -43.0293,39.35742 -14.23611,13.0162 -28.3579,25.85089 -42.3457,38.26563 -6.9939,6.20737 -13.95488,12.30927 -20.87891,18.27734 -6.92403,5.96808 -13.81118,11.80316 -20.66015,17.47266 -6.84897,5.66949 -13.65902,11.1747 -20.42774,16.48633 -6.76871,5.31163 -13.49642,10.42974 -20.17969,15.32421 -6.68326,4.89448 -13.32143,9.56439 -19.91406,13.98243 -3.93426,2.63654 -7.81824,4.98944 -11.71875,7.43945 z"
         style="opacity:0.81999966;fill:url(#radialGradient4560);fill-opacity:1;stroke:none;stroke-width:1.72688246;stroke-linecap:round;stroke-linejoin:round;stroke-miterlimit:4;stroke-dasharray:none;stroke-opacity:1"
         inkscape:connector-curvature="0" />
      <path
         transform="matrix(0.26458333,0,0,0.26458333,0,49.614567)"
         id="path4507"
         d="m 915.30469,935 c 0.79107,-0.36072 1.69434,-0.66089 2.47461,-1.02734 6.3898,-3.001 12.4181,-6.19249 18.0957,-9.5586 5.6776,-3.3661 11.00457,-6.90711 15.99219,-10.60351 4.98761,-3.69641 9.63524,-7.54911 13.95508,-11.54102 4.31983,-3.99191 8.31205,-8.12238 11.98632,-12.375 3.67428,-4.25261 7.03111,-8.62694 10.08203,-13.10547 3.05093,-4.47852 5.79631,-9.06084 8.2461,-13.73047 2.44979,-4.66963 4.60378,-9.42796 6.47458,-14.2539 1.8709,-4.82594 3.4574,-9.72052 4.7715,-14.66797 1.3142,-4.94745 2.3571,-9.94631 3.1367,-14.98047 0.7797,-5.03416 1.2971,-10.10338 1.5645,-15.18945 0.2674,-5.08608 0.2832,-10.18978 0.061,-15.29297 -0.2227,-5.10319 -0.6844,-10.20551 -1.375,-15.29102 -0.6905,-5.0855 -1.6099,-10.15447 -2.7461,-15.1875 -1.1362,-5.03302 -2.4892,-10.03082 -4.0488,-14.97656 -1.5596,-4.94574 -3.3262,-9.83845 -5.2871,-14.66211 -1.96086,-4.82366 -4.11522,-9.57736 -6.45508,-14.24414 -2.33986,-4.66678 -4.86389,-9.24755 -7.56054,-13.72266 -2.69666,-4.4751 -5.56642,-8.84512 -8.59766,-13.09375 -3.03124,-4.24863 -6.22476,-8.37592 -9.56836,-12.36328 -3.3436,-3.98735 -6.83695,-7.83411 -10.4707,-11.52539 -3.63376,-3.69128 -7.4069,-7.22748 -11.3086,-10.58789 -3.9017,-3.36041 -7.93265,-6.54628 -12.08008,-9.54101 -4.14742,-2.99474 -8.41225,-5.79832 -12.7832,-8.39258 -4.37094,-2.59427 -8.84767,-4.97968 -13.41992,-7.13867 -4.57225,-2.159 -9.2389,-4.09037 -13.99024,-5.7793 -4.36154,-1.55037 -8.81213,-2.8387 -13.30664,-3.96485 0.59254,0.42613 1.18708,0.79622 1.7793,1.23047 3.57051,2.61812 7.13491,5.38307 10.69141,8.30079 3.15536,3.32352 6.15357,6.61857 9,9.88281 2.84642,3.26424 5.54174,6.49732 8.08789,9.70117 2.54614,3.20385 4.94274,6.37911 7.19726,9.52148 2.25453,3.14238 4.36633,6.25222 6.33789,9.33204 1.97157,3.0798 3.80469,6.12836 5.50196,9.14453 1.69727,3.01616 3.25782,5.99975 4.68945,8.95117 1.43163,2.95142 2.73355,5.87027 3.9082,8.75586 1.17466,2.88559 2.2221,5.73797 3.14844,8.55664 0.92634,2.81867 1.73129,5.6048 2.41797,8.35547 0.68668,2.75066 1.25526,5.46687 1.71094,8.14843 0.45568,2.68157 0.79791,5.32807 1.03125,7.93946 0.23334,2.61138 0.35924,5.18645 0.3789,7.72656 0.0197,2.54011 -0.0666,5.04593 -0.25195,7.51367 -0.18535,2.46775 -0.46985,4.89868 -0.85156,7.29297 -0.38171,2.39429 -0.86028,4.75056 -1.42969,7.07031 -0.56941,2.31976 -1.23007,4.60353 -1.97852,6.84766 -0.74843,2.24412 -1.58507,4.44978 -2.5039,6.61719 -0.91883,2.1674 -1.91945,4.29516 -3,6.38476 -1.08055,2.0896 -2.24101,4.13969 -3.47461,6.15039 -1.23361,2.01071 -2.54192,3.98335 -3.91992,5.91407 -2.75601,3.86143 -5.79063,7.56073 -9.07227,11.0957 -3.28164,3.53497 -6.80888,6.90568 -10.54687,10.10547 -3.738,3.19978 -7.68743,6.22809 -11.8125,9.08398 -4.12508,2.85589 -8.42627,5.53773 -12.86914,8.04102 -4.44287,2.50329 -9.02737,4.82873 -13.71875,6.9707 -4.69139,2.14197 -9.49071,4.1011 -14.36133,5.87305 -4.87062,1.77195 -9.81239,3.35678 -14.79297,4.75 -4.98058,1.39321 -9.99828,2.59579 -15.01953,3.60156 -5.02126,1.00577 -10.04641,1.81422 -15.03906,2.42383 -4.99266,0.60961 -9.95289,1.01986 -14.84766,1.22461 -4.89477,0.20474 -9.72356,0.20492 -14.45117,-0.004 -4.72761,-0.20883 -9.35454,-0.62669 -13.84571,-1.25781 -4.49117,-0.63112 -8.84775,-1.47499 -13.0332,-2.53711 -4.18545,-1.06212 -8.19932,-2.34192 -12.00976,-3.84375 -3.81045,-1.50183 -7.41704,-3.22749 -10.78321,-5.17774 -1.68308,-0.97511 -3.30621,-2.00683 -4.86523,-3.0957 -1.55903,-1.08886 -3.05417,-2.23381 -4.48047,-3.4375 -1.42631,-1.20369 -2.78344,-2.46555 -4.06836,-3.78515 -1.28492,-1.31961 -2.49793,-2.69621 -3.63281,-4.13282 -1.13489,-1.43661 -2.19179,-2.93357 -3.16797,-4.48828 -0.97619,-1.5547 -1.87086,-3.16792 -2.67969,-4.84179 -0.80882,-1.67389 -1.53126,-3.40702 -2.16406,-5.20118 -0.63281,-1.79416 -1.17688,-3.64893 -1.625,-5.56445 -0.44813,-1.91552 -0.7999,-3.89172 -1.05469,-5.92969 -0.25479,-2.03796 -0.41206,-4.13732 -0.46484,-6.29883 -0.0528,-2.1615 -0.002,-4.38574 0.15625,-6.67187 0.15787,-2.28613 0.42359,-4.63503 0.80078,-7.04688 0.37719,-2.41184 0.86553,-4.88713 1.4707,-7.42578 0.60517,-2.53865 1.32616,-5.14009 2.16797,-7.80664 -1.73338,-2.48792 -3.64197,-4.68591 -5.71875,-6.60547 -2.07678,-1.91955 -4.32063,-3.56225 -6.72851,-4.9414 -2.4079,-1.37916 -4.97835,-2.49462 -7.70508,-3.36133 -2.72673,-0.86672 -5.61126,-1.483 -8.64453,-1.86524 -3.03328,-0.38222 -6.21543,-0.52936 -9.54297,-0.45507 -3.32755,0.0743 -6.80063,0.36825 -10.41016,0.87109 -3.60953,0.50284 -7.3571,1.21375 -11.23633,2.11719 -3.87923,0.90344 -7.88874,2.00127 -12.02539,3.27734 -4.13664,1.27608 -8.39947,2.73081 -12.78125,4.35156 -4.38177,1.62076 -8.88342,3.40629 -13.49805,5.34375 -4.61461,1.93747 -9.34254,4.02574 -14.17773,6.25196 -4.83519,2.22622 -9.77684,4.59111 -14.82031,7.07812 -10.08695,4.97403 -20.5794,10.44158 -31.42578,16.29102 -10.84638,5.84943 -22.04715,12.08088 -33.55469,18.58203 -23.01508,13.00231 -47.25409,27.0845 -72.32422,41.35156 -12.53506,7.13353 -25.27826,14.31355 -38.17969,21.42774 -12.90142,7.11418 -25.96134,14.16204 -39.13086,21.0332 -13.16951,6.87116 -26.44776,13.56431 -39.78711,19.96875 -6.66967,3.20222 -13.35512,6.33335 -20.04882,9.37695 -6.69371,3.0436 -13.39612,6.00041 -20.10157,8.85742 -3.15517,1.34434 -6.31102,2.5863 -9.46679,3.88477 z"
         style="opacity:0.81999966;fill:url(#radialGradient4552);fill-opacity:1;stroke:none;stroke-width:1.72688246;stroke-linecap:round;stroke-linejoin:round;stroke-miterlimit:4;stroke-dasharray:none;stroke-opacity:1"
         inkscape:connector-curvature="0" />
      <path
         transform="matrix(0.26458333,0,0,0.26458333,0,49.614567)"
         id="path4517"
         d="m 762.28711,435.91797 c -12.94526,-0.16535 -26.00071,-0.0294 -39.10742,0.42187 -13.10671,0.45128 -26.26393,1.21711 -39.41016,2.3125 -6.57311,0.5477 -13.14495,1.17674 -19.70508,1.89063 -6.56012,0.71389 -13.10872,1.51297 -19.64062,2.39648 -6.5319,0.88352 -13.04673,1.85163 -19.53516,2.90821 -6.48843,1.05657 -12.95114,2.20051 -19.38086,3.43359 -6.42972,1.23308 -12.82587,2.55573 -19.18164,3.96875 -6.35576,1.41302 -12.67093,2.91728 -18.9375,4.51367 -6.26657,1.5964 -12.48435,3.28515 -18.64648,5.06836 -6.16213,1.78321 -12.2681,3.6613 -18.31055,5.63477 -6.04245,1.97346 -12.02216,4.04183 -17.92969,6.20898 -5.90752,2.16716 -11.74264,4.43259 -17.5,6.79688 -5.75736,2.36428 -11.43734,4.82772 -17.02929,7.39257 -5.59196,2.56486 -11.09651,5.23115 -16.50782,8 -5.4113,2.76886 -10.72795,5.64089 -15.94336,8.61719 -5.21541,2.9763 -10.3297,6.05696 -15.33398,9.24414 -5.00428,3.18718 -9.89984,6.48132 -14.67773,9.88282 -4.7779,3.40149 -9.43833,6.91004 -13.97461,10.52929 -4.53628,3.61926 -8.94715,7.34901 -13.22657,11.18945 -4.27941,3.84045 -8.42628,7.79235 -12.43359,11.85743 -4.00731,4.06508 -7.87574,8.242 -11.5957,12.53515 -3.71997,4.29315 -7.29161,8.70191 -10.70899,13.22657 -3.41737,4.52465 -6.67975,9.16617 -9.77929,13.92578 -3.09955,4.7596 -6.03627,9.63677 -8.80274,14.63476 l 54.76758,-14.9082 c -3.26328,1.65295 -6.4161,3.35123 -9.46484,5.09375 -3.04875,1.74252 -5.99461,3.52874 -8.8418,5.35742 -2.84719,1.82869 -5.59723,3.69987 -8.25586,5.61133 -2.65863,1.91146 -5.22593,3.86463 -7.70898,5.85547 -4.96612,3.98167 -9.59382,8.11768 -13.93555,12.39648 -4.34173,4.27881 -8.39751,8.69928 -12.21875,13.24805 -3.82124,4.54877 -7.40786,9.22601 -10.8125,14.01758 -3.40464,4.79157 -6.62682,9.69787 -9.71875,14.70508 -3.09194,5.0072 -6.05438,10.11487 -8.9375,15.31054 -2.88312,5.19568 -5.68664,10.47896 -8.46485,15.83594 -5.5564,10.71396 -11.00749,21.72375 -16.76757,32.91992 -2.88005,5.59809 -5.83703,11.24203 -8.92383,16.91992 -3.0868,5.67789 -6.30372,11.39057 -9.70117,17.1211 -3.39746,5.73053 -6.97512,11.48032 -10.78711,17.23633 -3.812,5.756 -7.85707,11.51717 -12.1875,17.27148 -4.33044,5.75431 -8.94763,11.50112 -13.90039,17.22656 -4.95277,5.72545 -10.24094,11.43019 -15.91993,17.09961 27.30952,-15.27862 50.99307,-28.20287 71.58594,-39.24219 20.59288,-11.03931 38.09485,-20.19344 53.03711,-27.93554 14.94227,-7.74211 27.32591,-14.07201 37.68359,-19.45899 10.35769,-5.38698 18.68821,-9.8327 25.52735,-13.80664 3.41957,-1.98697 6.46722,-3.85566 9.20703,-5.66601 2.73981,-1.81036 5.17193,-3.56101 7.36523,-5.3125 2.19331,-1.7515 4.14768,-3.50406 5.92774,-5.31446 1.78006,-1.8104 3.38665,-3.67895 4.88672,-5.66601 1.50006,-1.98707 2.89277,-4.09156 4.24609,-6.37305 1.35332,-2.28149 2.66603,-4.73991 4.00586,-7.43359 2.67967,-5.38736 5.46539,-11.71631 8.89063,-19.45899 l -14.4336,52.66016 c 3.74602,-2.25738 7.40716,-4.68822 10.98633,-7.27344 3.57917,-2.58522 7.07517,-5.32565 10.49219,-8.19922 3.41701,-2.87356 6.75411,-5.88149 10.01367,-9.0039 3.25956,-3.12242 6.44203,-6.35964 9.54883,-9.69141 3.10679,-3.33177 6.13893,-6.75814 9.09765,-10.25977 2.95873,-3.50162 5.84481,-7.07699 8.66016,-10.70898 5.63071,-7.26398 10.97905,-14.75039 16.06445,-22.29883 5.0854,-7.54844 9.90672,-15.1608 14.48438,-22.67773 4.57766,-7.51693 8.91204,-14.93798 13.01953,-22.10742 8.21497,-14.33889 15.52625,-27.66759 22.08594,-38.72071 -2.08541,7.83703 -3.2925,13.54507 -4.0586,18.12696 -0.76609,4.58189 -1.09089,8.0384 -1.41211,11.37304 -0.32121,3.33465 -0.6379,6.54728 -1.38867,10.64258 -0.75077,4.0953 -1.93547,9.07365 -3.99023,15.9375 3.53401,-3.86453 7.00329,-7.93172 10.46093,-12.16406 3.45765,-4.23235 6.90404,-8.63096 10.39258,-13.15625 6.97708,-9.05058 14.12288,-18.61161 21.86719,-28.38477 3.87215,-4.88658 7.89427,-9.82632 12.11914,-14.78125 4.22487,-4.95492 8.65303,-9.92464 13.33789,-14.87304 4.68486,-4.9484 9.62679,-9.87518 14.87891,-14.74219 5.25212,-4.86701 10.81357,-9.67402 16.74023,-14.38477 2.96333,-2.35537 6.01785,-4.68796 9.16992,-6.99023 3.15208,-2.30227 6.40163,-4.57464 9.75586,-6.81445 3.35424,-2.23982 6.81302,-4.44725 10.38282,-6.61524 3.5698,-2.16799 7.252,-4.296 11.05078,-6.38281 3.79877,-2.08682 7.7147,-4.13068 11.75586,-6.12695 4.04116,-1.99628 8.20695,-3.94542 12.5039,-5.8418 4.29696,-1.89638 8.72486,-3.74021 13.29102,-5.52734 4.56615,-1.78714 9.27037,-3.51703 14.11914,-5.18555 4.84877,-1.66852 9.84154,-3.27586 14.98633,-4.81641 5.14478,-1.54055 10.44227,-3.01475 15.89648,-4.41797 5.45422,-1.40322 11.06474,-2.73565 16.8418,-3.99218 5.77705,-1.25654 11.72068,-2.43663 17.83398,-3.53711 6.11331,-1.10049 12.39642,-2.12156 18.85938,-3.05664 6.46296,-0.93509 13.10561,-1.7846 19.93164,-2.54493 6.82603,-0.76032 13.83656,-1.43161 21.03906,-2.00781 7.2025,-0.5762 14.59707,-1.05868 22.18945,-1.4414 -11.72926,-1.8502 -23.75323,-3.43978 -36.00976,-4.75586 -12.25653,-1.31609 -24.74634,-2.35882 -37.4082,-3.11329 -12.66187,-0.75447 -25.49616,-1.21941 -38.44141,-1.38476 z"
         style="opacity:0.81999966;fill:url(#linearGradient4544);fill-opacity:1;stroke:none;stroke-width:1.72688246;stroke-linecap:round;stroke-linejoin:round;stroke-miterlimit:4;stroke-dasharray:none;stroke-opacity:1"
         inkscape:connector-curvature="0" />
      <path
         transform="matrix(0.26458333,0,0,0.26458333,0,49.614567)"
         id="path4522"
         d="m 1520,200.82812 c -2.1403,-2.71803 -4.2413,-5.65517 -6.4043,-8.24414 -5.3062,-6.35124 -10.6785,-12.31591 -16.1055,-17.9082 -5.4269,-5.59229 -10.9079,-10.81123 -16.4336,-15.66992 -5.5256,-4.85869 -11.0948,-9.35738 -16.6972,-13.50781 -5.6024,-4.15043 -11.2374,-7.9524 -16.8946,-11.41993 -5.6571,-3.46752 -11.3374,-6.60019 -17.0273,-9.41015 -5.6899,-2.80996 -11.3891,-5.29686 -17.0898,-7.47461 -5.7008,-2.17775 -11.4023,-4.0463 -17.0918,-5.61719 -5.6896,-1.57088 -11.369,-2.84461 -17.0254,-3.83398 -5.6564,-0.98937 -11.2894,-1.69375 -16.8907,-2.12696 -5.6012,-0.4332 -11.1692,-0.59566 -16.6933,-0.49804 -5.5242,0.0976 -11.0047,0.4555 -16.4297,1.05859 -5.425,0.60309 -10.7957,1.45194 -16.0996,2.53516 -5.304,1.08321 -10.5422,2.39951 -15.7031,3.9375 -5.1609,1.53799 -10.2444,3.2982 -15.2403,5.26562 -4.9958,1.96742 -9.904,4.14218 -14.7129,6.51367 -4.8088,2.3715 -9.5173,4.93923 -14.1171,7.68946 -4.5999,2.75023 -9.0902,5.68349 -13.459,8.78711 -4.3689,3.10361 -8.6166,6.37694 -12.7325,9.80859 -4.1158,3.43165 -8.1004,7.02152 -11.9414,10.75586 -3.8409,3.73434 -7.538,7.61332 -11.082,11.625 -3.544,4.01168 -6.9351,8.15625 -10.1601,12.41992 -3.2251,4.26367 -6.2838,8.64641 -9.168,13.13672 -2.8842,4.49031 -5.5939,9.08769 -8.1153,13.7793 -2.5213,4.6916 -4.8557,9.47815 -6.9921,14.3457 -2.1365,4.86755 -4.0751,9.81583 -5.8047,14.83399 -1.7297,5.01815 -3.25,10.10464 -4.5508,15.24804 -1.3008,5.14341 -2.3805,10.34459 -3.2305,15.58789 -0.85,5.24331 -1.4704,10.5298 -1.8476,15.84766 -0.3773,5.31786 -0.5121,10.66613 -0.3946,16.0332 0.1175,5.36707 0.4869,10.75361 1.1211,16.14453 0.344,2.43991 0.8135,4.86412 1.4004,7.26953 0.5869,2.40542 1.2924,4.79214 2.1074,7.15039 0.8151,2.35826 1.7411,4.68985 2.7696,6.98829 1.0284,2.29844 2.1596,4.5631 3.3867,6.78906 1.2271,2.22596 2.55,4.41191 3.9609,6.55273 1.4109,2.14083 2.9103,4.23627 4.4903,6.2793 1.58,2.04303 3.2402,4.03423 4.9746,5.9668 1.7343,1.93256 3.5421,3.80578 5.416,5.61523 1.8739,1.80945 3.8138,3.55485 5.8125,5.22852 1.9987,1.67366 4.0553,3.27555 6.1641,4.80078 2.1087,1.52522 4.2686,2.97376 6.4726,4.33789 2.204,1.36412 4.4518,2.64557 6.7363,3.83594 2.2845,1.19036 4.6068,2.28902 6.9571,3.29296 2.3502,1.00395 4.7296,1.91194 7.1308,2.7168 2.4012,0.80486 4.8243,1.50649 7.2617,2.09961 2.4375,0.59312 4.8888,1.07855 7.3477,1.44727 2.4589,0.36871 4.9251,0.62225 7.3906,0.7539 2.4656,0.13165 4.9312,0.14151 7.3887,0.0234 2.4575,-0.11807 4.9071,-0.36564 7.3418,-0.74609 2.4346,-0.38046 4.8529,-0.89528 7.25,-1.55078 2.397,-0.65551 4.7725,-1.45133 7.1172,-2.39454 2.3447,-0.9432 4.6599,-2.03377 6.9375,-3.27734 2.2775,-1.24357 4.5172,-2.64067 6.7129,-4.19727 2.1956,-1.55659 4.3463,-3.27201 6.4453,-5.15429 2.099,-1.88229 4.1472,-3.92976 6.1348,-6.15039 1.9875,-2.22064 3.914,-4.61391 5.7753,-7.18555 1.8614,-2.57164 3.6566,-5.3225 5.377,-8.25781 1.7204,-2.93531 3.3669,-6.05555 4.9316,-9.36719 1.5647,-3.31164 3.0472,-6.815 4.4414,-10.51562 1.3943,-3.70063 2.6993,-7.5989 3.9082,-11.70118 1.209,-4.10227 2.3231,-8.40724 3.3321,-12.92382 1.0089,-4.51659 1.9128,-9.24395 2.707,-14.1875 -3.6906,-1.23388 -7.1221,-2.61983 -10.3047,-4.14063 -3.1825,-1.5208 -6.1147,-3.17682 -8.8027,-4.95312 -2.6881,-1.77631 -5.1327,-3.67344 -7.3399,-5.67383 -2.2071,-2.00039 -4.1781,-4.10381 -5.9179,-6.29688 -1.7399,-2.19306 -3.2491,-4.47575 -4.5352,-6.83008 -1.2861,-2.35432 -2.3474,-4.78145 -3.1933,-7.26562 -0.846,-2.48417 -1.4752,-5.02482 -1.8946,-7.60742 -0.4193,-2.5826 -0.6303,-5.20585 -0.6367,-7.85547 -0.01,-2.64962 0.191,-5.32455 0.584,-8.00977 0.393,-2.68521 0.9829,-5.38091 1.7617,-8.07031 0.7789,-2.6894 1.7473,-5.37298 2.8984,-8.03516 1.1511,-2.66217 2.4844,-5.30272 3.9942,-7.90625 1.5097,-2.60352 3.1959,-5.17012 5.0508,-7.68359 1.8548,-2.51347 3.8781,-4.97519 6.0644,-7.36719 2.1864,-2.39199 4.5348,-4.71401 7.0391,-6.95312 2.5042,-2.23911 5.1641,-4.39442 7.9726,-6.44922 2.8086,-2.0548 5.766,-4.01052 8.8653,-5.84961 3.0993,-1.83909 6.3403,-3.56234 9.7168,-5.1543 3.3765,-1.59195 6.8892,-3.05183 10.5293,-4.36523 3.64,-1.31341 7.4087,-2.47898 11.2988,-3.48242 3.8901,-1.00344 7.9009,-1.8438 12.0273,-2.50586 4.1265,-0.66207 8.3675,-1.14628 12.7168,-1.43555 4.3493,-0.28927 8.8067,-0.38447 13.3653,-0.26953 4.5585,0.11494 9.2184,0.43967 13.9726,0.99023 4.7543,0.55056 9.6028,1.32616 14.5391,2.34375 4.9363,1.0176 9.9616,2.27692 15.0664,3.79297 5.1048,1.51605 10.2891,3.29002 15.5488,5.33594 5.2598,2.04592 10.5931,4.36351 15.9942,6.9707 5.401,2.6072 10.8696,5.50323 16.3984,8.70313 5.5288,3.19989 11.1187,6.70529 16.7617,10.52929 3.2675,2.21425 6.5904,4.77522 9.8926,7.20704 z"
         style="opacity:0.81999966;fill:url(#radialGradient4642);fill-opacity:1;stroke:none;stroke-width:1.72688246;stroke-linecap:round;stroke-linejoin:round;stroke-miterlimit:4;stroke-dasharray:none;stroke-opacity:1"
         inkscape:connector-curvature="0" />
      <path
         transform="matrix(0.26458333,0,0,0.26458333,0,49.614567)"
         id="path4527"
         d="m 1181.7402,203.84766 c -0.3654,0.27406 -0.7752,0.54411 -1.1386,0.81836 -5.8348,4.40272 -11.4121,8.82777 -16.7403,13.27148 -5.3281,4.44371 -10.4061,8.90606 -15.2402,13.38281 -4.8341,4.47675 -9.4248,8.96693 -13.7773,13.46875 -4.3526,4.50183 -8.468,9.01427 -12.3516,13.53321 -3.8836,4.51894 -7.5357,9.04416 -10.9629,13.57226 -3.4272,4.5281 -6.6281,9.05859 -9.6113,13.58789 -2.9833,4.5293 -5.7489,9.05754 -8.3008,13.58008 -2.5519,4.52254 -4.8904,9.03905 -7.0234,13.54688 -2.1331,4.50782 -4.0604,9.00704 -5.7872,13.49218 -1.7267,4.48515 -3.2529,8.9576 -4.5859,13.41211 -1.333,4.45451 -2.472,8.89073 -3.4238,13.30664 -0.9518,4.41592 -1.7177,8.81033 -2.3008,13.17969 -0.5831,4.36936 -0.984,8.71445 -1.2109,13.0293 -0.227,4.31485 -0.2788,8.60113 -0.1622,12.85351 0.1167,4.25238 0.4019,8.4704 0.8497,12.65235 0.4477,4.18195 1.0579,8.32612 1.8242,12.42968 0.7663,4.10357 1.6875,8.16638 2.7597,12.1836 1.0723,4.01721 2.2944,7.9892 3.6602,11.91211 1.3657,3.92291 2.8768,7.79654 4.5234,11.61718 1.6467,3.82065 3.4307,7.58841 5.3457,11.29883 1.9151,3.71043 3.96,7.36479 6.1309,10.95703 2.1709,3.59225 4.4666,7.12179 6.8809,10.58789 2.4142,3.46611 4.9467,6.86722 7.5918,10.19922 2.645,3.33201 5.4023,6.59521 8.2656,9.78516 2.8633,3.18995 5.8333,6.30772 8.9023,9.34766 3.069,3.03993 6.2379,6.00281 9.5,8.88476 3.2622,2.88196 6.6178,5.68242 10.0606,8.39844 3.4428,2.71602 6.973,5.34654 10.584,7.88867 3.6109,2.54213 7.3018,4.99519 11.0683,7.35547 3.7665,2.36028 7.6081,4.62836 11.5176,6.79883 3.9095,2.17047 7.8877,4.24409 11.9277,6.21679 4.04,1.97271 8.1409,3.84436 12.2989,5.61133 4.1579,1.76698 8.3733,3.42914 12.6367,4.98242 4.2633,1.55329 8.5754,2.99844 12.9316,4.33008 4.3563,1.33165 8.7568,2.55031 13.1934,3.65235 4.4366,1.10204 8.9096,2.08669 13.414,2.95117 4.5044,0.86448 9.04,1.60955 13.5996,2.22851 4.5597,0.61896 9.1437,1.11304 13.7461,1.47852 4.6024,0.36548 9.2229,0.60104 13.8555,0.70508 4.6326,0.10404 9.2775,0.0755 13.9277,-0.0899 4.6503,-0.16535 9.3056,-0.46744 13.961,-0.91015 4.6554,-0.44271 9.311,-1.02588 13.959,-1.75391 4.6479,-0.72802 9.288,-1.5998 13.916,-2.62109 4.628,-1.0213 9.2423,-2.19115 13.8379,-3.51367 4.5955,-1.32253 9.1721,-2.79797 13.7226,-4.42969 4.5505,-1.63172 9.0754,-3.42027 13.5684,-5.36914 4.4929,-1.94887 8.9541,-4.05806 13.3769,-6.33203 4.4229,-2.27398 8.8082,-4.71327 13.1485,-7.32032 4.3402,-2.60704 8.6358,-5.38201 12.8808,-8.33007 4.2451,-2.94807 8.4389,-6.06819 12.5762,-9.36524 4.1374,-3.29705 8.2173,-6.77179 12.2344,-10.42578 4.0171,-3.65399 7.9711,-7.48892 11.8554,-11.50781 3.8844,-4.0189 7.7005,-8.22153 11.4395,-12.61328 3.739,-4.39176 7.4013,-8.97157 10.9824,-13.74414 3.5812,-4.77258 7.0814,-9.73709 10.4922,-14.89844 3.4108,-5.16135 6.7331,-10.52004 9.9609,-16.07813 2.7386,-4.71559 5.3702,-9.65369 7.9688,-14.66015 V 215.72266 c -3.3022,-2.43182 -6.6251,-4.99279 -9.8926,-7.20704 -5.643,-3.82399 -11.2329,-7.3294 -16.7617,-10.52929 -5.5288,-3.1999 -10.9974,-6.09593 -16.3984,-8.70313 -5.4011,-2.60719 -10.7344,-4.92478 -15.9942,-6.9707 -5.2597,-2.04592 -10.444,-3.81989 -15.5488,-5.33594 -5.1048,-1.51605 -10.1301,-2.77537 -15.0664,-3.79297 -4.9363,-1.01759 -9.7848,-1.79319 -14.5391,-2.34375 -4.7542,-0.55056 -9.4141,-0.87529 -13.9726,-0.99023 -4.5586,-0.11494 -9.016,-0.0197 -13.3653,0.26953 -4.3493,0.28927 -8.5903,0.77348 -12.7168,1.43555 -4.1264,0.66206 -8.1372,1.50242 -12.0273,2.50586 -3.8901,1.00344 -7.6588,2.16901 -11.2988,3.48242 -3.6401,1.3134 -7.1528,2.77328 -10.5293,4.36523 -3.3765,1.59196 -6.6175,3.31521 -9.7168,5.1543 -3.0993,1.83909 -6.0567,3.79481 -8.8653,5.84961 -2.8085,2.0548 -5.4684,4.21011 -7.9726,6.44922 -2.5043,2.23911 -4.8527,4.56113 -7.0391,6.95312 -2.1863,2.392 -4.2096,4.85372 -6.0644,7.36719 -1.8549,2.51347 -3.5411,5.08007 -5.0508,7.68359 -1.5098,2.60353 -2.8431,5.24408 -3.9942,7.90625 -1.1511,2.66218 -2.1195,5.34576 -2.8984,8.03516 -0.7788,2.6894 -1.3687,5.3851 -1.7617,8.07031 -0.393,2.68522 -0.5904,5.36015 -0.584,8.00977 0.01,2.64962 0.2174,5.27287 0.6367,7.85547 0.4194,2.5826 1.0486,5.12325 1.8946,7.60742 0.8459,2.48417 1.9072,4.9113 3.1933,7.26562 1.2861,2.35433 2.7953,4.63702 4.5352,6.83008 1.7398,2.19307 3.7108,4.29649 5.9179,6.29688 2.2072,2.00039 4.6518,3.89752 7.3399,5.67383 2.688,1.7763 5.6202,3.43232 8.8027,4.95312 3.1826,1.5208 6.6141,2.90675 10.3047,4.14063 -0.7942,4.94355 -1.6981,9.67091 -2.707,14.1875 -1.009,4.51658 -2.1231,8.82155 -3.3321,12.92382 -1.2089,4.10228 -2.5139,8.00055 -3.9082,11.70118 -1.3942,3.70062 -2.8767,7.20398 -4.4414,10.51562 -1.5647,3.31164 -3.2112,6.43188 -4.9316,9.36719 -1.7204,2.93531 -3.5156,5.68617 -5.377,8.25781 -1.8613,2.57164 -3.7879,4.96491 -5.7753,7.18555 -1.9876,2.22063 -4.0358,4.2681 -6.1348,6.15039 -2.099,1.88228 -4.2497,3.59771 -6.4453,5.15429 -2.1957,1.5566 -4.4354,2.9537 -6.7129,4.19727 -2.2776,1.24357 -4.5928,2.33414 -6.9375,3.27734 -2.3447,0.94321 -4.7202,1.73903 -7.1172,2.39454 -2.3971,0.6555 -4.8154,1.17032 -7.25,1.55078 -2.4347,0.38045 -4.8843,0.62802 -7.3418,0.74609 -2.4575,0.11807 -4.9231,0.10821 -7.3887,-0.0234 -2.4655,-0.13165 -4.9317,-0.38519 -7.3906,-0.7539 -2.4589,-0.36872 -4.9102,-0.85415 -7.3477,-1.44727 -2.4374,-0.59312 -4.8605,-1.29475 -7.2617,-2.09961 -2.4012,-0.80486 -4.7806,-1.71285 -7.1308,-2.7168 -2.3503,-1.00393 -4.6726,-2.1026 -6.9571,-3.29296 -2.2845,-1.19037 -4.5323,-2.47182 -6.7363,-3.83594 -2.204,-1.36413 -4.364,-2.81267 -6.4726,-4.33789 -2.1088,-1.52523 -4.1654,-3.12712 -6.1641,-4.80078 -1.9987,-1.67367 -3.9386,-3.41907 -5.8125,-5.22852 -1.8739,-1.80945 -3.6817,-3.68267 -5.416,-5.61523 -1.7344,-1.93257 -3.3946,-3.92377 -4.9746,-5.9668 -1.58,-2.04303 -3.0794,-4.13847 -4.4903,-6.2793 -1.4109,-2.14082 -2.7338,-4.32677 -3.9609,-6.55273 -1.2271,-2.22596 -2.3583,-4.49062 -3.3867,-6.78906 -1.0285,-2.29844 -1.9545,-4.63003 -2.7696,-6.98829 -0.815,-2.35824 -1.5205,-4.74497 -2.1074,-7.15039 -0.5869,-2.40541 -1.0564,-4.82962 -1.4004,-7.26953 -0.6342,-5.39092 -1.0036,-10.77746 -1.1211,-16.14453 -0.1175,-5.36707 0.017,-10.71534 0.3946,-16.0332 0.3772,-5.31786 0.9976,-10.60435 1.8476,-15.84766 0.85,-5.2433 1.9297,-10.44448 3.2305,-15.58789 1.3008,-5.1434 2.8211,-10.2299 4.5508,-15.24804 1.7296,-5.01816 3.6682,-9.96644 5.8047,-14.83399 2.1364,-4.86755 4.4708,-9.6541 6.9921,-14.3457 1.5705,-2.92209 3.3416,-5.73616 5.0547,-8.58203 z"
         style="opacity:0.81999966;fill:url(#radialGradient4634);fill-opacity:1;stroke:none;stroke-width:1.72688246;stroke-linecap:round;stroke-linejoin:round;stroke-miterlimit:4;stroke-dasharray:none;stroke-opacity:1"
         inkscape:connector-curvature="0" />
      <path
         transform="matrix(0.26458333,0,0,0.26458333,0,49.614567)"
         id="path4534"
         d="M 1520,4.765625 V 3.0859375 H 894.45703 c -0.99137,0.4254625 -1.92917,0.779647 -2.92383,1.2109375 -9.38871,4.0710307 -18.91494,8.400168 -28.42773,12.980469 -9.51279,4.580301 -19.01118,9.410928 -28.34375,14.482422 -4.66629,2.535747 -9.29129,5.131953 -13.85547,7.787109 -4.56418,2.655156 -9.06815,5.370273 -13.49219,8.142578 -4.42403,2.772305 -8.76782,5.601087 -13.01367,8.488281 -4.24585,2.887195 -8.39419,5.832207 -12.42383,8.832032 -4.02963,2.999824 -7.94141,6.05582 -11.71679,9.166015 -3.77539,3.110196 -7.4134,6.273881 -10.89649,9.492188 -3.48309,3.218306 -6.81012,6.490295 -9.96289,9.814453 -3.15277,3.324158 -6.1317,6.701158 -8.91601,10.128908 -2.78441,3.42775 -5.37591,6.90646 -7.75391,10.43555 -2.378,3.52899 -4.543,7.10817 -6.47656,10.73632 -1.93357,3.62816 -3.63485,7.30629 -5.08594,11.03125 -1.4511,3.72497 -2.65145,7.49689 -3.58203,11.31641 -0.93059,3.81952 -1.59085,7.68584 -1.96289,11.59766 -0.37204,3.91181 -0.45501,7.86924 -0.23047,11.87109 -1.38223,-0.30808 -2.60093,-0.74286 -3.6836,-1.26758 -1.08266,-0.52472 -2.03092,-1.1386 -2.87304,-1.81055 -0.84212,-0.67194 -1.57768,-1.40061 -2.23828,-2.15039 -0.6606,-0.74977 -1.24511,-1.5211 -1.78321,-2.27929 -1.0762,-1.51639 -1.96592,-2.97965 -2.90625,-4.11328 -0.47016,-0.56682 -0.95378,-1.05291 -1.47851,-1.41993 -0.52473,-0.36701 -1.09215,-0.61508 -1.73047,-0.71289 -0.63832,-0.0978 -1.34728,-0.0435 -2.1582,0.19727 -0.81093,0.2408 -1.72307,0.66759 -2.76563,1.31641 -1.04255,0.64872 -2.21562,1.51829 -3.54883,2.64453 -1.3332,1.12624 -2.82688,2.50857 -4.50976,4.18164 -3.36576,3.34614 -7.48893,7.85479 -12.60742,13.80468 -5.11859,5.9499 -11.2326,13.34228 -18.57618,22.45118 -10.4586,15.05145 -20.57395,29.34795 -30.36328,42.93359 -9.78932,13.58564 -19.25257,26.45905 -28.4043,38.66016 -9.15163,12.20111 -17.99326,23.73105 -26.53906,34.6289 -8.5458,10.89785 -16.79602,21.16398 -24.76758,30.83985 -7.97155,9.67586 -15.66281,18.76171 -23.09179,27.29687 -7.42899,8.53516 -14.59558,16.52037 -21.51367,23.9961 -6.9181,7.47563 -13.58847,14.44189 -20.02735,20.93945 -6.43888,6.49756 -12.64537,12.52628 -18.63672,18.12695 -5.99134,5.60067 -11.76826,10.77354 -17.34375,15.5586 -5.57549,4.78496 -10.94931,9.1817 -16.14062,13.23242 -5.19131,4.05072 -10.20025,7.75468 -15.03906,11.15234 -4.83882,3.39766 -9.50741,6.48859 -14.0254,9.31445 -4.51789,2.82587 -8.88443,5.38731 -13.11328,7.72266 -4.22884,2.33535 -8.32168,4.44499 -12.29296,6.37109 -3.97138,1.92611 -7.82082,3.66749 -11.56641,5.26563 -3.74559,1.59814 -7.38602,3.05285 -10.9375,4.4043 -2.03096,-4.12515 -3.58196,-7.79685 -4.76367,-10.98438 -1.18171,-3.18753 -1.99456,-5.89066 -2.55469,-8.07812 -1.12026,-4.37493 -1.22461,-6.6875 -1.22461,-6.6875 -5.18568,5.41421 -10.46378,10.69526 -15.82422,15.84765 -5.36044,5.15239 -10.80324,10.17732 -16.31836,15.07617 -5.51511,4.89886 -11.10419,9.67258 -16.7539,14.32618 -5.64972,4.65359 -11.36077,9.18688 -17.125,13.60351 -5.76424,4.41663 -11.58077,8.71636 -17.43946,12.9043 -5.85868,4.18793 -11.76031,8.26294 -17.69336,12.23047 -5.93305,3.96753 -11.89742,7.82662 -17.88476,11.58203 -5.98734,3.7554 -11.99603,7.40742 -18.01758,10.95898 -6.02155,3.55157 -12.05611,7.00337 -18.0918,10.35938 -6.03569,3.356 -12.07377,6.61642 -18.10351,9.78515 -12.05949,6.33747 -24.0867,12.30921 -36.00196,17.94727 -11.10774,5.25596 -22.08605,10.16341 -32.93359,14.86719 v 156.33593 c 1.02003,-1.02547 2.00073,-1.96162 3.02344,-2.99218 24.38886,-24.57615 49.54338,-50.57735 75.79101,-77.08203 13.12382,-13.25235 26.52153,-26.63066 40.23243,-40.01954 13.71089,-13.38887 27.73565,-26.78898 42.11523,-40.08398 21.13558,-19.54143 41.49812,-38.20413 61.14258,-56.03516 19.64445,-17.83103 38.57049,-34.83049 56.83398,-51.04492 18.26349,-16.21443 35.86473,-31.6443 52.85742,-46.33594 16.99269,-14.69163 33.37693,-28.64555 49.20899,-41.9082 15.83205,-13.26264 31.11099,-25.83426 45.89258,-37.76172 14.78158,-11.92745 29.06692,-23.21041 42.9082,-33.89648 13.84128,-10.68607 27.23886,-20.77402 40.25,-30.3125 13.01114,-9.53849 25.63462,-18.52702 37.92578,-27.01172 12.29116,-8.4847 24.25029,-16.46551 35.93164,-23.99023 11.68135,-7.52473 23.08588,-14.59341 34.26758,-21.25196 11.1817,-6.65854 22.14137,-12.9068 32.93359,-18.79297 10.79222,-5.88617 21.41679,-11.40959 31.92969,-16.61718 10.5129,-5.2076 20.91406,-10.09983 31.25781,-14.72266 10.34375,-4.62283 20.6293,-8.97751 30.91407,-13.10938 10.28476,-4.13186 20.56835,-8.04069 30.90429,-11.77539 10.33594,-3.73469 20.72538,-7.29523 31.22266,-10.72656 10.49728,-3.43133 21.10231,-6.7333 31.87109,-9.95508 10.76879,-3.22177 21.70111,-6.36273 32.85156,-9.46875 22.30092,-6.21203 45.47428,-12.28584 69.96288,-18.59765 24.4886,-6.31182 50.2921,-12.86142 77.8496,-20.02344 27.5576,-7.16202 56.8691,-14.93658 88.377,-23.69922 15.7539,-4.38132 32.0581,-9.009459 48.9648,-13.93164 16.9068,-4.922181 34.4162,-10.13847 52.586,-15.695312 18.1697,-5.556843 36.9981,-11.454928 56.541,-17.740235 19.5429,-6.285307 39.7999,-12.958832 60.8261,-20.066406 21.0263,-7.107574 42.8218,-14.650185 65.4415,-22.673828 8.7361,-3.098862 18.2003,-6.6258904 27.1855,-9.871094 z"
         style="opacity:0.81999966;fill:url(#linearGradient4528);fill-opacity:1;stroke:none;stroke-width:1.72688246;stroke-linecap:round;stroke-linejoin:round;stroke-miterlimit:4;stroke-dasharray:none;stroke-opacity:1"
         inkscape:connector-curvature="0" />
      <path
         transform="matrix(0.26458333,0,0,0.26458333,0,49.614567)"
         id="path4539"
         d="m 1520,120.38867 c -1.8732,-0.8053 -3.7311,-1.70474 -5.6094,-2.47656 -5.9738,-2.45483 -11.9734,-4.73963 -17.9922,-6.86133 -6.0187,-2.1217 -12.0566,-4.07992 -18.1113,-5.87695 -6.0547,-1.79703 -12.1253,-3.43323 -18.207,-4.91406 -6.0817,-1.480837 -12.1756,-2.805417 -18.2754,-3.97852 -6.0998,-1.173103 -12.2055,-2.194518 -18.3145,-3.068359 -6.1089,-0.873841 -12.2209,-1.600546 -18.33,-2.183594 -6.1092,-0.583048 -12.2161,-1.023496 -18.3164,-1.324219 -6.1004,-0.300723 -12.1947,-0.461415 -18.2774,-0.488281 -6.0827,-0.02687 -12.1529,0.07984 -18.209,0.318359 -6.056,0.238522 -12.0967,0.608074 -18.1172,1.103516 -6.0204,0.495442 -12.022,1.117434 -17.998,1.861328 -5.976,0.743894 -11.9271,1.609873 -17.8496,2.59375 -5.9225,0.983877 -11.8157,2.085389 -17.6758,3.300781 -5.8601,1.215392 -11.6878,2.543979 -17.4766,3.982419 -5.7887,1.43844 -11.5395,2.98761 -17.248,4.64063 -5.7085,1.65301 -11.373,3.4104 -16.9922,5.26953 -5.6192,1.85913 -11.1918,3.82018 -16.7129,5.87695 -5.5211,2.05677 -10.9923,4.20914 -16.4062,6.45508 -5.414,2.24594 -10.7705,4.58507 -16.0684,7.01172 -5.2979,2.42665 -10.5361,4.94018 -15.709,7.53906 -5.1729,2.59888 -10.2813,5.28227 -15.3203,8.04492 -5.039,2.76266 -10.0082,5.60549 -14.9043,8.52344 -4.8961,2.91795 -9.7186,5.91178 -14.4629,8.97656 -4.7442,3.06479 -9.4106,6.20115 -13.9941,9.4043 -4.5835,3.20315 -9.0843,6.4736 -13.4981,9.80664 -4.4138,3.33304 -8.7414,6.72717 -12.9765,10.18164 -4.2352,3.45447 -8.3783,6.96773 -12.4258,10.53516 -4.0476,3.56742 -7.9986,7.18941 -11.8496,10.86133 -3.851,3.67191 -7.6025,7.39417 -11.2481,11.16211 -3.6455,3.76793 -7.186,7.58201 -10.6172,11.4375 -3.4311,3.85549 -6.7512,7.75292 -9.9589,11.6875 -3.2078,3.93457 -6.3019,7.90691 -9.2774,11.9121 -2.9754,4.0052 -5.8322,8.04204 -8.5664,12.10938 -2.7342,4.06734 -5.34606,8.16414 -7.83007,12.28516 -2.48401,4.12102 -4.84153,8.26736 -7.06641,12.43359 -2.22487,4.16623 -4.31663,8.35367 -6.27344,12.55664 -1.9568,4.20297 -3.77724,8.4211 -5.45703,12.65234 -1.67978,4.23125 -3.21945,8.47551 -4.61328,12.72657 -1.39383,4.25105 -2.64326,8.50909 -3.74219,12.77148 -1.09892,4.26239 -2.04671,8.52771 -2.84179,12.79297 -0.79509,4.26526 -1.43762,8.53135 -1.91992,12.79102 -0.48231,4.25966 -0.80427,8.51416 -0.96485,12.75976 -0.16057,4.2456 -0.15837,8.48202 0.0117,12.70508 0.1701,4.22306 0.50787,8.43294 1.01758,12.625 0.50971,4.19206 1.19057,8.36499 2.04883,12.51758 0.85826,4.15258 1.89362,8.28402 3.10937,12.38867 1.21576,4.10465 2.61312,8.18418 4.19531,12.23242 1.5822,4.04824 3.34907,8.06547 5.30665,12.04883 1.95757,3.98336 4.10536,7.93178 6.44726,11.8418 2.3419,3.91001 4.87812,7.78117 7.61328,11.60937 2.73516,3.8282 5.66927,7.61364 8.8067,11.35156 3.1373,3.73792 6.4768,7.42919 10.0254,11.06836 3.5485,3.63917 7.3048,7.22586 11.2734,10.75782 3.9686,3.53195 8.1512,7.00756 12.5488,10.42382 5.8042,4.5089 11.4723,9.08043 16.9942,13.70704 5.5219,4.6266 10.8958,9.30829 16.1132,14.04492 5.2175,4.73662 10.2791,9.52627 15.17,14.36523 4.8908,4.83896 9.6122,9.7285 14.1543,14.66211 4.5421,4.93361 8.903,9.91302 13.0742,14.93359 4.1711,5.02058 8.1517,10.08179 11.9297,15.18165 3.778,5.09985 7.3541,10.23675 10.7168,15.4082 3.3627,5.17145 6.5122,10.37792 9.4375,15.61328 2.9252,5.23536 5.6262,10.50138 8.0918,15.79297 2.4655,5.29158 4.6959,10.60909 6.6796,15.94922 1.9838,5.34012 3.7215,10.70105 5.2012,16.08203 1.4797,5.38098 2.7008,10.78117 3.6543,16.19531 0.9535,5.41415 1.6398,10.84358 2.0449,16.2832 0.4052,5.43963 0.5307,10.89024 0.3653,16.34766 -0.1654,5.45742 -0.6228,10.92114 -1.3809,16.38867 -0.7581,5.46754 -1.8184,10.93824 -3.1914,16.4082 -1.373,5.46997 -3.0583,10.9396 -5.0684,16.4043 -2.01,5.4647 -4.3443,10.9252 -7.0136,16.37696 -2.6693,5.45175 -5.6727,10.89504 -9.0235,16.32617 -3.3507,5.43112 -7.0492,10.84914 -11.1035,16.25195 -4.0543,5.40281 -8.466,10.78944 -13.2461,16.15625 -4.7801,5.36681 -9.927,10.71399 -15.455,16.03711 -5.5281,5.32312 -11.4363,10.62278 -17.7344,15.89453 -6.2982,5.27175 -12.9877,10.51582 -20.0782,15.72852 -7.0904,5.21269 -14.5813,10.39311 -22.4863,15.53906 -7.101,4.62261 -14.6505,9.20666 -22.4258,13.76953 h 82.293 c 1.4199,-1.36893 2.595,-2.58336 4.0664,-3.97852 6.1457,-5.82719 12.7206,-11.8482 19.5606,-17.7871 6.8399,-5.93899 13.9449,-11.79596 21.1504,-17.28907 3.6027,-2.74655 7.2308,-5.40112 10.8632,-7.93164 3.6324,-2.53051 7.2696,-4.93687 10.8907,-7.18164 3.621,-2.24477 7.2244,-4.32943 10.7929,-6.21875 3.5686,-1.88932 7.1013,-3.58272 10.5762,-5.04687 3.4749,-1.46416 6.8922,-2.6987 10.2324,-3.66797 3.3403,-0.96928 6.6031,-1.67343 9.7676,-2.07813 0.033,-0.62736 -0.034,-1.18002 -0.1836,-1.66797 -0.1497,-0.48794 -0.3823,-0.91102 -0.6777,-1.28125 -0.5908,-0.74046 -1.4354,-1.26812 -2.3867,-1.66797 -1.9028,-0.79961 -4.2292,-1.09118 -5.795,-1.57031 -0.7829,-0.23956 -1.3769,-0.52542 -1.6308,-0.94531 -0.127,-0.20995 -0.1675,-0.45265 -0.1075,-0.74023 0.061,-0.28759 0.224,-0.62088 0.5098,-1.00782 0.5716,-0.77386 1.6306,-1.76687 3.3242,-3.06836 1.6937,-1.30149 4.0227,-2.9113 7.1348,-4.91406 9.2011,-6.7392 17.1924,-13.25594 25.1758,-19.5332 3.9916,-3.13863 7.9804,-6.21753 12.1191,-9.23438 4.1388,-3.01685 8.4268,-5.97045 13.0137,-8.86133 4.5869,-2.89079 9.4726,-5.7178 14.8086,-8.47851 5.336,-2.76071 11.1217,-5.45569 17.5078,-8.08203 6.3861,-2.62634 13.3721,-5.1841 21.1094,-7.67188 7.7373,-2.48778 16.2257,-4.90497 25.6152,-7.25 3.5871,-0.89589 6.4865,-1.81695 8.8145,-2.74023 2.3279,-0.92328 4.0844,-1.84892 5.3847,-2.75977 1.3004,-0.91085 2.1459,-1.80546 2.6504,-2.66406 0.5045,-0.8586 0.6691,-1.68269 0.6094,-2.44922 -0.06,-0.76652 -0.344,-1.4767 -0.7363,-2.11133 -0.3923,-0.63462 -0.8935,-1.19334 -1.3868,-1.65625 -0.9864,-0.92581 -1.9433,-1.46875 -1.9433,-1.46875 0,0 2.0487,-0.72061 5.8242,-1.85742 3.7755,-1.1368 9.2785,-2.68803 16.1875,-4.35156 6.909,-1.66353 15.2244,-3.43935 24.625,-5.01953 4.7003,-0.79009 9.6722,-1.53069 14.875,-2.18555 5.2028,-0.65486 10.6366,-1.22264 16.2617,-1.66601 5.6251,-0.44337 11.4411,-0.76235 17.4082,-0.91797 5.9671,-0.15562 12.0856,-0.1478 18.3145,0.0605 6.2289,0.20839 12.5681,0.61697 18.9785,1.26563 6.4104,0.64866 12.8906,1.53598 19.4023,2.70117 4.947,0.8852 9.9162,2.09632 14.8809,3.31836 v -310.9707 c -2.5986,5.00646 -5.2302,9.94456 -7.9688,14.66015 -3.2276,5.55809 -6.5501,10.91678 -9.9609,16.07813 -3.4108,5.16135 -6.911,10.12586 -10.4922,14.89844 -3.5811,4.77257 -7.2434,9.35238 -10.9824,13.74414 -3.739,4.39175 -7.5551,8.59438 -11.4395,12.61328 -3.8841,4.01889 -7.8383,7.85382 -11.8554,11.50781 -4.0171,3.65399 -8.097,7.12873 -12.2344,10.42578 -4.1373,3.29705 -8.3311,6.41717 -12.5762,9.36524 -4.245,2.94806 -8.5406,5.72303 -12.8808,8.33007 -4.3403,2.60705 -8.7256,5.04634 -13.1485,7.32032 -4.4228,2.27397 -8.884,4.38316 -13.3769,6.33203 -4.493,1.94887 -9.0179,3.73742 -13.5684,5.36914 -4.5505,1.63172 -9.1271,3.10716 -13.7226,4.42969 -4.5956,1.32252 -9.2099,2.49237 -13.8379,3.51367 -4.628,1.02129 -9.2681,1.89307 -13.916,2.62109 -4.648,0.72803 -9.3036,1.3112 -13.959,1.75391 -4.6554,0.44271 -9.3107,0.7448 -13.961,0.91015 -4.6502,0.16536 -9.2951,0.19389 -13.9277,0.0899 -4.6326,-0.10404 -9.2531,-0.3396 -13.8555,-0.70508 -4.6024,-0.36548 -9.1864,-0.85956 -13.7461,-1.47852 -4.5596,-0.61896 -9.0952,-1.36403 -13.5996,-2.22851 -4.5044,-0.86448 -8.9774,-1.84913 -13.414,-2.95117 -4.4366,-1.10204 -8.8371,-2.3207 -13.1934,-3.65235 -4.3562,-1.33164 -8.6683,-2.77679 -12.9316,-4.33008 -4.2634,-1.55328 -8.4788,-3.21544 -12.6367,-4.98242 -4.158,-1.76697 -8.2589,-3.63862 -12.2989,-5.61133 -4.04,-1.9727 -8.0182,-4.04632 -11.9277,-6.21679 -3.9095,-2.17047 -7.7511,-4.43855 -11.5176,-6.79883 -3.7665,-2.36028 -7.4574,-4.81334 -11.0683,-7.35547 -3.611,-2.54213 -7.1412,-5.17265 -10.584,-7.88867 -3.4428,-2.71602 -6.7984,-5.51648 -10.0606,-8.39844 -3.2621,-2.88195 -6.431,-5.84483 -9.5,-8.88476 -3.069,-3.03994 -6.039,-6.15771 -8.9023,-9.34766 -2.8633,-3.18995 -5.6206,-6.45315 -8.2656,-9.78516 -2.6451,-3.332 -5.1776,-6.73311 -7.5918,-10.19922 -2.4143,-3.4661 -4.71,-6.99564 -6.8809,-10.58789 -2.1709,-3.59224 -4.2158,-7.2466 -6.1309,-10.95703 -1.915,-3.71042 -3.699,-7.47818 -5.3457,-11.29883 -1.6466,-3.82064 -3.1577,-7.69427 -4.5234,-11.61718 -1.3658,-3.92291 -2.5879,-7.8949 -3.6602,-11.91211 -1.0722,-4.01722 -1.9934,-8.08003 -2.7597,-12.1836 -0.7663,-4.10356 -1.3765,-8.24773 -1.8242,-12.42968 -0.4478,-4.18195 -0.733,-8.39997 -0.8497,-12.65235 -0.1166,-4.25238 -0.065,-8.53866 0.1622,-12.85351 0.2269,-4.31485 0.6278,-8.65994 1.2109,-13.0293 0.5831,-4.36936 1.349,-8.76377 2.3008,-13.17969 0.9518,-4.41591 2.0908,-8.85213 3.4238,-13.30664 1.333,-4.45451 2.8592,-8.92696 4.5859,-13.41211 1.7268,-4.48514 3.6541,-8.98438 5.7872,-13.49218 2.1328,-4.50783 4.4715,-9.02434 7.0234,-13.54688 2.5519,-4.52254 5.3175,-9.05078 8.3008,-13.58008 2.9832,-4.5293 6.1841,-9.05979 9.6113,-13.58789 3.4272,-4.5281 7.0793,-9.05332 10.9629,-13.57226 3.8836,-4.51894 7.999,-9.03138 12.3516,-13.53321 4.3523,-4.50182 8.9432,-8.992 13.7773,-13.46875 4.8341,-4.47675 9.9121,-8.9391 15.2402,-13.38281 5.3282,-4.44371 10.9055,-8.86876 16.7403,-13.27148 0.3634,-0.27425 0.7732,-0.5443 1.1386,-0.81836 1.0375,-1.72338 1.9728,-3.50367 3.0606,-5.19727 2.8842,-4.49031 5.9429,-8.87305 9.168,-13.13672 3.2247,-4.26367 6.6161,-8.40824 10.1601,-12.41992 3.544,-4.01168 7.2411,-7.89066 11.082,-11.625 3.841,-3.73434 7.8256,-7.32421 11.9414,-10.75586 4.1159,-3.43165 8.3636,-6.70498 12.7325,-9.80859 4.3688,-3.10362 8.8591,-6.03688 13.459,-8.78711 4.5995,-2.75023 9.3083,-5.31796 14.1171,-7.68946 4.8089,-2.37149 9.7171,-4.54625 14.7129,-6.51367 4.9959,-1.96742 10.0794,-3.72763 15.2403,-5.26562 5.1609,-1.53799 10.3991,-2.85429 15.7031,-3.9375 5.3039,-1.08322 10.6746,-1.93207 16.0996,-2.53516 5.425,-0.60309 10.9055,-0.96097 16.4297,-1.05859 5.5241,-0.0976 11.0921,0.0648 16.6933,0.49804 5.6013,0.43321 11.2343,1.13759 16.8907,2.12696 5.6564,0.98937 11.3358,2.2631 17.0254,3.83398 5.6895,1.57089 11.391,3.43944 17.0918,5.61719 5.7007,2.17775 11.3999,4.66465 17.0898,7.47461 5.6899,2.80996 11.3702,5.94266 17.0273,9.41015 5.6572,3.46753 11.2922,7.2695 16.8946,11.41993 5.6024,4.15043 11.1716,8.64912 16.6972,13.50781 5.5257,4.85869 11.0067,10.07763 16.4336,15.66992 5.427,5.59229 10.7993,11.55696 16.1055,17.9082 2.163,2.58897 4.264,5.52614 6.4043,8.24414 z"
         style="opacity:0.81999966;fill:url(#linearGradient4624);fill-opacity:1;stroke:none;stroke-width:1.72688246;stroke-linecap:round;stroke-linejoin:round;stroke-miterlimit:4;stroke-dasharray:none;stroke-opacity:1"
         inkscape:connector-curvature="0" />
      <path
         transform="matrix(0.26458333,0,0,0.26458333,0,49.614567)"
         id="rect4585"
         d="m 1520,4.765625 c -8.9852,3.2452036 -18.4494,6.772232 -27.1855,9.871094 -22.6197,8.023643 -44.4152,15.566254 -65.4415,22.673828 -21.0262,7.107574 -41.2832,13.781099 -60.8261,20.066406 -19.5429,6.285307 -38.3713,12.183392 -56.541,17.740235 -18.1698,5.556841 -35.6792,10.773131 -52.586,15.695312 -16.9067,4.922181 -33.2109,9.55032 -48.9648,13.93164 -31.5079,8.76264 -60.8194,16.5372 -88.377,23.69922 -27.5575,7.16202 -53.361,13.71162 -77.8496,20.02344 -24.4886,6.31181 -47.66196,12.38562 -69.96288,18.59765 -11.15044,3.10602 -22.08277,6.24698 -32.85156,9.46875 -10.76878,3.22178 -21.37381,6.52375 -31.87109,9.95508 -10.49728,3.43133 -20.88672,6.99187 -31.22266,10.72656 -10.33594,3.7347 -20.61953,7.64353 -30.90429,11.77539 -10.28477,4.13187 -20.57032,8.48655 -30.91407,13.10938 -10.34375,4.62283 -20.74491,9.51506 -31.25781,14.72266 -10.5129,5.20759 -21.13747,10.73101 -31.92969,16.61718 -10.79222,5.88617 -21.75189,12.13443 -32.93359,18.79297 -11.1817,6.65855 -22.58623,13.72723 -34.26758,21.25196 -11.68135,7.52471 -23.64048,15.50553 -35.93164,23.99023 -12.29116,8.4847 -24.91464,17.47323 -37.92578,27.01172 -13.01114,9.53848 -26.40872,19.62643 -40.25,30.3125 -13.84128,10.68607 -28.12662,21.96903 -42.9082,33.89648 -14.78159,11.92746 -30.06053,24.49908 -45.89258,37.76172 -15.83206,13.26265 -32.2163,27.21657 -49.20899,41.9082 -16.99269,14.69164 -34.59393,30.12151 -52.85742,46.33594 -18.26349,16.21443 -37.18953,33.21389 -56.83398,51.04492 -19.64446,17.83103 -40.007,36.49373 -61.14258,56.03516 -14.37958,13.295 -28.40435,26.69511 -42.11523,40.08398 -13.7109,13.38888 -27.10861,26.76719 -40.23243,40.01954 -26.24763,26.50468 -51.40215,52.50588 -75.79101,77.08203 -1.02271,1.03056 -2.00341,1.96671 -3.02344,2.99218 V 935 h 152.04492 c 3.90051,-2.45001 7.78449,-4.80291 11.71875,-7.43945 6.59263,-4.41804 13.2308,-9.08795 19.91406,-13.98243 6.68327,-4.89441 13.41098,-10.01258 20.17969,-15.32421 6.76872,-5.31163 13.57877,-10.81684 20.42774,-16.48633 6.84897,-5.6695 13.73612,-11.50458 20.66015,-17.47266 6.92403,-5.96807 13.88501,-12.06997 20.87891,-18.27734 13.9878,-12.41474 28.10959,-25.24943 42.3457,-38.26563 14.23612,-13.01619 28.5864,-26.21406 43.0293,-39.35742 14.44289,-13.14336 28.9778,-26.2311 43.58594,-39.02734 7.30406,-6.39812 14.62725,-12.72296 21.96484,-18.94531 7.33759,-6.22242 14.69072,-12.34267 22.05664,-18.33008 7.36592,-5.98742 14.74376,-11.84203 22.13281,-17.53516 7.38906,-5.69313 14.78832,-11.22489 22.19532,-16.56445 7.40699,-5.33957 14.82244,-10.48735 22.24218,-15.41407 7.41975,-4.92665 14.84418,-9.63136 22.27149,-14.08593 7.4273,-4.45458 14.85744,-8.65889 22.28711,-12.58203 7.42967,-3.92315 14.85831,-7.56601 22.28515,-10.89844 7.42685,-3.33244 14.85266,-6.35467 22.27149,-9.03711 3.70941,-1.34122 7.41661,-2.59802 11.12304,-3.76563 3.70644,-1.1676 7.41048,-2.24584 11.11329,-3.23242 3.7028,-0.98657 7.40498,-1.88161 11.10351,-2.67968 3.69853,-0.79814 7.39429,-1.49928 11.08789,-2.10157 3.69361,-0.60229 7.38424,-1.10487 11.07227,-1.5039 3.68803,-0.39904 7.37288,-0.69445 11.05469,-0.88282 3.68174,-0.18836 7.36022,-0.26995 11.03515,-0.24023 3.67493,0.0297 7.34626,0.17057 11.01367,0.42578 3.66742,0.25521 7.331,0.62517 10.99024,1.11328 3.65924,0.48811 7.31442,1.09384 10.96484,1.82227 3.65042,0.72842 7.29655,1.57854 10.9375,2.55469 3.64095,0.97608 7.27737,2.07926 10.9082,3.31054 3.63084,1.23128 7.25689,2.59211 10.87696,4.08594 3.62006,1.49382 7.23314,3.11903 10.84179,4.88281 3.60866,1.76378 7.21201,3.66589 10.8086,5.70703 3.59658,2.04115 7.18761,4.22291 10.77148,6.54883 2.98943,1.94014 5.97129,4.04067 8.95117,6.18359 4.49451,1.12615 8.94515,2.41448 13.30664,3.96485 4.75134,1.68893 9.41799,3.6203 13.99024,5.7793 4.57225,2.15899 9.04898,4.5444 13.41992,7.13867 4.37095,2.59426 8.63578,5.39784 12.7832,8.39258 4.14743,2.99473 8.17838,6.1806 12.08008,9.54101 3.9017,3.36041 7.67484,6.89661 11.3086,10.58789 3.63375,3.69128 7.1271,7.53804 10.4707,11.52539 3.3436,3.98736 6.53712,8.11465 9.56836,12.36328 3.03124,4.24863 5.901,8.61865 8.59766,13.09375 2.6966,4.47511 5.22068,9.05588 7.56054,13.72266 2.33986,4.66678 4.49422,9.42048 6.45508,14.24414 1.9609,4.82366 3.7275,9.71637 5.2871,14.66211 1.5596,4.94574 2.9126,9.94354 4.0488,14.97656 1.1362,5.03303 2.0556,10.102 2.7461,15.1875 0.6906,5.08551 1.1523,10.18783 1.375,15.29102 0.2227,5.10319 0.2069,10.20689 -0.061,15.29297 -0.2674,5.08607 -0.7848,10.15529 -1.5645,15.18945 -0.7796,5.03416 -1.8225,10.03302 -3.1367,14.98047 -1.3141,4.94745 -2.9006,9.84203 -4.7715,14.66797 -1.8708,4.82594 -4.02479,9.58427 -6.47458,14.2539 -2.44979,4.66963 -5.19517,9.25195 -8.2461,13.73047 -3.05087,4.47853 -6.40775,8.85286 -10.08203,13.10547 -3.67427,4.25262 -7.66649,8.38309 -11.98632,12.375 -4.31984,3.99191 -8.96747,7.84461 -13.95508,11.54102 -4.98762,3.6964 -10.31459,7.23741 -15.99219,10.60351 -5.6776,3.36611 -11.7059,6.5576 -18.0957,9.5586 -0.78027,0.36645 -1.68354,0.66662 -2.47461,1.02734 h 104.81441 c 7.7753,-4.56287 15.3248,-9.14692 22.4258,-13.76953 7.905,-5.14595 15.3959,-10.32637 22.4863,-15.53906 7.0905,-5.2127 13.78,-10.45677 20.0782,-15.72852 6.2981,-5.27175 12.2063,-10.57141 17.7344,-15.89453 5.528,-5.32312 10.6749,-10.6703 15.455,-16.03711 4.7801,-5.36681 9.1918,-10.75344 13.2461,-16.15625 4.0543,-5.40281 7.7528,-10.82083 11.1035,-16.25195 3.3508,-5.43113 6.3542,-10.87442 9.0235,-16.32617 2.6693,-5.45176 5.0036,-10.91226 7.0136,-16.37696 2.0101,-5.4647 3.6954,-10.93433 5.0684,-16.4043 1.373,-5.46996 2.4333,-10.94066 3.1914,-16.4082 0.7581,-5.46753 1.2155,-10.93125 1.3809,-16.38867 0.1654,-5.45742 0.04,-10.90803 -0.3653,-16.34766 -0.4051,-5.43962 -1.0914,-10.86905 -2.0449,-16.2832 -0.9535,-5.41414 -2.1746,-10.81433 -3.6543,-16.19531 -1.4797,-5.38098 -3.2174,-10.74191 -5.2012,-16.08203 -1.9837,-5.34013 -4.2141,-10.65764 -6.6796,-15.94922 -2.4656,-5.29159 -5.1666,-10.55761 -8.0918,-15.79297 -2.9253,-5.23536 -6.0748,-10.44183 -9.4375,-15.61328 -3.3627,-5.17145 -6.9388,-10.30835 -10.7168,-15.4082 -3.778,-5.09986 -7.7586,-10.16107 -11.9297,-15.18165 -4.1712,-5.02057 -8.5321,-9.99998 -13.0742,-14.93359 -4.5421,-4.93361 -9.2635,-9.82315 -14.1543,-14.66211 -4.8909,-4.83896 -9.9525,-9.62861 -15.17,-14.36523 -5.2174,-4.73663 -10.5913,-9.41832 -16.1132,-14.04492 -5.5219,-4.62661 -11.19,-9.19814 -16.9942,-13.70704 -4.3976,-3.41626 -8.5802,-6.89187 -12.5488,-10.42382 -3.9686,-3.53196 -7.7249,-7.11865 -11.2734,-10.75782 -3.5486,-3.63917 -6.8881,-7.33044 -10.0254,-11.06836 -3.13741,-3.73792 -6.07152,-7.52336 -8.80668,-11.35156 -2.73516,-3.8282 -5.27138,-7.69936 -7.61328,-11.60937 -2.3419,-3.91002 -4.48969,-7.85844 -6.44726,-11.8418 -1.95758,-3.98336 -3.72445,-8.00059 -5.30665,-12.04883 -1.58219,-4.04824 -2.97955,-8.12777 -4.19531,-12.23242 -1.21575,-4.10465 -2.25111,-8.23609 -3.10937,-12.38867 -0.85826,-4.15259 -1.53912,-8.32552 -2.04883,-12.51758 -0.50971,-4.19206 -0.84748,-8.40194 -1.01758,-12.625 -0.17009,-4.22306 -0.17229,-8.45948 -0.0117,-12.70508 0.16058,-4.2456 0.48254,-8.5001 0.96485,-12.75976 0.4823,-4.25967 1.12483,-8.52576 1.91992,-12.79102 0.79508,-4.26526 1.74287,-8.53058 2.84179,-12.79297 1.09893,-4.26239 2.34836,-8.52043 3.74219,-12.77148 1.39383,-4.25106 2.9335,-8.49532 4.61328,-12.72657 1.67979,-4.23124 3.50023,-8.44937 5.45703,-12.65234 1.95681,-4.20297 4.04857,-8.39041 6.27344,-12.55664 2.22488,-4.16623 4.5824,-8.31257 7.06641,-12.43359 2.48401,-4.12102 5.09585,-8.21782 7.83005,-12.28516 2.7342,-4.06734 5.591,-8.10418 8.5664,-12.10938 2.9755,-4.00519 6.0696,-7.97753 9.2774,-11.9121 3.2077,-3.93458 6.5278,-7.83201 9.9589,-11.6875 3.4312,-3.85549 6.9717,-7.66957 10.6172,-11.4375 3.6456,-3.76794 7.3971,-7.4902 11.2481,-11.16211 3.851,-3.67192 7.802,-7.29391 11.8496,-10.86133 4.0475,-3.56743 8.1906,-7.08069 12.4258,-10.53516 4.2351,-3.45447 8.5627,-6.8486 12.9765,-10.18164 4.4138,-3.33304 8.9146,-6.60349 13.4981,-9.80664 4.5835,-3.20315 9.2499,-6.33951 13.9941,-9.4043 4.7443,-3.06478 9.5668,-6.05861 14.4629,-8.97656 4.8961,-2.91795 9.8653,-5.76078 14.9043,-8.52344 5.039,-2.76265 10.1474,-5.44604 15.3203,-8.04492 5.1729,-2.59888 10.4111,-5.11241 15.709,-7.53906 5.2979,-2.42665 10.6544,-4.76578 16.0684,-7.01172 5.4139,-2.24594 10.8851,-4.39831 16.4062,-6.45508 5.5211,-2.05677 11.0937,-4.01782 16.7129,-5.87695 5.6192,-1.85913 11.2837,-3.61652 16.9922,-5.26953 5.7085,-1.65302 11.4593,-3.20219 17.248,-4.64063 5.7888,-1.43844 11.6165,-2.767027 17.4766,-3.982419 5.8601,-1.215392 11.7533,-2.316904 17.6758,-3.300781 5.9225,-0.983877 11.8736,-1.849856 17.8496,-2.59375 5.976,-0.743894 11.9776,-1.365886 17.998,-1.861328 6.0205,-0.495442 12.0612,-0.864994 18.1172,-1.103516 6.0561,-0.238522 12.1263,-0.345225 18.209,-0.318359 6.0827,0.02687 12.177,0.187558 18.2774,0.488281 6.1003,0.300723 12.2072,0.741171 18.3164,1.324219 6.1091,0.583048 12.2211,1.309753 18.33,2.183594 6.109,0.873841 12.2147,1.895256 18.3145,3.068359 6.0998,1.173103 12.1937,2.497683 18.2754,3.97852 6.0817,1.48083 12.1523,3.11703 18.207,4.91406 6.0547,1.79703 12.0926,3.75525 18.1113,5.87695 6.0188,2.1217 12.0184,4.4065 17.9922,6.86133 1.8783,0.77182 3.7362,1.67126 5.6094,2.47656 z M 762.28711,435.91797 c 12.94525,0.16535 25.77954,0.63029 38.44141,1.38476 12.66186,0.75447 25.15167,1.7972 37.4082,3.11329 12.25653,1.31608 24.2805,2.90566 36.00976,4.75586 -7.59238,0.38268 -14.98695,0.8652 -22.18945,1.4414 -7.2025,0.5762 -14.21303,1.24749 -21.03906,2.00781 -6.82603,0.76033 -13.46868,1.60984 -19.93164,2.54493 -6.46296,0.93508 -12.74607,1.95615 -18.85938,3.05664 -6.1133,1.10048 -12.05693,2.28057 -17.83398,3.53711 -5.77706,1.25653 -11.38758,2.58896 -16.8418,3.99218 -5.45421,1.40322 -10.7517,2.87742 -15.89648,4.41797 -5.14479,1.54055 -10.13756,3.14789 -14.98633,4.81641 -4.84877,1.66852 -9.55299,3.39841 -14.11914,5.18555 -4.56616,1.78709 -8.99406,3.63096 -13.29102,5.52734 -4.29695,1.89638 -8.46274,3.84552 -12.5039,5.8418 -4.04116,1.99627 -7.95709,4.04013 -11.75586,6.12695 -3.79878,2.08681 -7.48098,4.21482 -11.05078,6.38281 -3.5698,2.16799 -7.02858,4.37542 -10.38282,6.61524 -3.35423,2.23981 -6.60378,4.51218 -9.75586,6.81445 -3.15207,2.30227 -6.20659,4.63486 -9.16992,6.99023 -5.92666,4.71075 -11.48811,9.51776 -16.74023,14.38477 -5.25212,4.86701 -10.19405,9.79379 -14.87891,14.74219 -4.68486,4.9484 -9.11302,9.91812 -13.33789,14.87304 -4.22487,4.95493 -8.24699,9.89467 -12.11914,14.78125 -7.74431,9.77316 -14.89011,19.33419 -21.86719,28.38477 -3.48854,4.52529 -6.93493,8.9239 -10.39258,13.15625 -3.4576,4.23234 -6.92692,8.29953 -10.46093,12.16406 2.05476,-6.86385 3.23946,-11.8422 3.99023,-15.9375 0.75077,-4.0953 1.06746,-7.30793 1.38867,-10.64258 0.32122,-3.33464 0.64602,-6.79115 1.41211,-11.37304 0.7661,-4.58189 1.97319,-10.28993 4.0586,-18.12696 -6.55969,11.05312 -13.87097,24.38182 -22.08594,38.72071 -4.10749,7.16944 -8.44187,14.59049 -13.01953,22.10742 -4.57766,7.51693 -9.39898,15.12929 -14.48438,22.67773 -5.0854,7.54844 -10.43374,15.03485 -16.06445,22.29883 -2.81535,3.63199 -5.70143,7.2074 -8.66016,10.70898 -2.95872,3.50163 -5.99086,6.928 -9.09765,10.25977 -3.1068,3.33177 -6.28927,6.56899 -9.54883,9.69141 -3.25956,3.12241 -6.59666,6.13034 -10.01367,9.0039 -3.41702,2.87357 -6.91302,5.614 -10.49219,8.19922 -3.57917,2.58522 -7.24031,5.01606 -10.98633,7.27344 l 14.4336,-52.66016 c -3.42524,7.74268 -6.21096,14.07163 -8.89063,19.45899 -1.33983,2.69368 -2.65254,5.1521 -4.00586,7.43359 -1.35332,2.28149 -2.74603,4.38598 -4.24609,6.37305 -1.50007,1.98706 -3.10666,3.85561 -4.88672,5.66601 -1.78006,1.8104 -3.73443,3.56296 -5.92774,5.31446 -2.1933,1.75149 -4.62542,3.50214 -7.36523,5.3125 -2.73981,1.81035 -5.78746,3.67904 -9.20703,5.66601 -6.83914,3.97394 -15.16966,8.41966 -25.52735,13.80664 -10.35764,5.38698 -22.74132,11.71688 -37.68359,19.45899 -14.94226,7.7421 -32.44423,16.89623 -53.03711,27.93554 -20.59287,11.03932 -44.27642,23.96357 -71.58594,39.24219 5.67899,-5.66942 10.96716,-11.37416 15.91993,-17.09961 4.95276,-5.72544 9.56995,-11.47225 13.90039,-17.22656 4.33043,-5.75431 8.3755,-11.51548 12.1875,-17.27148 3.81199,-5.75601 7.38965,-11.5058 10.78711,-17.23633 3.39745,-5.73053 6.61437,-11.44321 9.70117,-17.1211 3.0868,-5.67789 6.04378,-11.32183 8.92383,-16.91992 5.76008,-11.19617 11.21117,-22.20596 16.76757,-32.91992 2.77821,-5.35698 5.58173,-10.64026 8.46485,-15.83594 2.88312,-5.19567 5.84556,-10.30334 8.9375,-15.31054 3.09193,-5.00721 6.31411,-9.91351 9.71875,-14.70508 3.40464,-4.79157 6.99126,-9.46881 10.8125,-14.01758 3.82124,-4.54877 7.87702,-8.96924 12.21875,-13.24805 4.34173,-4.2788 8.96943,-8.41481 13.93555,-12.39648 2.48301,-1.99084 5.05035,-3.94401 7.70898,-5.85547 2.65863,-1.91146 5.40867,-3.78264 8.25586,-5.61133 2.84719,-1.82868 5.79305,-3.6149 8.8418,-5.35742 3.04874,-1.74252 6.20156,-3.4408 9.46484,-5.09375 l -54.76758,14.9082 c 2.76647,-4.99799 5.70319,-9.87516 8.80274,-14.63476 3.09954,-4.75961 6.36192,-9.40113 9.77929,-13.92578 3.41738,-4.52466 6.98902,-8.93342 10.70899,-13.22657 3.71996,-4.29315 7.58839,-8.47007 11.5957,-12.53515 4.00731,-4.06508 8.15418,-8.01698 12.43359,-11.85743 4.27942,-3.8404 8.69029,-7.57019 13.22657,-11.18945 4.53628,-3.61925 9.19671,-7.12784 13.97461,-10.52929 4.77789,-3.4015 9.67345,-6.69564 14.67773,-9.88282 5.00428,-3.18718 10.11857,-6.26784 15.33398,-9.24414 5.21541,-2.9763 10.53206,-5.84833 15.94336,-8.61719 5.41131,-2.76885 10.91586,-5.43514 16.50782,-8 5.59195,-2.56485 11.27193,-5.02829 17.02929,-7.39257 5.75736,-2.36429 11.59248,-4.62972 17.5,-6.79688 5.90753,-2.16715 11.88724,-4.23552 17.92969,-6.20898 6.04245,-1.97347 12.14842,-3.85156 18.31055,-5.63477 6.16213,-1.78321 12.37991,-3.47196 18.64648,-5.06836 6.26657,-1.59639 12.58174,-3.10065 18.9375,-4.51367 6.35577,-1.41302 12.75192,-2.73567 19.18164,-3.96875 6.42972,-1.23308 12.89243,-2.37702 19.38086,-3.43359 6.48843,-1.05658 13.00326,-2.02469 19.53516,-2.90821 6.5319,-0.88351 13.0805,-1.68259 19.64062,-2.39648 6.56013,-0.71389 13.13197,-1.34293 19.70508,-1.89063 13.14623,-1.09539 26.30345,-1.86122 39.41016,-2.3125 13.10671,-0.45127 26.16216,-0.58722 39.10742,-0.42187 z"
         style="opacity:0.81999966;fill:url(#linearGradient4536);fill-opacity:1;stroke:none;stroke-width:1.72688246;stroke-linecap:round;stroke-linejoin:round;stroke-miterlimit:4;stroke-dasharray:none;stroke-opacity:1"
         inkscape:connector-curvature="0" />
    </g>
  </g>
</svg>
