<?xml version="1.0" encoding="UTF-8" standalone="no"?>
<!-- Created with Inkscape (http://www.inkscape.org/) -->

<svg
   xmlns:dc="http://purl.org/dc/elements/1.1/"
   xmlns:cc="http://creativecommons.org/ns#"
   xmlns:rdf="http://www.w3.org/1999/02/22-rdf-syntax-ns#"
   xmlns:svg="http://www.w3.org/2000/svg"
   xmlns="http://www.w3.org/2000/svg"
   xmlns:xlink="http://www.w3.org/1999/xlink"
   xmlns:sodipodi="http://sodipodi.sourceforge.net/DTD/sodipodi-0.dtd"
   xmlns:inkscape="http://www.inkscape.org/namespaces/inkscape"
   width="1458"
   height="935"
   viewBox="0 0 385.76249 247.38542"
   preserveAspectRatio="none"
   version="1.1"
   id="svg4575"
   inkscape:version="0.92.1 r15371"
   sodipodi:docname="MainBack.svg">
  <defs
     id="defs4569">
    <linearGradient
       inkscape:collect="always"
       id="linearGradient4717">
      <stop
         style="stop-color:#ffb380;stop-opacity:1"
         offset="0"
         id="stop4713" />
      <stop
         style="stop-color:#fbfbfd;stop-opacity:1"
         offset="1"
         id="stop4715" />
    </linearGradient>
    <linearGradient
       inkscape:collect="always"
       id="linearGradient4709">
      <stop
         style="stop-color:#f4e3d7;stop-opacity:1"
         offset="0"
         id="stop4705" />
      <stop
         style="stop-color:#fbfbfd;stop-opacity:1"
         offset="1"
         id="stop4707" />
    </linearGradient>
    <linearGradient
       inkscape:collect="always"
       id="linearGradient4701">
      <stop
         style="stop-color:#ffe6d5;stop-opacity:1;"
         offset="0"
         id="stop4697" />
      <stop
         style="stop-color:#eff4d7;stop-opacity:0.72941178"
         offset="1"
         id="stop4699" />
    </linearGradient>
    <linearGradient
       inkscape:collect="always"
       id="linearGradient4693">
      <stop
         style="stop-color:#eef4d7;stop-opacity:1"
         offset="0"
         id="stop4689" />
      <stop
         style="stop-color:#f6f2df;stop-opacity:1"
         offset="1"
         id="stop4691" />
    </linearGradient>
    <linearGradient
       inkscape:collect="always"
       id="linearGradient4685">
      <stop
         style="stop-color:#f6f1dd;stop-opacity:1;"
         offset="0"
         id="stop4681" />
      <stop
         style="stop-color:#fbfcff;stop-opacity:1"
         offset="1"
         id="stop4683" />
    </linearGradient>
    <linearGradient
       inkscape:collect="always"
       id="linearGradient4677">
      <stop
         style="stop-color:#ffe6d5;stop-opacity:1"
         offset="0"
         id="stop4673" />
      <stop
         style="stop-color:#eff5d8;stop-opacity:0.79215688"
         offset="1"
         id="stop4675" />
    </linearGradient>
    <linearGradient
       inkscape:collect="always"
       id="linearGradient4669">
      <stop
         style="stop-color:#e5eec1;stop-opacity:1"
         offset="0"
         id="stop4665" />
      <stop
         style="stop-color:#eef4d7;stop-opacity:0;"
         offset="1"
         id="stop4667" />
    </linearGradient>
    <linearGradient
       inkscape:collect="always"
       id="linearGradient4661">
      <stop
         style="stop-color:#fbfcff;stop-opacity:1"
         offset="0"
         id="stop4657" />
      <stop
         style="stop-color:#eef4d7;stop-opacity:1"
         offset="1"
         id="stop4659" />
    </linearGradient>
    <linearGradient
       inkscape:collect="always"
       id="linearGradient4653">
      <stop
         style="stop-color:#80b3ff;stop-opacity:1;"
         offset="0"
         id="stop4649" />
      <stop
         style="stop-color:#d5e5ff;stop-opacity:1"
         offset="1"
         id="stop4651" />
    </linearGradient>
    <linearGradient
       inkscape:collect="always"
       id="linearGradient4645">
      <stop
         style="stop-color:#d3ff16;stop-opacity:1"
         offset="0"
         id="stop4641" />
      <stop
         style="stop-color:#ffffff;stop-opacity:1"
         offset="1"
         id="stop4643" />
    </linearGradient>
    <linearGradient
       inkscape:collect="always"
       id="linearGradient4637">
      <stop
         style="stop-color:#ffccaa;stop-opacity:1;"
         offset="0"
         id="stop4633" />
      <stop
         style="stop-color:#ffccaa;stop-opacity:0;"
         offset="1"
         id="stop4635" />
    </linearGradient>
    <linearGradient
       inkscape:collect="always"
       xlink:href="#linearGradient4637"
       id="linearGradient4639"
       x1="559.19404"
       y1="583.40556"
       x2="1470.2381"
       y2="583.40556"
       gradientUnits="userSpaceOnUse" />
    <linearGradient
       inkscape:collect="always"
       xlink:href="#linearGradient4645"
       id="linearGradient4647"
       x1="683.22559"
       y1="664.09729"
       x2="1429.5002"
       y2="931.80396"
       gradientUnits="userSpaceOnUse" />
    <linearGradient
       inkscape:collect="always"
       xlink:href="#linearGradient4653"
       id="linearGradient4655"
       x1="-80.566833"
       y1="370.84543"
       x2="179.4752"
       y2="221.47287"
       gradientUnits="userSpaceOnUse" />
    <linearGradient
       inkscape:collect="always"
       xlink:href="#linearGradient4661"
       id="linearGradient4663"
       x1="26.021873"
       y1="713.19208"
       x2="155.28023"
       y2="682.15363"
       gradientUnits="userSpaceOnUse" />
    <linearGradient
       inkscape:collect="always"
       xlink:href="#linearGradient4669"
       id="linearGradient4671"
       x1="146.44202"
       y1="467.92401"
       x2="579.82251"
       y2="588.198"
       gradientUnits="userSpaceOnUse" />
    <linearGradient
       inkscape:collect="always"
       xlink:href="#linearGradient4677"
       id="linearGradient4679"
       x1="341.75995"
       y1="988.02521"
       x2="356.51071"
       y2="823.13348"
       gradientUnits="userSpaceOnUse" />
    <linearGradient
       inkscape:collect="always"
       xlink:href="#linearGradient4685"
       id="linearGradient4687"
       x1="-10.730313"
       y1="479.3726"
       x2="1470.2381"
       y2="479.3726"
       gradientUnits="userSpaceOnUse" />
    <linearGradient
       inkscape:collect="always"
       xlink:href="#linearGradient4701"
       id="linearGradient4703"
       x1="422.31262"
       y1="819.46918"
       x2="539.46082"
       y2="852.44757"
       gradientUnits="userSpaceOnUse" />
    <linearGradient
       inkscape:collect="always"
       xlink:href="#linearGradient4709"
       id="linearGradient4711"
       x1="-10.730313"
       y1="214.48693"
       x2="558.48352"
       y2="162.10953"
       gradientUnits="userSpaceOnUse" />
    <radialGradient
       inkscape:collect="always"
       xlink:href="#linearGradient4717"
       id="radialGradient4719"
       cx="1375.0996"
       cy="65.558426"
       fx="1375.0996"
       fy="65.558426"
       r="168.33395"
       gradientTransform="matrix(0.16767612,-0.98584214,1.4750895,0.25088934,1047.8237,1417.2529)"
       gradientUnits="userSpaceOnUse" />
    <radialGradient
       inkscape:collect="always"
       xlink:href="#linearGradient4693"
       id="radialGradient4723"
       cx="141.64453"
       cy="619.02051"
       fx="141.64453"
       fy="619.02051"
       r="149.91406"
       gradientTransform="matrix(1,0,0,2.2178006,0,-753.84353)"
       gradientUnits="userSpaceOnUse" />
  </defs>
  <sodipodi:namedview
     id="base"
     pagecolor="#ffffff"
     bordercolor="#666666"
     borderopacity="1.0"
     inkscape:pageopacity="0.0"
     inkscape:pageshadow="2"
     inkscape:zoom="0.51548958"
     inkscape:cx="579.76923"
     inkscape:cy="496.06933"
     inkscape:document-units="mm"
     inkscape:current-layer="layer1"
     showgrid="false"
     inkscape:window-width="1680"
     inkscape:window-height="984"
     inkscape:window-x="-8"
     inkscape:window-y="-8"
     inkscape:window-maximized="1"
     units="px"
     inkscape:snap-nodes="true"
     inkscape:snap-others="false"
     inkscape:snap-bbox="true"
     inkscape:snap-to-guides="false"
     inkscape:snap-grids="false"
     inkscape:snap-global="false"
     showguides="false">
    <inkscape:grid
       type="xygrid"
       id="grid4577" />
  </sodipodi:namedview>
  <metadata
     id="metadata4572">
    <rdf:RDF>
      <cc:Work
         rdf:about="">
        <dc:format>image/svg+xml</dc:format>
        <dc:type
           rdf:resource="http://purl.org/dc/dcmitype/StillImage" />
        <dc:title></dc:title>
      </cc:Work>
    </rdf:RDF>
  </metadata>
  <g
     inkscape:label="Layer 1"
     inkscape:groupmode="layer"
     id="layer1"
     transform="translate(0,-49.614567)">
    <path
       style="opacity:1;fill:#f4e3d7;fill-opacity:1;stroke:none;stroke-width:4.92156363;stroke-linecap:round;stroke-linejoin:round;stroke-miterlimit:4;stroke-dasharray:none;stroke-opacity:1"
       d="M 338.33008 -8.78125 L -8.2695312 -8.78125 L -8.2695312 341.21289 C -7.7021091 337.97331 -7.139913 334.34971 -6.5644531 331.14453 C -3.9686865 316.68672 -1.2788275 302.58081 1.625 288.84375 C 3.0769138 281.97522 4.5829611 275.19758 6.15625 268.51562 C 7.7295389 261.83367 9.3695127 255.24698 11.09375 248.75586 C 12.817987 242.26474 14.626491 235.87025 16.53125 229.57422 C 18.436009 223.27819 20.43788 217.08106 22.552734 210.98438 C 24.667588 204.88769 26.895478 198.89112 29.25 192.99805 C 31.604522 187.10497 34.085221 181.31412 36.708984 175.62891 C 39.332748 169.94369 42.098906 164.36372 45.021484 158.89062 C 47.944063 153.41753 51.022471 148.05164 54.273438 142.79492 C 57.524404 137.5382 60.947713 132.39156 64.556641 127.35547 C 68.165568 122.31938 71.960569 117.39518 75.957031 112.58398 C 79.953494 107.77279 84.150883 103.07423 88.564453 98.492188 C 92.978023 93.91014 97.608498 89.444345 102.46875 85.095703 C 107.329 80.747062 112.41935 76.515275 117.75586 72.404297 C 123.09237 68.293318 128.67524 64.302652 134.51758 60.433594 C 140.35991 56.564535 146.46211 52.818193 152.83984 49.195312 C 159.21758 45.572432 165.86979 42.073618 172.8125 38.701172 C 179.75521 35.328726 186.98813 32.082598 194.52539 28.964844 C 202.06265 25.84709 209.90503 22.856852 218.06641 19.998047 C 226.22778 17.139242 234.70837 14.412004 243.52344 11.816406 C 252.33851 9.2208081 261.48799 6.7578217 270.98633 4.4296875 C 280.48467 2.1015533 290.33179 -0.092024476 300.54297 -2.1484375 C 310.75415 -4.2048505 321.32961 -6.1258154 332.2832 -7.90625 C 334.23062 -8.2227895 336.35865 -8.473513 338.33008 -8.78125 z "
       id="path4558"
       transform="matrix(0.26458333,0,0,0.26458333,0,49.614567)" />
    <path
       style="opacity:1;fill:#eef4d7;fill-opacity:1;stroke:none;stroke-width:4.92156363;stroke-linecap:round;stroke-linejoin:round;stroke-miterlimit:4;stroke-dasharray:none;stroke-opacity:1"
       d="M 214.05273 951.5 C 209.14568 950.43212 204.24439 949.36122 199.54297 948.19336 C 193.35563 946.65639 187.34416 945.03257 181.50391 943.32422 C 175.66365 941.61587 169.99373 939.823 164.49023 937.94531 C 158.98674 936.06762 153.64971 934.10554 148.47266 932.06055 C 143.29561 930.01556 138.27889 927.88799 133.41797 925.67773 C 128.55705 923.46748 123.85199 921.17426 119.29688 918.80078 C 114.74176 916.4273 110.33579 913.97217 106.07617 911.4375 C 101.81655 908.90283 97.702959 906.28953 93.728516 903.5957 C 89.754073 900.90187 85.920287 898.12829 82.220703 895.27734 C 78.521119 892.4264 74.954574 889.49821 71.519531 886.49219 C 68.084489 883.48616 64.780427 880.40321 61.599609 877.24414 C 58.418791 874.08507 55.362692 870.84914 52.425781 867.53906 C 49.48887 864.22899 46.670118 860.84381 43.966797 857.38477 C 41.263476 853.92572 38.675361 850.39309 36.195312 846.78711 C 33.715264 843.18113 31.343265 839.50283 29.076172 835.75195 C 26.809079 832.00108 24.646486 828.17694 22.582031 824.2832 C 20.517577 820.38947 18.551821 816.42518 16.679688 812.39062 C 14.807554 808.35607 13.029973 804.25147 11.339844 800.07812 C 9.6497143 795.90478 8.0477397 791.66361 6.5292969 787.35352 C 5.010854 783.04342 3.5758234 778.66551 2.21875 774.2207 C 0.86167657 769.7759 -0.41897875 765.26303 -1.625 760.68555 C -4.0370425 751.53058 -6.1556535 742.1129 -8.0253906 732.43945 C -8.118594 731.95725 -8.1775678 731.43855 -8.2695312 730.95508 L -8.2695312 951.5 L 214.05273 951.5 z "
       id="path4563"
       transform="matrix(0.26458333,0,0,0.26458333,0,49.614567)" />
    <path
       style="opacity:1;fill:url(#linearGradient4679);fill-opacity:1;stroke:none;stroke-width:4.92156363;stroke-linecap:round;stroke-linejoin:round;stroke-miterlimit:4;stroke-dasharray:none;stroke-opacity:1"
       d="M 472.38477 690.88672 C 471.67822 691.1226 471.065 691.30578 470.35547 691.54297 C 470.3127 691.56999 470.26737 691.5921 470.22461 691.61914 C 464.32397 695.35026 458.52964 699.28015 452.85352 703.40625 C 447.1774 707.53235 441.61865 711.8539 436.19141 716.37109 C 430.76416 720.88829 425.46847 725.59949 420.31445 730.50391 C 415.16044 735.40832 410.14745 740.50523 405.29102 745.79297 C 400.43458 751.08071 395.73372 756.55938 391.19922 762.22656 C 386.66472 767.89374 382.29757 773.75023 378.10938 779.79297 C 373.92116 785.83571 369.91132 792.06606 366.09375 798.48047 C 362.27618 804.89488 358.6511 811.4932 355.22852 818.27539 C 351.80593 825.05758 348.58722 832.02383 345.58398 839.16992 C 342.58075 846.31601 339.79196 853.64233 337.23242 861.14844 C 334.67289 868.65455 332.34148 876.33894 330.25 884.20117 C 328.15852 892.06341 326.30806 900.10388 324.70898 908.31836 C 323.1099 916.53284 321.76201 924.92154 320.67969 933.48438 C 319.93566 939.37073 319.49207 945.45055 319.00195 951.5 L 370.03516 951.5 C 369.91091 950.76922 369.75248 950.05389 369.63477 949.32031 C 369.05142 945.68502 368.54869 942.0154 368.12891 938.31445 C 367.70912 934.61351 367.37218 930.88044 367.12109 927.11914 C 366.87001 923.35785 366.7042 919.56829 366.62695 915.75195 C 366.5497 911.93561 366.56039 908.09264 366.66211 904.22656 C 366.76383 900.36048 366.95635 896.47106 367.24219 892.56055 C 367.52802 888.65003 367.90773 884.71918 368.38281 880.76953 C 368.8579 876.81989 369.42818 872.85261 370.09766 868.86914 C 370.76713 864.88567 371.5353 860.88504 372.4043 856.87305 C 373.2733 852.86105 374.24469 848.83794 375.31836 844.80273 C 376.39202 840.76752 377.5681 836.72109 378.85156 832.66797 C 380.13503 828.61485 381.52503 824.55401 383.02344 820.48828 C 384.52184 816.42255 386.12917 812.35233 387.84766 808.2793 C 389.56614 804.20627 391.39614 800.12972 393.33984 796.05469 C 395.28354 791.97966 397.34157 787.9057 399.51562 783.83398 C 401.68968 779.76226 403.97913 775.69397 406.38867 771.63086 C 408.79822 767.56775 411.32639 763.51013 413.97656 759.46094 C 416.62674 755.41175 419.39898 751.36981 422.29492 747.33984 C 425.19086 743.30987 428.21058 739.29255 431.35742 735.28711 C 434.50427 731.28167 437.77875 727.28811 441.18164 723.3125 C 444.58453 719.33689 448.11718 715.37798 451.78125 711.4375 C 455.44532 707.49702 459.23953 703.57582 463.16992 699.67578 C 466.13937 696.72926 469.26073 693.8075 472.38477 690.88672 z "
       id="path4614"
       transform="matrix(0.26458333,0,0,0.26458333,0,49.614567)" />
    <path
       style="opacity:1;fill:url(#linearGradient4703);fill-opacity:1;stroke:none;stroke-width:4.92156363;stroke-linecap:round;stroke-linejoin:round;stroke-miterlimit:4;stroke-dasharray:none;stroke-opacity:1"
       d="M 472.38477 690.88672 C 469.26073 693.8075 466.13937 696.72926 463.16992 699.67578 C 459.23953 703.57582 455.44532 707.49702 451.78125 711.4375 C 448.11718 715.37798 444.58453 719.33689 441.18164 723.3125 C 437.77875 727.28811 434.50427 731.28167 431.35742 735.28711 C 428.21058 739.29255 425.19086 743.30987 422.29492 747.33984 C 419.39898 751.36981 416.62674 755.41175 413.97656 759.46094 C 411.32639 763.51013 408.79822 767.56775 406.38867 771.63086 C 403.97913 775.69397 401.68968 779.76226 399.51562 783.83398 C 397.34157 787.9057 395.28354 791.97966 393.33984 796.05469 C 391.39614 800.12972 389.56614 804.20627 387.84766 808.2793 C 386.12917 812.35233 384.52184 816.42255 383.02344 820.48828 C 381.52503 824.55401 380.13503 828.61485 378.85156 832.66797 C 377.5681 836.72109 376.39202 840.76752 375.31836 844.80273 C 374.24469 848.83794 373.2733 852.86105 372.4043 856.87305 C 371.5353 860.88504 370.76713 864.88567 370.09766 868.86914 C 369.42818 872.85261 368.8579 876.81989 368.38281 880.76953 C 367.90773 884.71918 367.52802 888.65003 367.24219 892.56055 C 366.95635 896.47106 366.76383 900.36048 366.66211 904.22656 C 366.56039 908.09264 366.5497 911.93561 366.62695 915.75195 C 366.7042 919.56829 366.87001 923.35785 367.12109 927.11914 C 367.37218 930.88044 367.70912 934.61351 368.12891 938.31445 C 368.54869 942.0154 369.05142 945.68502 369.63477 949.32031 C 369.75248 950.05389 369.91091 950.76922 370.03516 951.5 L 1179.1094 951.5 C 1172.7741 949.50224 1166.3805 947.52506 1160.3281 945.41406 C 1151.5064 942.33712 1143.074 939.16206 1135.291 935.95312 C 1131.3995 934.34867 1127.6711 932.7344 1124.1367 931.12109 C 1120.6023 929.50779 1117.2628 927.89511 1114.1504 926.28906 C 1111.038 924.68301 1108.1529 923.08464 1105.5273 921.50195 C 1102.9018 919.91927 1100.5346 918.35182 1098.4609 916.80859 C 1093.3174 912.98087 1088.427 909.09403 1083.7441 905.18359 C 1079.0613 901.27316 1074.587 897.33859 1070.2754 893.41992 C 1061.6522 885.58259 1053.682 877.80423 1046.0078 870.38086 C 1042.1707 866.66918 1038.4077 863.0453 1034.6738 859.54883 C 1030.94 856.05236 1027.2357 852.68334 1023.5156 849.47656 C 1019.7956 846.26978 1016.0592 843.22542 1012.2637 840.38281 C 1008.4681 837.54021 1004.6128 834.89809 1000.6523 832.49414 C 996.69194 830.09019 993.67269 828.50318 991.35352 827.54688 C 990.19393 827.06872 989.20827 826.7474 988.36914 826.5625 C 987.53001 826.3776 986.83638 826.32805 986.25781 826.39062 C 985.67924 826.45321 985.21581 826.62828 984.83789 826.89258 C 984.45997 827.15688 984.16882 827.51139 983.93164 827.93164 C 983.45728 828.77214 983.20441 829.87869 982.93359 831.06836 C 982.66278 832.25803 982.37268 833.53044 981.82617 834.70312 C 981.55292 835.28947 981.21524 835.84983 980.7832 836.36328 C 980.35117 836.87673 979.82455 837.3435 979.17383 837.73828 C 978.52311 838.13306 977.74963 838.45715 976.82031 838.6875 C 975.891 838.91785 974.80687 839.05408 973.53906 839.07422 C 972.27125 839.09436 970.81856 838.99755 969.15234 838.76172 C 967.48613 838.52588 965.60694 838.15086 963.48242 837.61328 C 960.99454 836.98376 958.53478 836.25627 956.10156 835.43555 C 953.66834 834.61482 951.25993 833.70098 948.87891 832.70312 C 944.11685 830.70742 939.45672 828.37178 934.88867 825.75195 C 930.32062 823.13213 925.84491 820.22904 921.45117 817.09766 C 917.05743 813.96627 912.74694 810.60656 908.50781 807.07617 C 904.26868 803.54579 900.10226 799.84417 895.99805 796.02734 C 891.89384 792.21052 887.85227 788.27782 883.86328 784.28711 C 875.8853 776.30568 868.11768 768.08952 860.48242 760.08789 C 852.84717 752.08626 845.34268 744.29911 837.89258 737.17773 C 834.16753 733.61705 830.45635 730.22257 826.74805 727.05078 C 823.03974 723.87899 819.3343 720.9301 815.62305 718.25977 C 811.9118 715.58943 808.19483 713.1989 804.46094 711.14258 C 802.59399 710.11442 800.72396 709.16996 798.84766 708.31641 C 796.97135 707.46285 795.08929 706.70003 793.20117 706.03516 C 791.31305 705.37028 789.41802 704.80197 787.51562 704.33984 C 785.61324 703.87772 783.70234 703.5207 781.7832 703.27539 C 779.86407 703.03008 777.93638 702.89724 775.99805 702.88281 C 774.05971 702.86839 772.11234 702.9726 770.15234 703.20312 C 770.49629 708.06922 770.90738 712.06082 770.94141 714.97461 C 770.95842 716.43151 770.88028 717.61904 770.65234 718.51172 C 770.42441 719.4044 770.04742 720.00159 769.46289 720.2793 C 768.87836 720.55701 768.08793 720.51497 767.03516 720.12695 C 765.98239 719.73893 764.66781 719.00685 763.03516 717.90234 C 759.76984 715.69332 755.2313 711.99867 748.97656 706.61914 C 745.84937 703.93982 742.73866 701.38472 739.64062 698.94727 C 736.5426 696.50981 733.45851 694.19102 730.38477 691.98828 C 727.31103 689.78554 724.24767 687.69784 721.19336 685.72266 C 718.13904 683.74747 715.09249 681.88565 712.05273 680.13086 C 709.01298 678.37607 705.97928 676.72905 702.94922 675.1875 C 699.91915 673.64595 696.89438 672.20851 693.86914 670.87305 C 690.8439 669.53758 687.81825 668.3045 684.79297 667.16797 C 681.76769 666.03143 678.74113 664.99163 675.71094 664.04688 C 672.68075 663.10211 669.64739 662.25234 666.60742 661.49219 C 663.56745 660.73204 660.52141 660.06121 657.4668 659.47852 C 654.41219 658.89582 651.34951 658.40068 648.27539 657.98828 C 645.20127 657.57589 642.11608 657.2473 639.01758 656.99805 C 632.82058 656.49954 626.5698 656.32051 620.24609 656.43164 C 613.92239 656.54277 607.52646 656.94392 601.03711 657.60742 C 594.54776 658.27093 587.96541 659.19684 581.27148 660.35547 C 574.57756 661.5141 567.77142 662.90546 560.83398 664.50195 C 553.89655 666.09845 546.82731 667.89985 539.60742 669.87695 C 532.38753 671.85406 525.01784 674.00618 517.47656 676.30664 C 503.14332 680.679 488.08429 685.6455 472.38477 690.88672 z "
       id="path4609"
       transform="matrix(0.26458333,0,0,0.26458333,0,49.614567)" />
    <path
       style="opacity:1;fill:url(#linearGradient4647);fill-opacity:1;stroke:none;stroke-width:4.92156363;stroke-linecap:round;stroke-linejoin:round;stroke-miterlimit:4;stroke-dasharray:none;stroke-opacity:1"
       d="M 646.46484 640.52148 C 639.63938 640.52291 632.81035 640.7405 625.99023 641.17188 C 619.17012 641.60324 612.35877 642.24803 605.56836 643.10547 C 598.77794 643.96291 592.00785 645.03288 585.27148 646.3125 C 578.53512 647.59212 571.83179 649.08138 565.17383 650.7793 C 558.51587 652.47721 551.90286 654.38376 545.34766 656.49609 C 538.79245 658.60842 532.29528 660.92636 525.86719 663.44922 C 519.4391 665.97207 513.08132 668.69941 506.80469 671.62891 C 500.52806 674.5584 494.33323 677.69119 488.23242 681.02344 C 482.17582 684.33154 476.21487 687.84175 470.35547 691.54297 C 486.83093 686.03547 502.49826 680.87577 517.47656 676.30664 C 525.01784 674.00618 532.38753 671.85406 539.60742 669.87695 C 546.82731 667.89985 553.89655 666.09845 560.83398 664.50195 C 567.77142 662.90546 574.57756 661.5141 581.27148 660.35547 C 587.96541 659.19684 594.54776 658.27093 601.03711 657.60742 C 607.52646 656.94392 613.92239 656.54277 620.24609 656.43164 C 626.5698 656.32051 632.82058 656.49954 639.01758 656.99805 C 642.11608 657.2473 645.20127 657.57589 648.27539 657.98828 C 651.34951 658.40068 654.41219 658.89582 657.4668 659.47852 C 660.52141 660.06121 663.56745 660.73204 666.60742 661.49219 C 669.64739 662.25234 672.68075 663.10211 675.71094 664.04688 C 678.74113 664.99164 681.76769 666.03143 684.79297 667.16797 C 687.81825 668.3045 690.8439 669.53758 693.86914 670.87305 C 696.89438 672.20851 699.91915 673.64595 702.94922 675.1875 C 705.97928 676.72905 709.01298 678.37607 712.05273 680.13086 C 715.09249 681.88565 718.13904 683.74747 721.19336 685.72266 C 724.24767 687.69784 727.31103 689.78554 730.38477 691.98828 C 733.45851 694.19102 736.54259 696.50981 739.64062 698.94727 C 742.73866 701.38472 745.84937 703.93982 748.97656 706.61914 C 755.2313 711.99867 759.76984 715.69332 763.03516 717.90234 C 764.66781 719.00685 765.98239 719.73893 767.03516 720.12695 C 768.08793 720.51497 768.87836 720.55701 769.46289 720.2793 C 770.04742 720.00159 770.42441 719.4044 770.65234 718.51172 C 770.88028 717.61904 770.95842 716.43151 770.94141 714.97461 C 770.90738 712.06082 770.49629 708.06922 770.15234 703.20312 C 772.11234 702.97259 774.05971 702.86839 775.99805 702.88281 C 777.93638 702.89724 779.86407 703.03008 781.7832 703.27539 C 783.70234 703.5207 785.61323 703.87772 787.51562 704.33984 C 789.41802 704.80197 791.31305 705.37028 793.20117 706.03516 C 795.08929 706.70003 796.97135 707.46285 798.84766 708.31641 C 800.72396 709.16996 802.59399 710.11442 804.46094 711.14258 C 808.19483 713.1989 811.9118 715.58943 815.62305 718.25977 C 819.3343 720.9301 823.03974 723.87899 826.74805 727.05078 C 830.45635 730.22257 834.16753 733.61705 837.89258 737.17773 C 845.34268 744.29911 852.84717 752.08626 860.48242 760.08789 C 868.11768 768.08952 875.8853 776.30568 883.86328 784.28711 C 887.85227 788.27782 891.89384 792.21052 895.99805 796.02734 C 900.10226 799.84417 904.26868 803.54579 908.50781 807.07617 C 912.74694 810.60656 917.05743 813.96627 921.45117 817.09766 C 925.84491 820.22904 930.32062 823.13213 934.88867 825.75195 C 939.45672 828.37178 944.11685 830.70741 948.87891 832.70312 C 951.25993 833.70098 953.66834 834.61482 956.10156 835.43555 C 958.53478 836.25627 960.99454 836.98376 963.48242 837.61328 C 965.60694 838.15086 967.48613 838.52588 969.15234 838.76172 C 970.81856 838.99755 972.27125 839.09436 973.53906 839.07422 C 974.80687 839.05408 975.891 838.91785 976.82031 838.6875 C 977.74963 838.45715 978.52311 838.13306 979.17383 837.73828 C 979.82455 837.3435 980.35117 836.87673 980.7832 836.36328 C 981.21524 835.84983 981.55292 835.28947 981.82617 834.70312 C 982.37268 833.53043 982.66278 832.25803 982.93359 831.06836 C 983.20441 829.87869 983.45728 828.77214 983.93164 827.93164 C 984.16882 827.51139 984.45997 827.15688 984.83789 826.89258 C 985.21581 826.62828 985.67924 826.45321 986.25781 826.39062 C 986.83638 826.32804 987.53001 826.3776 988.36914 826.5625 C 989.20827 826.7474 990.19393 827.06872 991.35352 827.54688 C 993.67269 828.50319 996.6919 830.09019 1000.6523 832.49414 C 1004.6128 834.89809 1008.4681 837.54021 1012.2637 840.38281 C 1016.0592 843.22542 1019.7956 846.26978 1023.5156 849.47656 C 1027.2357 852.68334 1030.94 856.05236 1034.6738 859.54883 C 1038.4077 863.0453 1042.1707 866.66918 1046.0078 870.38086 C 1053.682 877.80423 1061.6522 885.58259 1070.2754 893.41992 C 1074.587 897.33859 1079.0613 901.27316 1083.7441 905.18359 C 1088.427 909.09403 1093.3174 912.98087 1098.4609 916.80859 C 1100.5346 918.35182 1102.9018 919.91927 1105.5273 921.50195 C 1108.1529 923.08464 1111.038 924.68301 1114.1504 926.28906 C 1117.2628 927.89511 1120.6023 929.50779 1124.1367 931.12109 C 1127.6711 932.7344 1131.3995 934.34866 1135.291 935.95312 C 1143.074 939.16206 1151.5064 942.33712 1160.3281 945.41406 C 1166.3805 947.52506 1172.7741 949.50224 1179.1094 951.5 L 1467.7773 951.5 L 1467.7773 897.21875 C 1464.9233 897.51499 1461.9957 897.88465 1459.166 898.15625 C 1449.7803 899.0571 1440.5277 899.82152 1431.4023 900.45508 C 1422.277 901.08863 1413.2787 901.59071 1404.4023 901.96289 C 1395.526 902.33507 1386.7714 902.57857 1378.1328 902.69531 C 1369.4942 902.81205 1360.9708 902.80075 1352.5586 902.66797 C 1344.1464 902.53519 1335.8455 902.28067 1327.6484 901.9043 C 1319.4514 901.52792 1311.3584 901.03006 1303.3652 900.41602 C 1295.372 899.80197 1287.4784 899.07039 1279.6777 898.22461 C 1271.8771 897.37882 1264.1702 896.41926 1256.5508 895.34766 C 1248.9314 894.27605 1241.3986 893.09228 1233.9492 891.80078 C 1226.4998 890.50928 1219.1325 889.11093 1211.8418 887.60547 C 1204.5511 886.1 1197.3367 884.4889 1190.1934 882.77539 C 1183.05 881.06188 1175.978 879.2457 1168.9707 877.33008 C 1161.9634 875.41445 1155.0211 873.39893 1148.1387 871.28711 C 1141.2562 869.17529 1134.435 866.96615 1127.666 864.66406 C 1120.8971 862.36198 1114.1804 859.9669 1107.5137 857.48047 C 1100.8469 854.99404 1094.2301 852.4168 1087.6543 849.75195 C 1081.0785 847.08711 1074.545 844.33538 1068.0488 841.49805 C 1061.5526 838.66071 1055.0919 835.73827 1048.6641 832.73438 C 1042.2362 829.73047 1035.8415 826.64501 1029.4707 823.48047 C 1023.0999 820.31592 1016.7548 817.07121 1010.4297 813.75195 C 997.77954 807.11343 985.20874 800.17301 972.67383 792.95117 C 960.13892 785.72933 947.63893 778.2265 935.12891 770.46875 C 922.61889 762.711 910.09892 754.69744 897.52344 746.45117 C 884.94796 738.20491 872.31722 729.72644 859.58594 721.03906 C 846.85466 712.35169 834.02235 703.45609 821.04492 694.375 C 815.26723 690.33201 809.37628 686.52143 803.38477 682.94336 C 797.39325 679.36529 791.30209 676.01938 785.12109 672.90234 C 778.9401 669.78531 772.67034 666.89817 766.32422 664.23828 C 759.9781 661.57839 753.55525 659.14608 747.06836 656.93945 C 740.58147 654.73283 734.03105 652.75138 727.42773 650.99414 C 720.82442 649.2369 714.16803 647.70237 707.47266 646.39062 C 700.77728 645.07889 694.04239 643.98928 687.2793 643.11914 C 680.51621 642.249 673.72442 641.59843 666.91797 641.16602 C 660.11152 640.7336 653.2903 640.52006 646.46484 640.52148 z "
       id="path4583"
       transform="matrix(0.26458333,0,0,0.26458333,0,49.614567)" />
    <path
       style="opacity:1;fill:url(#radialGradient4723);fill-opacity:1;stroke:none;stroke-width:4.92156363;stroke-linecap:round;stroke-linejoin:round;stroke-miterlimit:4;stroke-dasharray:none;stroke-opacity:1"
       d="M 264.80273 286.54102 C 264.4596 286.58346 264.1104 286.6091 263.76758 286.65234 C 258.76377 287.28359 253.79275 287.9993 248.85742 288.80273 C 243.92209 289.60617 239.02349 290.49657 234.16211 291.47461 C 229.30072 292.45265 224.47729 293.51879 219.69531 294.67383 C 214.91334 295.82887 210.1717 297.07376 205.47461 298.4082 C 200.77752 299.74265 196.12432 301.16734 191.51758 302.68359 C 186.91084 304.19985 182.35077 305.80735 177.83984 307.50781 C 173.32892 309.20828 168.86862 311.00159 164.45898 312.88867 C 160.04934 314.77575 155.69156 316.75593 151.38867 318.83203 C 147.08579 320.90813 142.83715 323.08014 138.64648 325.34766 C 134.45582 327.61517 130.32298 329.97811 126.25 332.43945 C 122.17702 334.90079 118.16271 337.45962 114.21289 340.11719 C 110.26307 342.77475 106.37783 345.53052 102.55664 348.38672 C 98.735452 351.24292 94.980065 354.20058 91.292969 357.25781 C 87.605873 360.31504 83.986987 363.47176 80.439453 366.73242 C 76.89192 369.99309 73.414221 373.35772 70.011719 376.82422 C 66.609216 380.29072 63.281301 383.86041 60.029297 387.53516 C 56.777293 391.2099 53.601896 394.98961 50.505859 398.875 C 47.409823 402.76039 44.393586 406.75117 41.458984 410.84961 C 38.524383 414.94805 35.671995 419.15291 32.904297 423.4668 C 30.136599 427.78068 27.452748 432.20263 24.857422 436.73438 C 22.262096 441.2661 19.755377 445.90816 17.337891 450.66016 C 14.920404 455.41215 12.5916 460.27534 10.357422 465.25 C 8.1232435 470.22466 5.982902 475.31004 3.9375 480.50977 C 1.892098 485.70949 -0.057045654 491.02398 -1.9082031 496.45117 C -3.7593607 501.87836 -5.5126175 507.41912 -7.1640625 513.07617 C -7.5568521 514.42168 -7.8882312 515.83672 -8.2695312 517.19531 L -8.2695312 730.95508 C -8.1775681 731.43855 -8.118594 731.95725 -8.0253906 732.43945 C -6.1556535 742.1129 -4.0370425 751.53058 -1.625 760.68555 C -0.41897881 765.26303 0.86167663 769.7759 2.21875 774.2207 C 3.5758234 778.66551 5.010854 783.04342 6.5292969 787.35352 C 8.0477397 791.66361 9.6497137 795.90481 11.339844 800.07812 C 13.029973 804.25147 14.807554 808.3561 16.679688 812.39062 C 18.551818 816.42518 20.517577 820.38947 22.582031 824.2832 C 24.646486 828.17694 26.809079 832.00108 29.076172 835.75195 C 31.343265 839.50283 33.715267 843.18113 36.195312 846.78711 C 38.675361 850.39309 41.263476 853.92572 43.966797 857.38477 C 46.670118 860.84381 49.48887 864.22899 52.425781 867.53906 C 55.362692 870.84914 58.418791 874.08507 61.599609 877.24414 C 64.780427 880.40321 68.084489 883.48616 71.519531 886.49219 C 74.954574 889.49821 78.521119 892.4264 82.220703 895.27734 C 85.920287 898.12829 89.754073 900.90187 93.728516 903.5957 C 97.702959 906.28953 101.81655 908.90283 106.07617 911.4375 C 110.33579 913.97217 114.74176 916.4273 119.29688 918.80078 C 123.85196 921.17426 128.55705 923.46748 133.41797 925.67773 C 138.27889 927.88799 143.29561 930.01556 148.47266 932.06055 C 153.64971 934.10554 158.98674 936.06762 164.49023 937.94531 C 169.99373 939.823 175.66365 941.61587 181.50391 943.32422 C 187.34416 945.03257 193.35563 946.65639 199.54297 948.19336 C 204.24439 949.36122 209.14568 950.43212 214.05273 951.5 L 291.55859 951.5 C 288.79893 949.81211 286.0004 948.15825 283.2793 946.4375 C 277.82478 942.98822 272.44793 939.4734 267.15039 935.89648 C 261.85285 932.31957 256.63586 928.67918 251.49805 924.98047 C 246.36023 921.28175 241.30153 917.52366 236.32617 913.70898 C 231.35082 909.89431 226.45859 906.0244 221.64844 902.09961 C 216.83829 898.17482 212.11095 894.19508 207.46875 890.16602 C 202.82655 886.13696 198.26839 882.05718 193.79688 877.92969 C 189.32536 873.8022 184.94066 869.62828 180.64258 865.4082 C 176.34449 861.18812 172.13364 856.92206 168.01172 852.61523 C 163.8898 848.30841 159.85707 843.96 155.91406 839.57227 C 151.97106 835.18453 148.11682 830.75772 144.35547 826.29492 C 140.59411 821.83213 136.92462 817.3328 133.34766 812.80078 C 129.7707 808.26877 126.28631 803.70477 122.89648 799.10938 C 119.50666 794.51398 116.21167 789.88731 113.01172 785.23438 C 109.81177 780.58144 106.70851 775.90189 103.70117 771.19727 C 100.69384 766.49264 97.782679 761.76415 94.970703 757.01367 C 92.158728 752.26319 89.445908 747.49166 86.832031 742.70117 C 84.218155 737.91068 81.704052 733.10005 79.291016 728.27539 C 76.87798 723.45073 74.564923 718.6108 72.355469 713.75781 C 70.146014 708.90483 68.040241 704.03953 66.037109 699.16406 C 64.033978 694.28859 62.133911 689.40383 60.339844 684.51172 C 58.545776 679.61961 56.857653 674.71932 55.275391 669.81641 C 53.693128 664.91349 52.217325 660.00748 50.849609 655.09961 C 49.481894 650.19174 48.220741 645.28199 47.070312 640.375 C 45.919884 635.46801 44.879618 630.56433 43.949219 625.66406 C 43.018819 620.7638 42.199817 615.86816 41.492188 610.98047 C 40.784558 606.09277 40.18915 601.21304 39.707031 596.34375 C 39.224913 591.47446 38.855429 586.61457 38.601562 581.76953 C 38.347696 576.9245 38.208419 572.09424 38.185547 567.2793 C 38.162674 562.46436 38.255935 557.66572 38.466797 552.88672 C 38.677659 548.10771 39.005787 543.34856 39.453125 538.61133 C 39.900463 533.8741 40.467742 529.15836 41.154297 524.46875 C 41.840852 519.77914 42.647658 515.11466 43.576172 510.47852 C 44.504685 505.84237 45.55335 501.23505 46.726562 496.6582 C 47.899775 492.08136 49.196534 487.53514 50.617188 483.02344 C 52.037841 478.51174 53.583071 474.03446 55.253906 469.59375 C 56.924742 465.15304 58.720773 460.74865 60.644531 456.38477 C 62.56829 452.02089 64.619406 447.69722 66.798828 443.41602 C 68.978251 439.13481 71.286781 434.89582 73.724609 430.70312 C 76.162437 426.51043 78.730713 422.36396 81.429688 418.26562 C 84.128662 414.16729 86.959013 410.11728 89.921875 406.11914 C 92.884737 402.121 95.979493 398.1753 99.208984 394.2832 C 102.43848 390.3911 105.80192 386.55366 109.30078 382.77344 C 112.79964 378.99322 116.43411 375.26992 120.20508 371.60742 C 123.97605 367.94493 127.88386 364.34166 131.92969 360.80273 C 135.97551 357.2638 140.159 353.78843 144.48242 350.37891 C 148.80584 346.96938 153.26929 343.62584 157.87305 340.35156 C 162.4768 337.07729 167.22059 333.87341 172.10742 330.74023 C 176.99425 327.60705 182.02462 324.54484 187.19727 321.55859 C 192.36991 318.57235 197.68528 315.6616 203.14648 312.82812 C 208.60769 309.99465 214.21429 307.23931 219.9668 304.56445 C 225.7193 301.8896 231.61752 299.29555 237.66406 296.78516 C 243.71061 294.27476 249.90472 291.8479 256.24805 289.50781 C 259.03383 288.48012 261.95933 287.53505 264.80273 286.54102 z "
       id="path4599"
       transform="matrix(0.26458333,0,0,0.26458333,0,49.614567)" />
    <path
       style="opacity:1;fill:url(#linearGradient4663);fill-opacity:1;stroke:none;stroke-width:4.92156363;stroke-linecap:round;stroke-linejoin:round;stroke-miterlimit:4;stroke-dasharray:none;stroke-opacity:1"
       d="M 282.12109 284.77344 C 281.04258 284.86383 279.95075 284.9157 278.875 285.01367 C 274.15533 285.44351 269.46791 285.9639 264.80273 286.54102 C 261.95933 287.53505 259.03383 288.48012 256.24805 289.50781 C 249.90472 291.8479 243.71061 294.27476 237.66406 296.78516 C 231.61752 299.29555 225.7193 301.8896 219.9668 304.56445 C 214.21429 307.23931 208.60769 309.99466 203.14648 312.82812 C 197.68528 315.6616 192.36991 318.57235 187.19727 321.55859 C 182.02462 324.54484 176.99425 327.60705 172.10742 330.74023 C 167.22059 333.87341 162.4768 337.07729 157.87305 340.35156 C 153.26929 343.62584 148.80584 346.96938 144.48242 350.37891 C 140.159 353.78843 135.97551 357.2638 131.92969 360.80273 C 127.88386 364.34166 123.97605 367.94493 120.20508 371.60742 C 116.43411 375.26992 112.79964 378.99322 109.30078 382.77344 C 105.80192 386.55366 102.43848 390.3911 99.208984 394.2832 C 95.979493 398.1753 92.884737 402.121 89.921875 406.11914 C 86.959013 410.11728 84.128661 414.1673 81.429688 418.26562 C 78.730713 422.36396 76.162437 426.51044 73.724609 430.70312 C 71.286781 434.89582 68.978251 439.13481 66.798828 443.41602 C 64.619406 447.69722 62.56829 452.02089 60.644531 456.38477 C 58.720773 460.74865 56.924742 465.15304 55.253906 469.59375 C 53.583071 474.03446 52.03784 478.51174 50.617188 483.02344 C 49.196534 487.53514 47.899775 492.08136 46.726562 496.6582 C 45.553351 501.23505 44.504685 505.84237 43.576172 510.47852 C 42.647658 515.11466 41.840852 519.77914 41.154297 524.46875 C 40.467742 529.15836 39.900463 533.8741 39.453125 538.61133 C 39.005787 543.34856 38.677659 548.10771 38.466797 552.88672 C 38.255935 557.66572 38.162674 562.46436 38.185547 567.2793 C 38.208419 572.09424 38.347697 576.9245 38.601562 581.76953 C 38.855429 586.61457 39.224913 591.47446 39.707031 596.34375 C 40.18915 601.21304 40.784558 606.09277 41.492188 610.98047 C 42.199816 615.86816 43.018819 620.7638 43.949219 625.66406 C 44.879618 630.56433 45.919885 635.46801 47.070312 640.375 C 48.220741 645.28199 49.481894 650.19174 50.849609 655.09961 C 52.217325 660.00748 53.693128 664.91349 55.275391 669.81641 C 56.857653 674.71932 58.545776 679.61961 60.339844 684.51172 C 62.133911 689.40383 64.033978 694.28859 66.037109 699.16406 C 68.040241 704.03953 70.146014 708.90483 72.355469 713.75781 C 74.564923 718.6108 76.87798 723.45073 79.291016 728.27539 C 81.704052 733.10005 84.218155 737.91068 86.832031 742.70117 C 89.445908 747.49166 92.158728 752.26319 94.970703 757.01367 C 97.782679 761.76415 100.69384 766.49264 103.70117 771.19727 C 106.70851 775.90189 109.81177 780.58144 113.01172 785.23438 C 116.21167 789.8873 119.50666 794.51398 122.89648 799.10938 C 126.28631 803.70476 129.7707 808.26877 133.34766 812.80078 C 136.92462 817.3328 140.59411 821.83213 144.35547 826.29492 C 148.11682 830.75772 151.97106 835.18453 155.91406 839.57227 C 159.85707 843.96 163.8898 848.30841 168.01172 852.61523 C 172.13364 856.92206 176.34449 861.18812 180.64258 865.4082 C 184.94066 869.62828 189.32536 873.8022 193.79688 877.92969 C 198.26838 882.05718 202.82655 886.13696 207.46875 890.16602 C 212.11095 894.19508 216.83829 898.17482 221.64844 902.09961 C 226.45859 906.0244 231.35082 909.89431 236.32617 913.70898 C 241.30153 917.52366 246.36023 921.28175 251.49805 924.98047 C 256.63586 928.67918 261.85285 932.31957 267.15039 935.89648 C 272.44793 939.4734 277.82478 942.98822 283.2793 946.4375 C 286.0004 948.15825 288.79893 949.81211 291.55859 951.5 L 298.3125 951.5 C 295.43839 948.36185 292.52207 945.26891 289.67578 942.10352 C 282.77788 934.43225 275.96403 926.68278 269.25195 918.86328 C 262.53988 911.04379 255.93007 903.15417 249.43555 895.20312 C 242.94102 887.25208 236.56167 879.23973 230.31641 871.17383 C 224.07114 863.10793 217.95843 854.98829 211.99414 846.82422 C 206.02985 838.66015 200.2141 830.45258 194.5625 822.20703 C 188.9109 813.96148 183.42438 805.67948 178.11719 797.36914 C 172.80999 789.0588 167.68303 780.71977 162.75195 772.36133 C 157.82087 764.00288 153.08575 755.62424 148.5625 747.23438 C 144.03925 738.84451 139.72824 730.44365 135.64453 722.03906 C 131.56083 713.63447 127.70424 705.22685 124.0918 696.82422 C 120.47935 688.42159 117.10948 680.02265 114 671.63867 C 110.89052 663.25469 108.04159 654.88575 105.4668 646.53711 C 102.89201 638.18847 100.59238 629.86107 98.583984 621.56445 C 96.575593 613.26783 94.857544 605.00134 93.447266 596.77344 C 92.036988 588.54553 90.934748 580.35539 90.154297 572.21289 C 89.373846 564.07039 88.915785 555.97596 88.796875 547.93555 C 88.73742 543.91534 88.763123 539.90757 88.875 535.91602 C 88.986877 531.92446 89.185484 527.9491 89.472656 523.98828 C 89.759829 520.02746 90.13513 516.08229 90.601562 512.1543 C 91.067995 508.2263 91.625734 504.31496 92.275391 500.42188 C 92.925047 496.52879 93.667061 492.65297 94.503906 488.79688 C 95.340751 484.94078 96.272783 481.10412 97.300781 477.28711 C 98.328779 473.4701 99.452667 469.67428 100.67578 465.89844 C 101.8989 462.1226 103.22038 458.36735 104.64258 454.63477 C 106.06477 450.90218 107.58765 447.19115 109.21289 443.50391 C 110.83813 439.81666 112.56619 436.15349 114.39844 432.51367 C 116.23069 428.87385 118.16771 425.25828 120.21094 421.66797 C 122.25416 418.07766 124.40395 414.51137 126.66211 410.97266 C 128.92027 407.43394 131.28661 403.92253 133.76367 400.4375 C 136.24074 396.95247 138.82741 393.49371 141.52734 390.06445 C 144.22728 386.63519 147.04003 383.23469 149.9668 379.86328 C 152.89356 376.49188 155.93424 373.14935 159.0918 369.83789 C 162.24935 366.52643 165.5237 363.24553 168.91602 359.99609 C 172.30833 356.74666 175.81818 353.52907 179.44922 350.34375 C 183.08026 347.15843 186.8333 344.00584 190.70703 340.88672 C 194.58076 337.7676 198.57493 334.68169 202.69531 331.63086 C 206.81569 328.58002 211.06065 325.56445 215.43164 322.58398 C 219.80264 319.60352 224.30021 316.65801 228.92578 313.75 C 233.55136 310.84199 238.30533 307.97213 243.18945 305.13867 C 248.07357 302.30521 253.08775 299.50879 258.23438 296.75195 C 263.381 293.99512 268.66112 291.27773 274.07422 288.59961 C 276.69147 287.30473 279.44086 286.04955 282.12109 284.77344 z "
       id="path4604"
       transform="matrix(0.26458333,0,0,0.26458333,0,49.614567)" />
    <path
       style="opacity:1;fill:url(#linearGradient4671);fill-opacity:1;stroke:none;stroke-width:4.92156363;stroke-linecap:round;stroke-linejoin:round;stroke-miterlimit:4;stroke-dasharray:none;stroke-opacity:1"
       d="M 282.12109 284.77344 C 279.44086 286.04955 276.69147 287.30473 274.07422 288.59961 C 268.66112 291.27773 263.381 293.99512 258.23438 296.75195 C 253.08775 299.50879 248.07357 302.30521 243.18945 305.13867 C 238.30533 307.97213 233.55136 310.84199 228.92578 313.75 C 224.30021 316.65801 219.80264 319.60352 215.43164 322.58398 C 211.06065 325.56445 206.81569 328.58002 202.69531 331.63086 C 198.57493 334.68169 194.58076 337.7676 190.70703 340.88672 C 186.8333 344.00584 183.08026 347.15843 179.44922 350.34375 C 175.81818 353.52907 172.30833 356.74666 168.91602 359.99609 C 165.5237 363.24553 162.24935 366.52643 159.0918 369.83789 C 155.93424 373.14935 152.89356 376.49188 149.9668 379.86328 C 147.04003 383.23469 144.22728 386.63519 141.52734 390.06445 C 138.82741 393.49371 136.24074 396.95247 133.76367 400.4375 C 131.28661 403.92253 128.92027 407.43394 126.66211 410.97266 C 124.40395 414.51137 122.25416 418.07766 120.21094 421.66797 C 118.16771 425.25828 116.23069 428.87385 114.39844 432.51367 C 112.56619 436.15349 110.83813 439.81666 109.21289 443.50391 C 107.58765 447.19115 106.06477 450.90218 104.64258 454.63477 C 103.22038 458.36735 101.8989 462.1226 100.67578 465.89844 C 99.452667 469.67428 98.328779 473.4701 97.300781 477.28711 C 96.272783 481.10412 95.340751 484.94078 94.503906 488.79688 C 93.667061 492.65297 92.925047 496.52879 92.275391 500.42188 C 91.625734 504.31496 91.067995 508.2263 90.601562 512.1543 C 90.13513 516.08229 89.759829 520.02746 89.472656 523.98828 C 89.185484 527.9491 88.986877 531.92446 88.875 535.91602 C 88.763123 539.90757 88.73742 543.91534 88.796875 547.93555 C 88.915785 555.97596 89.373846 564.07039 90.154297 572.21289 C 90.934748 580.35539 92.036988 588.54553 93.447266 596.77344 C 94.857544 605.00134 96.575593 613.26783 98.583984 621.56445 C 100.59238 629.86107 102.89201 638.18847 105.4668 646.53711 C 108.04159 654.88575 110.89052 663.25469 114 671.63867 C 117.10948 680.02265 120.47935 688.42159 124.0918 696.82422 C 127.70424 705.22685 131.56083 713.63447 135.64453 722.03906 C 139.72824 730.44365 144.03925 738.84451 148.5625 747.23438 C 153.08575 755.62424 157.82087 764.00288 162.75195 772.36133 C 167.68303 780.71977 172.80999 789.0588 178.11719 797.36914 C 183.42438 805.67948 188.9109 813.96148 194.5625 822.20703 C 200.2141 830.45258 206.02985 838.66015 211.99414 846.82422 C 217.95843 854.98829 224.07114 863.10793 230.31641 871.17383 C 236.56167 879.23973 242.94102 887.25208 249.43555 895.20312 C 255.93007 903.15417 262.53988 911.04379 269.25195 918.86328 C 275.96403 926.68278 282.77788 934.43225 289.67578 942.10352 C 292.52207 945.26891 295.43839 948.36185 298.3125 951.5 L 319.00195 951.5 C 319.49207 945.45055 319.93566 939.37073 320.67969 933.48438 C 321.76201 924.92154 323.1099 916.53284 324.70898 908.31836 C 326.30806 900.10388 328.15852 892.06341 330.25 884.20117 C 332.34148 876.33894 334.67289 868.65455 337.23242 861.14844 C 339.79196 853.64233 342.58075 846.31601 345.58398 839.16992 C 348.58722 832.02383 351.80593 825.05758 355.22852 818.27539 C 358.6511 811.4932 362.27618 804.89488 366.09375 798.48047 C 369.91132 792.06606 373.92116 785.83571 378.10938 779.79297 C 382.29757 773.75023 386.66472 767.89374 391.19922 762.22656 C 395.73372 756.55938 400.43458 751.08071 405.29102 745.79297 C 410.14745 740.50523 415.16044 735.40832 420.31445 730.50391 C 425.46847 725.59949 430.76416 720.88829 436.19141 716.37109 C 441.61865 711.8539 447.1774 707.53235 452.85352 703.40625 C 458.52964 699.28015 464.32397 695.35026 470.22461 691.61914 C 476.12525 687.88802 482.13161 684.35569 488.23242 681.02344 C 494.33323 677.69119 500.52806 674.5584 506.80469 671.62891 C 513.08132 668.69941 519.4391 665.97207 525.86719 663.44922 C 532.29528 660.92636 538.79245 658.60842 545.34766 656.49609 C 551.90286 654.38376 558.51587 652.47721 565.17383 650.7793 C 571.83179 649.08138 578.53512 647.59212 585.27148 646.3125 C 592.00785 645.03288 598.77794 643.96291 605.56836 643.10547 C 612.35877 642.24803 619.17012 641.60323 625.99023 641.17188 C 632.81035 640.7405 639.63938 640.52291 646.46484 640.52148 C 653.2903 640.52006 660.11152 640.7336 666.91797 641.16602 C 673.72442 641.59843 680.51621 642.249 687.2793 643.11914 C 694.04239 643.98928 700.77728 645.0789 707.47266 646.39062 C 714.16803 647.70237 720.82442 649.2369 727.42773 650.99414 C 734.03105 652.75138 740.58147 654.73283 747.06836 656.93945 C 753.55525 659.14608 759.9781 661.57839 766.32422 664.23828 C 772.67034 666.89817 778.9401 669.78531 785.12109 672.90234 C 791.30209 676.01938 797.39325 679.36529 803.38477 682.94336 C 809.37628 686.52143 815.26723 690.33201 821.04492 694.375 C 834.02235 703.45609 846.85466 712.35169 859.58594 721.03906 C 872.31722 729.72644 884.94796 738.20491 897.52344 746.45117 C 910.09892 754.69744 922.61889 762.711 935.12891 770.46875 C 947.63893 778.2265 960.13892 785.72933 972.67383 792.95117 C 985.20874 800.17301 997.77953 807.11343 1010.4297 813.75195 C 1016.7548 817.07121 1023.0999 820.31592 1029.4707 823.48047 C 1035.8415 826.64501 1042.2362 829.73047 1048.6641 832.73438 C 1055.0919 835.73826 1061.5526 838.66071 1068.0488 841.49805 C 1074.545 844.33538 1081.0785 847.08711 1087.6543 849.75195 C 1094.2301 852.4168 1100.8469 854.99404 1107.5137 857.48047 C 1114.1804 859.9669 1120.8971 862.36198 1127.666 864.66406 C 1134.435 866.96615 1141.2562 869.17529 1148.1387 871.28711 C 1155.0211 873.39893 1161.9634 875.41445 1168.9707 877.33008 C 1175.978 879.2457 1183.05 881.06188 1190.1934 882.77539 C 1197.3367 884.4889 1204.5511 886.1 1211.8418 887.60547 C 1219.1325 889.11093 1226.4998 890.50928 1233.9492 891.80078 C 1241.3986 893.09228 1248.9314 894.27605 1256.5508 895.34766 C 1264.1702 896.41926 1271.8771 897.37882 1279.6777 898.22461 C 1287.4784 899.07039 1295.372 899.80197 1303.3652 900.41602 C 1311.3584 901.03006 1319.4514 901.52792 1327.6484 901.9043 C 1335.8455 902.28067 1344.1464 902.53519 1352.5586 902.66797 C 1360.9708 902.80075 1369.4942 902.81205 1378.1328 902.69531 C 1386.7714 902.57857 1395.526 902.33507 1404.4023 901.96289 C 1413.2787 901.59071 1422.277 901.08863 1431.4023 900.45508 C 1440.5277 899.82152 1449.7803 899.0571 1459.166 898.15625 C 1461.9957 897.88465 1464.9233 897.51499 1467.7773 897.21875 L 1467.7773 828.79297 C 1464.2535 829.40128 1460.7228 829.97258 1457.1758 830.45703 C 1449.0976 831.56035 1440.9609 832.34606 1432.7734 832.82812 C 1424.5859 833.31022 1416.348 833.4886 1408.0664 833.37891 C 1399.7848 833.26922 1391.46 832.87127 1383.0996 832.19922 C 1374.7392 831.52716 1366.342 830.58195 1357.918 829.37695 C 1349.494 828.17196 1341.0427 826.70655 1332.5703 824.99805 C 1324.098 823.28954 1315.6051 821.33689 1307.0996 819.1543 C 1298.5942 816.97171 1290.076 814.56084 1281.5527 811.93359 C 1273.0294 809.30634 1264.5005 806.4624 1255.9746 803.41992 C 1247.4487 800.37744 1238.9254 797.13532 1230.4121 793.70703 C 1221.8988 790.27874 1213.3956 786.66553 1204.9102 782.88086 C 1196.4247 779.09619 1187.9579 775.14092 1179.5156 771.0293 C 1171.0733 766.91767 1162.6554 762.64939 1154.2715 758.24023 C 1145.8876 753.83108 1137.5369 749.28077 1129.2266 744.60352 C 1120.9163 739.92626 1112.6472 735.12296 1104.4258 730.20703 C 1096.2043 725.2911 1088.0314 720.2619 1079.9141 715.13672 C 1071.7967 710.01154 1063.7343 704.78935 1055.7363 699.48438 C 1047.7383 694.17937 1039.8048 688.79134 1031.9414 683.33594 C 1024.078 677.88054 1016.2839 672.35762 1008.5703 666.78125 C 1000.8567 661.20488 993.22235 655.57612 985.67383 649.9082 C 970.57678 638.57237 955.82575 627.08209 941.48047 615.55664 C 927.13519 604.03119 913.19617 592.4699 899.72461 580.99023 C 886.25305 569.51057 873.24933 558.11253 860.77344 546.91406 C 848.29755 535.7156 836.3485 524.71701 824.99023 514.03516 C 813.63197 503.3533 802.86477 492.98843 792.74609 483.05859 C 784.83504 475.29518 776.67106 467.70508 768.2793 460.29883 C 759.88754 452.89258 751.26622 445.67048 742.4375 438.64062 C 733.60878 431.6108 724.57349 424.77292 715.35156 418.13867 C 706.12963 411.50443 696.72179 405.07292 687.15039 398.85352 C 677.579 392.63411 667.84391 386.62714 657.9668 380.8418 C 648.08968 375.05645 638.07073 369.49417 627.93164 364.16211 C 617.79255 358.83005 607.5331 353.72869 597.17578 348.86914 C 586.81846 344.00959 576.36384 339.39125 565.83203 335.02344 C 555.30022 330.65563 544.69184 326.53849 534.0293 322.68164 C 523.36675 318.82479 512.64993 315.22901 501.90039 311.90234 C 491.15085 308.57568 480.36896 305.51749 469.57617 302.74023 C 458.78338 299.96298 447.97979 297.46644 437.1875 295.25781 C 426.39521 293.04919 415.61329 291.12858 404.86523 289.50781 C 394.11718 287.88704 383.40225 286.56447 372.74219 285.55078 C 362.08212 284.53709 351.47755 283.8327 340.94922 283.44531 C 330.42089 283.05793 319.96809 282.98795 309.61523 283.24609 C 304.43881 283.37517 299.28842 283.5868 294.16406 283.88086 C 290.12768 284.11249 286.12239 284.43807 282.12109 284.77344 z "
       id="path4568"
       transform="matrix(0.26458333,0,0,0.26458333,0,49.614567)" />
    <path
       style="opacity:1;fill:url(#linearGradient4639);fill-opacity:1;stroke:none;stroke-width:4.92156363;stroke-linecap:round;stroke-linejoin:round;stroke-miterlimit:4;stroke-dasharray:none;stroke-opacity:1"
       d="M 1467.7773 754.38867 C 1461.9153 754.02929 1455.9463 753.77856 1449.791 753.72266 C 1442.8436 753.65956 1435.7349 753.76653 1428.5273 753.99609 C 1421.3198 754.22566 1414.0134 754.57739 1406.666 755 C 1391.9713 755.84522 1377.1161 756.97642 1362.584 757.99609 C 1355.3179 758.50593 1348.1329 758.98856 1341.0879 759.39258 C 1334.0429 759.79659 1327.1391 760.12174 1320.4355 760.32031 C 1313.732 760.51888 1307.2282 760.59087 1300.9863 760.48438 C 1294.7445 760.37788 1288.7634 760.09321 1283.1035 759.58203 C 1277.4437 759.07085 1272.106 758.33384 1267.1484 757.31836 C 1264.6697 756.81062 1262.2865 756.23258 1260.0059 755.58008 C 1257.7252 754.92758 1255.546 754.20033 1253.4785 753.39062 C 1249.7988 751.94947 1246.622 750.59971 1243.8867 749.33398 C 1241.1514 748.06826 1238.859 746.88666 1236.9473 745.7793 C 1235.0356 744.67193 1233.5059 743.63795 1232.2969 742.67188 C 1231.0879 741.7058 1230.1995 740.80669 1229.5723 739.96484 C 1228.945 739.123 1228.5785 738.34015 1228.4121 737.60547 C 1228.2457 736.87078 1228.2795 736.18366 1228.4531 735.53906 C 1228.6267 734.89447 1228.9393 734.29227 1229.332 733.7207 C 1229.7247 733.14913 1230.1966 732.60936 1230.6875 732.09375 C 1231.6692 731.06252 1232.726 730.1266 1233.375 729.2168 C 1233.6995 728.7619 1233.9224 728.31343 1233.9824 727.86328 C 1234.0424 727.41314 1233.9407 726.9605 1233.6152 726.49805 C 1233.2898 726.03559 1232.7419 725.56215 1231.9102 725.07031 C 1231.0784 724.57848 1229.9629 724.06758 1228.5039 723.5293 C 1225.5859 722.45273 1221.2929 721.2671 1215.1406 719.90234 C 1209.3026 718.6073 1202.0899 716.84949 1193.8691 714.66992 C 1185.6484 712.49035 1176.419 709.88921 1166.5469 706.90234 C 1156.6748 703.91547 1146.1593 700.54312 1135.3672 696.82617 C 1124.5751 693.10923 1113.5061 689.04753 1102.5254 684.67773 C 1097.0351 682.49284 1091.5664 680.23011 1086.166 677.89648 C 1080.7657 675.56286 1075.4338 673.15825 1070.2148 670.68555 C 1064.9959 668.21284 1059.8914 665.67245 1054.9453 663.07031 C 1049.9992 660.46818 1045.2127 657.80394 1040.6309 655.08203 C 1036.049 652.36013 1031.6711 649.58007 1027.5449 646.74805 C 1023.4188 643.91602 1019.5439 641.0321 1015.9648 638.09961 C 1012.3858 635.16712 1009.1026 632.18736 1006.1621 629.16406 C 1003.2216 626.14076 1000.6227 623.07321 998.41211 619.96875 C 996.09786 618.42434 994.12306 616.99778 992.44336 615.67578 C 990.76366 614.35378 989.37987 613.13686 988.25195 612.01367 C 987.12403 610.89048 986.25071 609.86204 985.5918 608.91406 C 984.93288 607.96608 984.48752 607.09911 984.21484 606.30273 C 983.94217 605.50636 983.84226 604.77969 983.87305 604.11133 C 983.90384 603.44297 984.06687 602.83348 984.31836 602.26953 C 984.82133 601.14163 985.68314 600.19756 986.57227 599.3457 C 987.46139 598.49385 988.37713 597.73335 988.99023 596.96875 C 989.29679 596.58645 989.52724 596.20253 989.64062 595.80664 C 989.75401 595.41075 989.75043 595.00339 989.58789 594.57031 C 989.42535 594.13724 989.10328 593.67941 988.58203 593.18555 C 988.06078 592.69169 987.33968 592.16223 986.37695 591.58398 C 984.4515 590.4275 981.56103 589.07703 977.37305 587.44141 C 971.18057 585.02293 965.19688 582.52848 959.41211 579.96875 C 953.62734 577.40902 948.04112 574.78452 942.64258 572.10742 C 937.24403 569.43032 932.0338 566.70026 927 563.92969 C 921.9662 561.15911 917.10851 558.34797 912.41797 555.50781 C 907.72743 552.66765 903.20469 549.79991 898.83594 546.91406 C 894.46718 544.02822 890.25205 541.12444 886.18359 538.2168 C 878.04668 532.40152 870.4904 526.56573 863.42578 520.80664 C 856.36116 515.04755 849.78918 509.36527 843.625 503.85352 C 837.46082 498.34176 831.70318 493.001 826.26758 487.92773 C 820.83197 482.85447 815.71873 478.0491 810.83984 473.60547 C 805.96096 469.16184 801.31629 465.07988 796.82227 461.45703 C 791.66035 457.67376 787.24014 454.33462 783.4707 451.38867 C 779.70127 448.44272 776.5825 445.89123 774.02539 443.67969 C 771.46828 441.46814 769.47416 439.59763 767.94922 438.01758 C 766.42428 436.43752 765.37018 435.14718 764.69727 434.0957 C 764.02435 433.04422 763.73151 432.23129 763.73047 431.60547 C 763.72943 430.97965 764.01908 430.54136 764.50977 430.23828 C 765.00045 429.9352 765.69188 429.76684 766.49414 429.68359 C 767.2964 429.60035 768.2089 429.6011 769.14258 429.63477 C 771.00994 429.7021 772.96129 429.90084 774.27344 429.81836 C 774.92951 429.77712 775.42483 429.66666 775.67188 429.43359 C 775.91892 429.20052 775.91831 428.84422 775.57617 428.31641 C 775.23404 427.78859 774.55092 427.08758 773.43945 426.16211 C 772.32799 425.23664 770.78751 424.08815 768.72656 422.66211 C 764.60467 419.81002 758.40306 415.85272 749.40234 410.38086 C 740.80368 405.15341 731.27662 399.76496 721.0625 394.35938 C 710.84838 388.95379 699.94659 383.53127 688.59961 378.24023 C 677.25263 372.9492 665.46012 367.78809 653.46289 362.9043 C 647.46427 360.4624 641.41444 358.0899 635.34375 355.80469 C 629.27306 353.51948 623.18205 351.32241 617.09961 349.23047 C 611.01717 347.13853 604.94402 345.15309 598.91016 343.29102 C 592.87629 341.42894 586.882 339.68938 580.95703 338.09375 C 575.03206 336.49812 569.17567 335.04651 563.41992 333.75391 C 562.8192 333.619 562.25086 333.53178 561.65234 333.40039 C 563.0392 333.9658 564.44777 334.44935 565.83203 335.02344 C 576.36384 339.39125 586.81846 344.00959 597.17578 348.86914 C 607.5331 353.72869 617.79255 358.83005 627.93164 364.16211 C 638.07073 369.49417 648.08968 375.05645 657.9668 380.8418 C 667.84391 386.62714 677.579 392.63411 687.15039 398.85352 C 696.72179 405.07292 706.12963 411.50443 715.35156 418.13867 C 724.57349 424.77292 733.60878 431.61079 742.4375 438.64062 C 751.26622 445.67048 759.88754 452.89258 768.2793 460.29883 C 776.67106 467.70508 784.83504 475.29518 792.74609 483.05859 C 802.86477 492.98843 813.63197 503.3533 824.99023 514.03516 C 836.3485 524.71701 848.29755 535.7156 860.77344 546.91406 C 873.24933 558.11253 886.25305 569.51057 899.72461 580.99023 C 913.19617 592.4699 927.13519 604.03119 941.48047 615.55664 C 955.82575 627.08209 970.57678 638.57237 985.67383 649.9082 C 993.22235 655.57612 1000.8567 661.20488 1008.5703 666.78125 C 1016.2839 672.35762 1024.078 677.88054 1031.9414 683.33594 C 1039.8048 688.79134 1047.7383 694.17937 1055.7363 699.48438 C 1063.7343 704.78936 1071.7967 710.01154 1079.9141 715.13672 C 1088.0314 720.2619 1096.2043 725.2911 1104.4258 730.20703 C 1112.6472 735.12296 1120.9163 739.92626 1129.2266 744.60352 C 1137.5369 749.28077 1145.8876 753.83108 1154.2715 758.24023 C 1162.6554 762.64939 1171.0733 766.91767 1179.5156 771.0293 C 1187.9579 775.14092 1196.4247 779.09619 1204.9102 782.88086 C 1213.3956 786.66553 1221.8988 790.27874 1230.4121 793.70703 C 1238.9254 797.13532 1247.4487 800.37744 1255.9746 803.41992 C 1264.5005 806.4624 1273.0294 809.30634 1281.5527 811.93359 C 1290.076 814.56084 1298.5942 816.97171 1307.0996 819.1543 C 1315.6051 821.33689 1324.098 823.28954 1332.5703 824.99805 C 1341.0427 826.70655 1349.494 828.17196 1357.918 829.37695 C 1366.342 830.58195 1374.7392 831.52716 1383.0996 832.19922 C 1391.46 832.87127 1399.7848 833.26922 1408.0664 833.37891 C 1416.348 833.4886 1424.5859 833.31022 1432.7734 832.82812 C 1440.9609 832.34605 1449.0976 831.56035 1457.1758 830.45703 C 1460.7228 829.97258 1464.2535 829.40128 1467.7773 828.79297 L 1467.7773 754.38867 z "
       id="path4591"
       transform="matrix(0.26458333,0,0,0.26458333,0,49.614567)" />
    <path
       style="opacity:1;fill:url(#linearGradient4687);fill-opacity:1;stroke:none;stroke-width:4.92156363;stroke-linecap:round;stroke-linejoin:round;stroke-miterlimit:4;stroke-dasharray:none;stroke-opacity:1"
       d="M 358.11133 198.25 C 349.35728 198.35098 340.66104 198.65277 332.02539 199.16602 C 323.38974 199.67926 314.81447 200.40336 306.30273 201.35156 C 297.791 202.29976 289.34131 203.4711 280.95898 204.87695 C 272.57666 206.28281 264.26108 207.92434 256.01367 209.81055 C 247.76626 211.69675 239.58746 213.82754 231.48047 216.2168 C 223.37348 218.60605 215.33802 221.25297 207.37695 224.16797 C 199.41589 227.08297 191.53034 230.26702 183.7207 233.73047 C 175.91106 237.19391 168.1781 240.93612 160.52539 244.9707 C 152.87268 249.00529 145.29887 253.33251 137.80859 257.96094 C 130.31832 262.58936 122.91023 267.52067 115.58789 272.76562 C 108.26555 278.01059 101.02976 283.56894 93.880859 289.45312 C 86.731962 295.33732 79.671125 301.54567 72.701172 308.0918 C 65.731218 314.63792 58.851912 321.5212 52.066406 328.75195 C 45.2809 335.9827 38.589696 343.56193 31.994141 351.5 C 25.398585 359.43807 18.898148 367.73425 12.498047 376.40234 C 6.097946 385.07044 -0.20320076 394.11044 -6.4023438 403.53125 C -7.0352844 404.49313 -7.6387172 405.5653 -8.2695312 406.53516 L -8.2695312 517.19531 C -7.8882312 515.83672 -7.5568521 514.42168 -7.1640625 513.07617 C -5.5126175 507.41912 -3.7593607 501.87836 -1.9082031 496.45117 C -0.057045654 491.02398 1.892098 485.70949 3.9375 480.50977 C 5.982902 475.31004 8.1232435 470.22466 10.357422 465.25 C 12.5916 460.27534 14.920404 455.41215 17.337891 450.66016 C 19.755377 445.90816 22.262096 441.2661 24.857422 436.73438 C 27.452748 432.20263 30.136599 427.78068 32.904297 423.4668 C 35.671995 419.15291 38.524383 414.94805 41.458984 410.84961 C 44.393586 406.75117 47.409823 402.76039 50.505859 398.875 C 53.601896 394.98961 56.777293 391.2099 60.029297 387.53516 C 63.281301 383.86041 66.609216 380.29072 70.011719 376.82422 C 73.414221 373.35772 76.89192 369.99309 80.439453 366.73242 C 83.986987 363.47176 87.605873 360.31504 91.292969 357.25781 C 94.980065 354.20058 98.735452 351.24292 102.55664 348.38672 C 106.37783 345.53052 110.26307 342.77475 114.21289 340.11719 C 118.16271 337.45962 122.17702 334.90079 126.25 332.43945 C 130.32298 329.97811 134.45582 327.61517 138.64648 325.34766 C 142.83715 323.08014 147.08579 320.90813 151.38867 318.83203 C 155.69156 316.75593 160.04934 314.77575 164.45898 312.88867 C 168.86862 311.00159 173.32892 309.20828 177.83984 307.50781 C 182.35077 305.80735 186.91084 304.19985 191.51758 302.68359 C 196.12432 301.16734 200.77752 299.74265 205.47461 298.4082 C 210.1717 297.07376 214.91334 295.82887 219.69531 294.67383 C 224.47729 293.51879 229.30072 292.45265 234.16211 291.47461 C 239.02349 290.49657 243.92209 289.60617 248.85742 288.80273 C 253.79275 287.9993 258.76377 287.28359 263.76758 286.65234 C 268.77138 286.0211 273.80819 285.47512 278.875 285.01367 C 283.94181 284.55222 289.03971 284.17492 294.16406 283.88086 C 299.28842 283.5868 304.43881 283.37517 309.61523 283.24609 C 319.96809 282.98795 330.42089 283.05793 340.94922 283.44531 C 351.47755 283.8327 362.08212 284.53709 372.74219 285.55078 C 383.40225 286.56447 394.11718 287.88704 404.86523 289.50781 C 415.61329 291.12858 426.39521 293.04919 437.1875 295.25781 C 447.97979 297.46644 458.78338 299.96298 469.57617 302.74023 C 480.36896 305.51749 491.15085 308.57568 501.90039 311.90234 C 512.64993 315.22901 523.36675 318.82479 534.0293 322.68164 C 543.29039 326.03156 552.48765 329.66405 561.65234 333.40039 C 562.25086 333.53178 562.8192 333.619 563.41992 333.75391 C 569.17567 335.04651 575.03206 336.49812 580.95703 338.09375 C 586.882 339.68938 592.87629 341.42894 598.91016 343.29102 C 604.94402 345.15309 611.01717 347.13853 617.09961 349.23047 C 623.18205 351.32241 629.27306 353.51948 635.34375 355.80469 C 641.41444 358.0899 647.46427 360.4624 653.46289 362.9043 C 665.46012 367.78809 677.25263 372.9492 688.59961 378.24023 C 699.94659 383.53127 710.84838 388.95379 721.0625 394.35938 C 731.27662 399.76496 740.80368 405.15341 749.40234 410.38086 C 758.40306 415.85272 764.60467 419.81002 768.72656 422.66211 C 770.78751 424.08815 772.32799 425.23664 773.43945 426.16211 C 774.55092 427.08758 775.23404 427.78859 775.57617 428.31641 C 775.91831 428.84422 775.91892 429.20052 775.67188 429.43359 C 775.42483 429.66666 774.92951 429.77712 774.27344 429.81836 C 772.96129 429.90084 771.00994 429.7021 769.14258 429.63477 C 768.2089 429.6011 767.2964 429.60035 766.49414 429.68359 C 765.69188 429.76684 765.00045 429.9352 764.50977 430.23828 C 764.01908 430.54136 763.72943 430.97965 763.73047 431.60547 C 763.73151 432.23129 764.02435 433.04422 764.69727 434.0957 C 765.37018 435.14718 766.42428 436.43752 767.94922 438.01758 C 769.47416 439.59763 771.46828 441.46814 774.02539 443.67969 C 776.5825 445.89123 779.70127 448.44272 783.4707 451.38867 C 787.24014 454.33462 791.66035 457.67376 796.82227 461.45703 C 801.31629 465.07988 805.96096 469.16184 810.83984 473.60547 C 815.71873 478.0491 820.83197 482.85447 826.26758 487.92773 C 831.70318 493.001 837.46082 498.34176 843.625 503.85352 C 849.78918 509.36527 856.36116 515.04755 863.42578 520.80664 C 870.4904 526.56573 878.04668 532.40152 886.18359 538.2168 C 890.25205 541.12444 894.46718 544.02822 898.83594 546.91406 C 903.20469 549.79991 907.72743 552.66765 912.41797 555.50781 C 917.10851 558.34797 921.9662 561.15911 927 563.92969 C 932.0338 566.70026 937.24403 569.43032 942.64258 572.10742 C 948.04112 574.78452 953.62734 577.40902 959.41211 579.96875 C 965.19688 582.52848 971.18057 585.02293 977.37305 587.44141 C 981.56103 589.07703 984.4515 590.4275 986.37695 591.58398 C 987.33968 592.16223 988.06078 592.69169 988.58203 593.18555 C 989.10328 593.67941 989.42535 594.13724 989.58789 594.57031 C 989.75043 595.00339 989.75401 595.41075 989.64062 595.80664 C 989.52724 596.20253 989.29679 596.58645 988.99023 596.96875 C 988.37713 597.73335 987.46139 598.49385 986.57227 599.3457 C 985.68314 600.19756 984.82133 601.14163 984.31836 602.26953 C 984.06687 602.83348 983.90384 603.44297 983.87305 604.11133 C 983.84226 604.77969 983.94217 605.50636 984.21484 606.30273 C 984.48752 607.09911 984.93288 607.96608 985.5918 608.91406 C 986.25071 609.86204 987.12403 610.89048 988.25195 612.01367 C 989.37987 613.13686 990.76366 614.35378 992.44336 615.67578 C 994.12306 616.99778 996.09786 618.42434 998.41211 619.96875 C 1000.6227 623.07321 1003.2216 626.14076 1006.1621 629.16406 C 1009.1026 632.18736 1012.3858 635.16712 1015.9648 638.09961 C 1019.5439 641.0321 1023.4188 643.91602 1027.5449 646.74805 C 1031.6711 649.58007 1036.049 652.36013 1040.6309 655.08203 C 1045.2127 657.80394 1049.9992 660.46818 1054.9453 663.07031 C 1059.8914 665.67245 1064.9959 668.21284 1070.2148 670.68555 C 1075.4338 673.15825 1080.7657 675.56286 1086.166 677.89648 C 1091.5664 680.23011 1097.0351 682.49284 1102.5254 684.67773 C 1113.5061 689.04753 1124.5751 693.10923 1135.3672 696.82617 C 1146.1593 700.54312 1156.6748 703.91547 1166.5469 706.90234 C 1176.419 709.88921 1185.6484 712.49035 1193.8691 714.66992 C 1202.0899 716.84949 1209.3026 718.6073 1215.1406 719.90234 C 1221.2929 721.2671 1225.5859 722.45273 1228.5039 723.5293 C 1229.9629 724.06758 1231.0784 724.57848 1231.9102 725.07031 C 1232.7419 725.56215 1233.2898 726.03559 1233.6152 726.49805 C 1233.9407 726.9605 1234.0424 727.41314 1233.9824 727.86328 C 1233.9224 728.31343 1233.6995 728.7619 1233.375 729.2168 C 1232.726 730.1266 1231.6692 731.06252 1230.6875 732.09375 C 1230.1966 732.60936 1229.7247 733.14913 1229.332 733.7207 C 1228.9393 734.29227 1228.6267 734.89447 1228.4531 735.53906 C 1228.2795 736.18366 1228.2457 736.87078 1228.4121 737.60547 C 1228.5785 738.34015 1228.945 739.123 1229.5723 739.96484 C 1230.1995 740.80669 1231.0879 741.7058 1232.2969 742.67188 C 1233.5059 743.63795 1235.0356 744.67193 1236.9473 745.7793 C 1238.859 746.88666 1241.1514 748.06826 1243.8867 749.33398 C 1246.622 750.59971 1249.7988 751.94947 1253.4785 753.39062 C 1255.546 754.20033 1257.7252 754.92758 1260.0059 755.58008 C 1262.2865 756.23258 1264.6697 756.81062 1267.1484 757.31836 C 1272.106 758.33384 1277.4437 759.07085 1283.1035 759.58203 C 1288.7634 760.09321 1294.7445 760.37788 1300.9863 760.48438 C 1307.2282 760.59087 1313.732 760.51888 1320.4355 760.32031 C 1327.1391 760.12174 1334.0429 759.79659 1341.0879 759.39258 C 1348.1329 758.98856 1355.3179 758.50593 1362.584 757.99609 C 1377.1161 756.97642 1391.9713 755.84522 1406.666 755 C 1414.0134 754.57739 1421.3198 754.22566 1428.5273 753.99609 C 1435.7349 753.76653 1442.8436 753.65956 1449.791 753.72266 C 1455.9463 753.77856 1461.9153 754.02929 1467.7773 754.38867 L 1467.7773 430.4043 C 1463.711 431.05498 1459.671 431.8344 1455.5859 432.39258 C 1446.4105 433.64629 1437.188 434.66918 1427.9219 435.47266 C 1418.6558 436.27614 1409.3455 436.86039 1399.9941 437.23633 C 1390.6428 437.61227 1381.2494 437.78085 1371.8184 437.75195 C 1362.3873 437.72306 1352.9193 437.49698 1343.4141 437.08594 C 1333.9088 436.6749 1324.367 436.07908 1314.793 435.30859 C 1305.219 434.53811 1295.6118 433.59356 1285.9746 432.48633 C 1276.3374 431.3791 1266.6695 430.10878 1256.9746 428.6875 C 1247.2797 427.26622 1237.5577 425.6931 1227.8105 423.98047 C 1218.0634 422.26784 1208.2919 420.41488 1198.498 418.43359 C 1188.7042 416.4523 1178.8877 414.34248 1169.0527 412.11523 C 1159.2177 409.88799 1149.3648 407.54426 1139.4941 405.09375 C 1129.6234 402.64324 1119.7368 400.08662 1109.8359 397.43555 C 1099.9351 394.78447 1090.0192 392.03792 1080.0938 389.20898 C 1060.2426 383.5511 1040.3485 377.56129 1020.4316 371.32812 C 1000.5148 365.09497 980.57526 358.61906 960.63672 351.99219 C 940.69818 345.36532 920.75995 338.58705 900.84375 331.74805 C 861.01135 318.07005 821.26795 304.14994 781.78906 290.71289 C 762.04962 283.99437 742.37604 277.39569 722.79102 271.00977 C 703.206 264.62384 683.70884 258.44986 664.32227 252.57812 C 644.93569 246.7064 625.65972 241.13692 606.51562 235.96094 C 596.94359 233.37295 587.40552 230.88391 577.90234 228.50391 C 568.39917 226.1239 558.93075 223.85245 549.50195 221.70312 C 540.07316 219.55381 530.6829 217.5268 521.33398 215.63086 C 511.98507 213.73492 502.67759 211.97143 493.41406 210.35156 C 484.15053 208.7317 474.93045 207.25468 465.75781 205.93359 C 456.58517 204.6125 447.46101 203.44688 438.38477 202.44727 C 429.30852 201.44765 420.28099 200.61443 411.30664 199.95898 C 402.33229 199.30354 393.40992 198.82569 384.54297 198.53711 C 375.67602 198.24853 366.86538 198.14902 358.11133 198.25 z "
       id="path4573"
       transform="matrix(0.26458333,0,0,0.26458333,0,49.614567)" />
    <path
       style="opacity:1;fill:url(#linearGradient4655);fill-opacity:1;stroke:none;stroke-width:4.92156363;stroke-linecap:round;stroke-linejoin:round;stroke-miterlimit:4;stroke-dasharray:none;stroke-opacity:1"
       d="M 452.48242 204.24219 C 448.56488 202.71017 444.74567 201.11043 440.71289 199.67383 C 433.33253 197.04471 425.79556 194.58311 418.23047 192.31641 C 410.66538 190.0497 403.07357 187.9778 395.58398 186.12891 C 388.0944 184.28001 380.7066 182.65498 373.55273 181.2793 C 366.39887 179.90361 359.47784 178.77871 352.91992 177.93164 C 346.36201 177.08457 340.16854 176.51501 334.4668 176.25195 C 328.76505 175.98889 323.55605 176.03185 318.9707 176.4082 C 316.74884 176.19863 315.1253 176.15936 313.94727 176.25586 C 312.76924 176.35235 312.03551 176.58349 311.5918 176.91211 C 311.14809 177.24073 310.99547 177.6675 310.97656 178.1543 C 310.95766 178.6411 311.07354 179.18873 311.16992 179.75977 C 311.26631 180.3308 311.34198 180.92453 311.24414 181.50586 C 311.1463 182.08719 310.87501 182.65615 310.27344 183.17383 C 309.67186 183.6915 308.741 184.15898 307.32617 184.53906 C 305.91134 184.91914 304.0122 185.21232 301.47461 185.38086 C 294.69348 185.42815 288.18126 185.62993 281.93359 185.95703 C 275.68593 186.28414 269.70196 186.73595 263.97852 187.2832 C 258.25507 187.83046 252.79245 188.4739 247.58398 189.18164 C 242.37552 189.88938 237.42149 190.66214 232.71875 191.4707 C 223.31327 193.08784 214.91071 194.8473 207.47266 196.50977 C 200.03461 198.17223 193.56217 199.7363 188.01758 200.9668 C 185.24528 201.58205 183.50543 202.18954 182.53906 202.79688 C 182.05588 203.10054 181.7662 203.40342 181.63672 203.70898 C 181.50724 204.01455 181.53822 204.32277 181.69727 204.63281 C 182.01536 205.2529 182.8447 205.88361 183.92578 206.53711 C 185.00687 207.19061 186.3395 207.86664 187.66211 208.57422 C 188.98472 209.2818 190.29718 210.02041 191.33984 210.80273 C 191.86118 211.1939 192.31635 211.59604 192.66992 212.00977 C 193.02349 212.42349 193.27586 212.85019 193.39648 213.28906 C 193.51711 213.72793 193.50563 214.17989 193.32812 214.64648 C 193.15062 215.11308 192.80839 215.59293 192.26758 216.08984 C 191.72677 216.58675 190.98689 217.10105 190.01758 217.63086 C 189.04827 218.16066 187.84775 218.7062 186.38477 219.27148 C 174.85047 222.4632 164.80228 225.38599 156.02344 228.06836 C 147.24459 230.75073 139.73664 233.19268 133.28711 235.42383 C 126.83758 237.65498 121.44478 239.67561 116.89844 241.51367 C 112.35209 243.35173 108.65133 245.00862 105.58203 246.51172 C 102.51273 248.01482 100.07503 249.36358 98.056641 250.58984 C 96.038254 251.81611 94.43853 252.91822 93.044922 253.92578 C 91.651314 254.93334 90.464494 255.84638 89.269531 256.69336 C 88.074568 257.54034 86.871672 258.32188 85.449219 259.06641 C 82.450594 260.78089 80.372809 262.22912 78.994141 263.47656 C 78.304807 264.10028 77.791537 264.67303 77.423828 265.20508 C 77.056119 265.73713 76.834081 266.22843 76.732422 266.68555 C 76.630763 267.14266 76.648998 267.56593 76.757812 267.96484 C 76.866627 268.36375 77.066366 268.73827 77.330078 269.0957 C 77.857502 269.81057 78.639567 270.45809 79.453125 271.10742 C 80.266683 271.75676 81.112493 272.40736 81.767578 273.125 C 82.095121 273.48382 82.375518 273.86073 82.580078 274.26172 C 82.784639 274.66271 82.913451 275.08893 82.939453 275.54883 C 82.965455 276.00872 82.887819 276.50158 82.679688 277.03711 C 82.471556 277.57263 82.132607 278.14946 81.634766 278.77734 C 80.639082 280.03312 79.00751 281.4912 76.519531 283.2168 C 73.16181 285.00281 69.869459 286.87491 66.642578 288.82031 C 63.415697 290.76571 60.255427 292.78423 57.160156 294.86523 C 50.969615 299.02725 45.042292 303.43632 39.382812 307.99805 C 33.723333 312.55978 28.331242 317.27375 23.208984 322.04492 C 18.086727 326.8161 13.235125 331.6452 8.65625 336.43555 C 4.0773747 341.2259 -0.22847956 345.97841 -4.2578125 350.59766 C -5.6940623 352.24418 -6.9036347 353.75294 -8.2695312 355.36133 L -8.2695312 406.53516 C -7.6387173 405.5653 -7.0352843 404.49313 -6.4023438 403.53125 C -0.20320079 394.11044 6.097946 385.07044 12.498047 376.40234 C 18.898148 367.73425 25.398585 359.43807 31.994141 351.5 C 38.589696 343.56193 45.2809 335.9827 52.066406 328.75195 C 58.851912 321.5212 65.731218 314.63792 72.701172 308.0918 C 79.671125 301.54567 86.731962 295.33732 93.880859 289.45312 C 101.02976 283.56895 108.26555 278.01059 115.58789 272.76562 C 122.91023 267.52068 130.31832 262.58936 137.80859 257.96094 C 145.29887 253.33251 152.87268 249.00529 160.52539 244.9707 C 168.1781 240.93612 175.91106 237.19391 183.7207 233.73047 C 191.53034 230.26702 199.41589 227.08297 207.37695 224.16797 C 215.33802 221.25297 223.37348 218.60605 231.48047 216.2168 C 239.58746 213.82754 247.76626 211.69675 256.01367 209.81055 C 264.26108 207.92434 272.57666 206.28281 280.95898 204.87695 C 289.34131 203.4711 297.791 202.29976 306.30273 201.35156 C 314.81447 200.40336 323.38974 199.67926 332.02539 199.16602 C 340.66104 198.65277 349.35728 198.35098 358.11133 198.25 C 366.86538 198.14902 375.67602 198.24853 384.54297 198.53711 C 393.40992 198.82569 402.33229 199.30354 411.30664 199.95898 C 420.28099 200.61443 429.30852 201.44765 438.38477 202.44727 C 443.05918 202.96208 447.78251 203.64075 452.48242 204.24219 z "
       id="path4619"
       transform="matrix(0.26458333,0,0,0.26458333,0,49.614567)" />
    <path
       style="opacity:1;fill:url(#linearGradient4711);fill-opacity:1;stroke:none;stroke-width:4.92156363;stroke-linecap:round;stroke-linejoin:round;stroke-miterlimit:4;stroke-dasharray:none;stroke-opacity:1"
       d="M 338.33008 -8.78125 C 336.35865 -8.473513 334.23062 -8.2227895 332.2832 -7.90625 C 321.32961 -6.1258154 310.75415 -4.2048505 300.54297 -2.1484375 C 290.33179 -0.092024606 280.48467 2.1015533 270.98633 4.4296875 C 261.48799 6.7578217 252.33851 9.2208096 243.52344 11.816406 C 234.70837 14.412004 226.22778 17.139242 218.06641 19.998047 C 209.90503 22.856852 202.06265 25.84709 194.52539 28.964844 C 186.98813 32.082598 179.75521 35.328726 172.8125 38.701172 C 165.86979 42.073618 159.21758 45.572437 152.83984 49.195312 C 146.46211 52.818193 140.35991 56.564535 134.51758 60.433594 C 128.67524 64.302652 123.09237 68.293318 117.75586 72.404297 C 112.41935 76.515275 107.329 80.747062 102.46875 85.095703 C 97.608498 89.444345 92.978023 93.91014 88.564453 98.492188 C 84.150883 103.07423 79.953494 107.77279 75.957031 112.58398 C 71.960569 117.39518 68.165568 122.31938 64.556641 127.35547 C 60.947713 132.39156 57.524399 137.5382 54.273438 142.79492 C 51.022471 148.05164 47.944063 153.41758 45.021484 158.89062 C 42.098906 164.36372 39.332748 169.94369 36.708984 175.62891 C 34.085221 181.31412 31.604522 187.10497 29.25 192.99805 C 26.895478 198.89112 24.667588 204.88769 22.552734 210.98438 C 20.43788 217.08101 18.436009 223.27819 16.53125 229.57422 C 14.626491 235.87025 12.817987 242.26474 11.09375 248.75586 C 9.3695127 255.24698 7.7295389 261.83372 6.15625 268.51562 C 4.5829611 275.19758 3.0769138 281.97522 1.625 288.84375 C -1.2788275 302.58081 -3.968687 316.68672 -6.5644531 331.14453 C -7.139913 334.34971 -7.7021096 337.97331 -8.2695312 341.21289 L -8.2695312 355.36133 C -6.9036347 353.75294 -5.6940623 352.24418 -4.2578125 350.59766 C -0.22847956 345.97841 4.0773747 341.2259 8.65625 336.43555 C 13.235125 331.6452 18.086727 326.8161 23.208984 322.04492 C 28.331242 317.27375 33.723333 312.55978 39.382812 307.99805 C 45.042292 303.43632 50.969615 299.02725 57.160156 294.86523 C 60.255427 292.78423 63.415697 290.76571 66.642578 288.82031 C 69.869459 286.87491 73.16181 285.00281 76.519531 283.2168 C 79.00751 281.4912 80.639082 280.03312 81.634766 278.77734 C 82.132607 278.14946 82.471556 277.57263 82.679688 277.03711 C 82.887819 276.50158 82.965455 276.00872 82.939453 275.54883 C 82.913451 275.08893 82.784639 274.66271 82.580078 274.26172 C 82.375518 273.86073 82.095121 273.48382 81.767578 273.125 C 81.112493 272.40736 80.266683 271.75676 79.453125 271.10742 C 78.639567 270.45809 77.857502 269.81057 77.330078 269.0957 C 77.066366 268.73827 76.866627 268.36375 76.757812 267.96484 C 76.648998 267.56593 76.630763 267.14266 76.732422 266.68555 C 76.834081 266.22843 77.056119 265.73713 77.423828 265.20508 C 77.791537 264.67303 78.304807 264.10028 78.994141 263.47656 C 80.372809 262.22912 82.450594 260.78089 85.449219 259.06641 C 86.871672 258.32188 88.074568 257.54034 89.269531 256.69336 C 90.464494 255.84638 91.651314 254.93334 93.044922 253.92578 C 94.43853 252.91822 96.038254 251.81611 98.056641 250.58984 C 100.07503 249.36358 102.51273 248.01482 105.58203 246.51172 C 108.65133 245.00862 112.35209 243.35173 116.89844 241.51367 C 121.44478 239.67561 126.83758 237.65498 133.28711 235.42383 C 139.73664 233.19268 147.24459 230.75073 156.02344 228.06836 C 164.80228 225.38599 174.85047 222.4632 186.38477 219.27148 C 187.84775 218.7062 189.04827 218.16066 190.01758 217.63086 C 190.98689 217.10105 191.72677 216.58675 192.26758 216.08984 C 192.80839 215.59293 193.15062 215.11308 193.32812 214.64648 C 193.50563 214.17989 193.51711 213.72793 193.39648 213.28906 C 193.27586 212.85019 193.02349 212.42349 192.66992 212.00977 C 192.31635 211.59604 191.86118 211.1939 191.33984 210.80273 C 190.29718 210.02041 188.98472 209.2818 187.66211 208.57422 C 186.3395 207.86664 185.00687 207.19061 183.92578 206.53711 C 182.8447 205.88361 182.01536 205.2529 181.69727 204.63281 C 181.53822 204.32277 181.50724 204.01455 181.63672 203.70898 C 181.7662 203.40342 182.05588 203.10054 182.53906 202.79688 C 183.50543 202.18954 185.24528 201.58205 188.01758 200.9668 C 193.56217 199.7363 200.03461 198.17223 207.47266 196.50977 C 214.91071 194.8473 223.31327 193.08784 232.71875 191.4707 C 237.42149 190.66214 242.37552 189.88938 247.58398 189.18164 C 252.79245 188.4739 258.25507 187.83046 263.97852 187.2832 C 269.70196 186.73595 275.68593 186.28414 281.93359 185.95703 C 288.18126 185.62993 294.69348 185.42815 301.47461 185.38086 C 304.0122 185.21232 305.91134 184.91914 307.32617 184.53906 C 308.741 184.15898 309.67186 183.6915 310.27344 183.17383 C 310.87501 182.65615 311.1463 182.08719 311.24414 181.50586 C 311.34198 180.92453 311.26631 180.3308 311.16992 179.75977 C 311.07354 179.18873 310.95766 178.6411 310.97656 178.1543 C 310.99547 177.6675 311.14809 177.24073 311.5918 176.91211 C 312.03551 176.58349 312.76924 176.35235 313.94727 176.25586 C 315.1253 176.15936 316.74884 176.19863 318.9707 176.4082 C 323.55605 176.03185 328.76505 175.98889 334.4668 176.25195 C 340.16854 176.51501 346.36201 177.08457 352.91992 177.93164 C 359.47784 178.77871 366.39887 179.90361 373.55273 181.2793 C 380.7066 182.65498 388.0944 184.28001 395.58398 186.12891 C 403.07357 187.9778 410.66538 190.0497 418.23047 192.31641 C 425.79556 194.58311 433.33253 197.04471 440.71289 199.67383 C 444.74567 201.11043 448.56488 202.71017 452.48242 204.24219 C 456.90826 204.80856 461.30924 205.29289 465.75781 205.93359 C 474.93045 207.25468 484.15053 208.7317 493.41406 210.35156 C 502.67759 211.97143 511.98507 213.73492 521.33398 215.63086 C 530.6829 217.5268 540.07316 219.55382 549.50195 221.70312 C 558.93075 223.85245 568.39917 226.1239 577.90234 228.50391 C 587.40552 230.88391 596.9436 233.37295 606.51562 235.96094 C 625.65972 241.13692 644.93569 246.70641 664.32227 252.57812 C 683.70884 258.44986 703.206 264.62384 722.79102 271.00977 C 742.37604 277.39569 762.04962 283.99437 781.78906 290.71289 C 821.26795 304.14994 861.01135 318.07005 900.84375 331.74805 C 920.75995 338.58705 940.69818 345.36532 960.63672 351.99219 C 980.57526 358.61906 1000.5148 365.09498 1020.4316 371.32812 C 1040.3485 377.56129 1060.2426 383.5511 1080.0938 389.20898 C 1090.0191 392.03792 1099.9351 394.78447 1109.8359 397.43555 C 1119.7368 400.08662 1129.6234 402.64324 1139.4941 405.09375 C 1149.3648 407.54426 1159.2177 409.88799 1169.0527 412.11523 C 1178.8877 414.34248 1188.7042 416.4523 1198.498 418.43359 C 1208.2919 420.41488 1218.0634 422.26784 1227.8105 423.98047 C 1237.5577 425.6931 1247.2797 427.26622 1256.9746 428.6875 C 1266.6695 430.10878 1276.3374 431.3791 1285.9746 432.48633 C 1295.6118 433.59356 1305.219 434.53811 1314.793 435.30859 C 1324.367 436.07908 1333.9088 436.6749 1343.4141 437.08594 C 1352.9193 437.49698 1362.3873 437.72306 1371.8184 437.75195 C 1381.2494 437.78085 1390.6428 437.61227 1399.9941 437.23633 C 1409.3455 436.86039 1418.6558 436.27614 1427.9219 435.47266 C 1437.188 434.66918 1446.4105 433.64629 1455.5859 432.39258 C 1459.671 431.8344 1463.711 431.05498 1467.7773 430.4043 L 1467.7773 254.15625 C 1461.8985 253.7043 1456.0038 253.14995 1450.0977 252.45703 C 1443.9142 251.73158 1437.7207 250.87209 1431.5254 249.875 C 1425.3301 248.87791 1419.1341 247.74321 1412.9453 246.4668 C 1406.7566 245.19039 1400.5759 243.77239 1394.4121 242.20898 C 1388.2484 240.64558 1382.1008 238.93817 1375.9805 237.08008 C 1369.8601 235.22199 1363.7655 233.21318 1357.707 231.05273 C 1351.6485 228.89229 1345.6267 226.57985 1339.6484 224.10938 C 1333.6702 221.63889 1327.7369 219.01087 1321.8574 216.22266 C 1315.9779 213.43445 1310.1511 210.48471 1304.3887 207.37109 C 1298.6263 204.25748 1292.9276 200.9799 1287.3008 197.5332 C 1281.6739 194.08651 1276.1194 190.47105 1270.6465 186.68359 C 1265.1736 182.89614 1259.7829 178.93668 1254.4824 174.80078 C 1249.1819 170.66488 1243.9729 166.35335 1238.8633 161.86133 C 1233.7536 157.3693 1228.7422 152.69763 1223.8418 147.8418 C 1218.9414 142.98597 1214.1512 137.94606 1209.4785 132.71875 C 1204.8058 127.49144 1200.2508 122.07523 1195.8242 116.46875 C 1191.3976 110.86227 1187.0996 105.06559 1182.9375 99.072266 C 1178.7754 93.078942 1174.7502 86.889802 1170.8711 80.501953 C 1166.992 74.114104 1163.2594 67.526384 1159.6816 60.736328 C 1156.1039 53.946273 1152.6798 46.953848 1149.4219 39.753906 C 1146.1639 32.553964 1143.0721 25.146806 1140.1523 17.529297 C 1137.2326 9.9117877 1134.4849 2.0837722 1131.9219 -5.9589844 C 1131.6299 -6.8751843 1131.3966 -7.8594761 1131.1094 -8.78125 L 338.33008 -8.78125 z "
       id="path4578"
       transform="matrix(0.26458333,0,0,0.26458333,0,49.614567)" />
    <path
       style="opacity:1;fill:url(#radialGradient4719);fill-opacity:1;stroke:none;stroke-width:4.92156363;stroke-linecap:round;stroke-linejoin:round;stroke-miterlimit:4;stroke-dasharray:none;stroke-opacity:1"
       d="M 1131.1094 -8.78125 C 1131.3966 -7.8594761 1131.6299 -6.8751843 1131.9219 -5.9589844 C 1134.4849 2.0837723 1137.2326 9.9117877 1140.1523 17.529297 C 1143.0721 25.146806 1146.1639 32.553964 1149.4219 39.753906 C 1152.6798 46.953848 1156.1039 53.946273 1159.6816 60.736328 C 1163.2594 67.526384 1166.992 74.114104 1170.8711 80.501953 C 1174.7502 86.889802 1178.7754 93.078942 1182.9375 99.072266 C 1187.0996 105.06559 1191.3976 110.86227 1195.8242 116.46875 C 1200.2508 122.07523 1204.8058 127.49144 1209.4785 132.71875 C 1214.1512 137.94606 1218.9414 142.98597 1223.8418 147.8418 C 1228.7422 152.69763 1233.7536 157.3693 1238.8633 161.86133 C 1243.9729 166.35335 1249.1819 170.66488 1254.4824 174.80078 C 1259.7829 178.93668 1265.1736 182.89614 1270.6465 186.68359 C 1276.1194 190.47105 1281.6739 194.08651 1287.3008 197.5332 C 1292.9276 200.9799 1298.6263 204.25748 1304.3887 207.37109 C 1310.1511 210.48471 1315.9779 213.43445 1321.8574 216.22266 C 1327.7369 219.01087 1333.6702 221.63889 1339.6484 224.10938 C 1345.6267 226.57986 1351.6485 228.89229 1357.707 231.05273 C 1363.7655 233.21318 1369.8601 235.22199 1375.9805 237.08008 C 1382.1008 238.93817 1388.2484 240.64558 1394.4121 242.20898 C 1400.5759 243.77239 1406.7566 245.19039 1412.9453 246.4668 C 1419.1341 247.74321 1425.3301 248.87791 1431.5254 249.875 C 1437.7207 250.87209 1443.9142 251.73158 1450.0977 252.45703 C 1456.0038 253.14995 1461.8985 253.7043 1467.7773 254.15625 L 1467.7773 -8.78125 L 1131.1094 -8.78125 z "
       id="rect4553"
       transform="matrix(0.26458333,0,0,0.26458333,0,49.614567)" />
    <path
       style="opacity:0.054;fill:#4400aa;fill-rule:evenodd;stroke:none;stroke-width:0.4275268px;stroke-linecap:butt;stroke-linejoin:miter;stroke-opacity:1"
       d="M 200.93663,46.25449 C 9.2155827,102.96786 111.48695,210.94163 185.44686,278.00914 101.73131,220.62392 3.4255949,95.705846 255.60652,45.49959 Z"
       id="path4621"
       inkscape:connector-curvature="0"
       sodipodi:nodetypes="cccc" />
    <path
       sodipodi:nodetypes="cccc"
       inkscape:connector-curvature="0"
       id="path4623"
       d="M 95.918564,45.073783 C 39.924621,59.218494 61.51256,119.77084 76.444712,156.15187 59.300912,122.93066 45.971264,47.922343 110.31316,45.725819 Z"
       style="opacity:0.186;fill:#000080;fill-rule:evenodd;stroke:none;stroke-width:0.15523717px;stroke-linecap:butt;stroke-linejoin:miter;stroke-opacity:1" />
  </g>
</svg>
